<?xml version="1.0" standalone="no"?>
<!DOCTYPE svg PUBLIC "-//W3C//DTD SVG 1.1//EN" "http://www.w3.org/Graphics/SVG/1.1/DTD/svg11.dtd" >
<svg>
<metadata>
Created by FontForge 20090914 at Thu Aug  8 08:07:51 2013
 By www-data
Created by gluk with FontForge 1.0 (http://fontforge.sf.net)
This Font Software is licensed under the SIL Open Font License, V.1.1.
This license is available with a FAQ at: http://scripts.sil.org/OFL.
</metadata>
<defs>
<font id="Gputeks-Bold" horiz-adv-x="1365" >
  <font-face 
    font-family="Gputeks"
    font-weight="600"
    font-stretch="extra-expanded"
    units-per-em="2048"
    panose-1="2 0 8 3 0 0 0 0 0 0"
    ascent="1621"
    descent="-427"
    x-height="1195"
    cap-height="1621"
    bbox="-171 -427 2133 2115"
    underline-thickness="85"
    underline-position="-427"
    unicode-range="U+0001-U+E000"
  />
<missing-glyph horiz-adv-x="748" 
d="M68 0v1365h544v-1365h-544zM136 68h408v1229h-408v-1229z" />
    <glyph glyph-name=".notdef" horiz-adv-x="748" 
d="M68 0v1365h544v-1365h-544zM136 68h408v1229h-408v-1229z" />
    <glyph glyph-name="uni0001" horiz-adv-x="1024" 
 />
    <glyph glyph-name="uni0002" horiz-adv-x="1024" 
 />
    <glyph glyph-name="uni0003" horiz-adv-x="1024" 
 />
    <glyph glyph-name="uni0004" horiz-adv-x="1024" 
 />
    <glyph glyph-name="uni0005" horiz-adv-x="1024" 
 />
    <glyph glyph-name="uni0006" horiz-adv-x="1024" 
 />
    <glyph glyph-name="uni0007" horiz-adv-x="1024" 
 />
    <glyph glyph-name="uni0008" horiz-adv-x="1024" 
 />
    <glyph glyph-name="uni0009" unicode="&#x9;" horiz-adv-x="1024" 
 />
    <glyph glyph-name="uni000A" unicode="&#xa;" horiz-adv-x="1024" 
 />
    <glyph glyph-name="uni000B" horiz-adv-x="1024" 
 />
    <glyph glyph-name="uni000C" horiz-adv-x="1024" 
 />
    <glyph glyph-name="uni000D" unicode="&#xd;" horiz-adv-x="1024" 
 />
    <glyph glyph-name="uni000E" horiz-adv-x="1024" 
 />
    <glyph glyph-name="uni000F" horiz-adv-x="1024" 
 />
    <glyph glyph-name="uni0010" horiz-adv-x="1024" 
 />
    <glyph glyph-name="uni0011" horiz-adv-x="1024" 
 />
    <glyph glyph-name="uni0014" horiz-adv-x="1024" 
 />
    <glyph glyph-name="uni0015" horiz-adv-x="1024" 
 />
    <glyph glyph-name="uni0016" horiz-adv-x="1024" 
 />
    <glyph glyph-name="uni0017" horiz-adv-x="1024" 
 />
    <glyph glyph-name="uni0018" horiz-adv-x="1024" 
 />
    <glyph glyph-name="uni0019" horiz-adv-x="1024" 
 />
    <glyph glyph-name="uni001A" horiz-adv-x="1024" 
 />
    <glyph glyph-name="uni001B" horiz-adv-x="1024" 
 />
    <glyph glyph-name="uni001D" horiz-adv-x="1024" 
 />
    <glyph glyph-name="space" unicode=" " horiz-adv-x="1066" 
 />
    <glyph glyph-name="exclam" unicode="!" horiz-adv-x="512" 
d="M85 43l0.000976562 85c0.666992 10 1.66699 17.167 3 21.5s6.83301 9 16.5 14s24.5 7.5 44.5 7.5h128c20.667 0 35.667 -2 45 -6s14.666 -8.33301 15.999 -13s2.33301 -12.667 3 -24v-85c0 -16.667 -3.33301 -28 -10 -34s-24.667 -9 -54 -9h-128c-28 0 -45.667 3 -53 9
s-11 17.333 -11 34zM85.001 341v1280h256v-1280h-256z" />
    <glyph glyph-name="quotedbl" unicode="&#x22;" horiz-adv-x="597" 
d="M85 1664v85c0 7.33301 0.333008 12.833 1 16.5s2.83398 8 6.50098 13s10.167 8.5 19.5 10.5s21.666 3 36.999 3h43c20.667 0 35.667 -1.83301 45 -5.5s14.833 -8 16.5 -13s2.5 -13.167 2.5 -24.5v-128c0 -10.667 -7 -81.667 -21 -213h-86l22 192c0 14 -10.667 21 -32 21
h-9c-8 0 -17.5 4.16699 -28.5 12.5s-16.5 18.5 -16.5 30.5zM341 1664v85c0 7.33301 0.333008 12.833 1 16.5s2.83398 8 6.50098 13s10.167 8.5 19.5 10.5s21.666 3 36.999 3h43c20.667 0 35.667 -1.83301 45 -5.5s14.833 -8 16.5 -13s2.5 -13.167 2.5 -24.5v-128
c0 -17.333 -7 -88.333 -21 -213h-86l22 192c0 14 -10.667 21 -32 21h-9c-8 0 -17.5 4.16699 -28.5 12.5s-16.5 18.5 -16.5 30.5z" />
    <glyph glyph-name="numbersign" unicode="#" horiz-adv-x="1066" 
d="M85 427v85h171v256h-171v85h171v171h85v-171h171v171h85v-171h171v-85h-171v-256h171v-85h-171v-171h-85v171h-171v-171h-85v171h-171zM341 512h171v256h-171v-256z" />
    <glyph glyph-name="dollar" unicode="$" 
d="M85 1033v110c0 95.333 39.167 170.5 117.5 225.5s181.5 82.5 309.5 82.5h21v213h86v-213h405v-86h-405v-554h149c128 0 231.167 -27.5 309.5 -82.5s117.5 -130.167 117.5 -225.5v-110c0 -95.333 -39.167 -170.5 -117.5 -225.5s-181.5 -82.5 -309.5 -82.5h-149v-213h-86
v213h-362v86h362v554h-21c-128 0 -231.167 27.5 -309.5 82.5s-117.5 130.167 -117.5 225.5zM341 1079c0 -16 0.333008 -30 1 -42s2.33398 -27 5.00098 -45s6.5 -33.667 11.5 -47s12.167 -27.666 21.5 -42.999s20.666 -28.333 33.999 -39s30.166 -20.334 50.499 -29.001
s43.166 -15 68.499 -19v546c-25.333 -4 -48.166 -10.333 -68.499 -19s-37.166 -18.334 -50.499 -29.001s-24.666 -23.667 -33.999 -39s-16.5 -29.666 -21.5 -42.999s-8.83301 -29 -11.5 -47s-4.33398 -33 -5.00098 -45s-1 -26 -1 -42v-18zM619 171l64 0.00195312
c34 0 64.667 3.33301 92 10s49.666 15 66.999 25s32.333 23.167 45 39.5s22.334 31.666 29.001 45.999s11.834 31.5 15.501 51.5s5.83398 36.5 6.50098 49.5s1 28.5 1 46.5v18c0 18 -0.333008 33.5 -1 46.5s-2.83398 29.5 -6.50098 49.5s-8.83398 37.167 -15.501 51.5
s-16.334 29.666 -29.001 45.999s-27.667 29.5 -45 39.5s-39.666 18.333 -66.999 25s-58 10 -92 10h-64v-554z" />
    <glyph glyph-name="percent" unicode="%" horiz-adv-x="1280" 
d="M85 0l811 1621h213l-810 -1621h-214zM85 1421v53c0 46 15.167 82 45.5 108s71.5 39 123.5 39h51c54 0 97.333 -13.167 130 -39.5s49 -62.166 49 -107.499v-53c0 -44.667 -17.333 -80.334 -52 -107.001s-77 -40 -127 -40h-51c-52 0 -93.167 13 -123.5 39
s-45.5 62 -45.5 108zM169 1444c0 -86.667 33.333 -129.997 100 -129.997h21c22.667 0 41.334 4.16699 56.001 12.5s24.834 20.166 30.501 35.499s9.33398 28.666 11.001 39.999s2.5 25.333 2.5 42v9c0 16 -0.833008 29.667 -2.5 41s-5.33398 24.5 -11.001 39.5
s-15.834 26.667 -30.501 35s-33.334 12.5 -56.001 12.5h-21c-18.667 0 -34.667 -3.16699 -48 -9.5s-23.333 -13.5 -30 -21.5s-11.667 -18.667 -15 -32s-5.33301 -24.333 -6 -33s-1 -19.334 -1 -32.001v-9zM710 147.003v54.002c0 45.333 15.333 81.166 46 107.499
s71.667 39.5 123 39.5h51c54 0 97.333 -13.167 130 -39.5s49 -62.166 49 -107.499v-54c0 -44.667 -17.333 -80.334 -52 -107.001s-77 -40 -127 -40h-51c-51.333 0 -92.333 13.167 -123 39.5s-46 62.166 -46 107.499zM794 171.005c0 -86.667 33.333 -129.997 100 -129.997h21
c22.667 0 41.334 4.16699 56.001 12.5s24.834 20.166 30.501 35.499s9.33398 28.666 11.001 39.999s2.5 25.333 2.5 42v8c0 16 -0.833008 29.667 -2.5 41s-5.33398 24.5 -11.001 39.5s-15.834 26.667 -30.501 35s-33.334 12.5 -56.001 12.5h-21
c-18.667 0 -34.667 -3.16699 -48 -9.5s-23.333 -13.5 -30 -21.5s-11.667 -18.667 -15 -32s-5.33301 -24.333 -6 -33s-1 -19.334 -1 -32.001v-8z" />
    <glyph glyph-name="ampersand" unicode="&#x26;" horiz-adv-x="1621" 
d="M85 307l0.00390625 239.002c0 88 34.667 159.5 104 214.5s156.666 85.5 261.999 91.5c-2.66699 2 -16.834 11.167 -42.501 27.5s-53.167 35.666 -82.5 57.999s-59.5 48.5 -90.5 78.5s-56.667 65.333 -77 106s-30.5 82 -30.5 124v68c0 94.667 39.5 169.5 118.5 224.5
s183.833 82.5 314.5 82.5h207c128 0 231.167 -27.5 309.5 -82.5s117.5 -129.833 117.5 -224.5v-79h-256v32c0 18 -0.333008 33.667 -1 47s-2.83398 30 -6.50098 50s-8.83398 37.167 -15.501 51.5s-16.334 29.5 -29.001 45.5s-27.667 29.167 -45 39.5
s-39.666 18.833 -66.999 25.5s-58 10 -92 10h-37c-48 0 -89.333 -6.5 -124 -19.5s-60.667 -28.167 -78 -45.5s-30.833 -39.833 -40.5 -67.5s-15.334 -50.834 -17.001 -69.501s-2.5 -41 -2.5 -67v-60c0 -22.667 0.833008 -43.5 2.5 -62.5s4.83398 -36.833 9.50098 -53.5
s9 -31.167 13 -43.5s10.667 -25.666 20 -39.999s17.333 -26 24 -35s17 -20.5 31 -34.5s25.5 -25 34.5 -33l41.5 -37.5l45 -41.5l586 -546c2.66699 23.333 4 48 4 74v201h256v-248c0 -48.667 -21.667 -105.334 -65 -170.001l137 -127l-59 -62l-136 126
c-35.333 -29.333 -76.333 -49 -123 -59s-107 -15 -181 -15h-506c-130 0 -234.667 27.5 -314 82.5s-119 129.833 -119 224.5zM341.004 354.002c0 -26 0.998047 -48.501 2.99805 -67.501s7.83301 -42.167 17.5 -69.5s23.167 -49.666 40.5 -66.999s43.333 -32.5 78 -45.5
s76 -19.5 124 -19.5h335c112 0 187 34.667 225 104l-658 612c-25.333 -6 -47.666 -14.5 -66.999 -25.5s-34.666 -24.167 -45.999 -39.5s-20.833 -30.5 -28.5 -45.5s-13 -32.333 -16 -52s-5 -36.167 -6 -49.5s-1.5 -29 -1.5 -47v-188z" />
    <glyph glyph-name="quotesingle" unicode="'" horiz-adv-x="341" 
d="M85 1664v85c0 7.33301 0.333008 12.833 1 16.5s2.83398 8 6.50098 13s10.167 8.5 19.5 10.5s21.666 3 36.999 3h43c20.667 0 35.667 -1.83301 45 -5.5s14.833 -8 16.5 -13s2.5 -13.167 2.5 -24.5v-128c0 -10.667 -7 -81.667 -21 -213h-86l22 192c0 14 -10.667 21 -32 21
h-9c-8 0 -17.5 4.16699 -28.5 12.5s-16.5 18.5 -16.5 30.5z" />
    <glyph glyph-name="parenleft" unicode="(" horiz-adv-x="853" 
d="M85 51v1263c0 94.667 39.167 169.5 117.5 224.5s181.5 82.5 309.5 82.5h171v-85h-86c-34 0 -64.667 -3.33301 -92 -10s-49.666 -15.167 -66.999 -25.5s-32.333 -23.5 -45 -39.5s-22.334 -31.167 -29.001 -45.5s-11.834 -31.5 -15.501 -51.5
s-5.83398 -36.667 -6.50098 -50s-1 -29 -1 -47v-1169c0 -18 0.333008 -33.667 1 -47s2.83398 -30 6.50098 -50s8.83398 -37.167 15.501 -51.5s16.334 -29.5 29.001 -45.5s27.667 -29.167 45 -39.5s39.666 -18.833 66.999 -25.5s58 -10 92 -10h86v-85h-171
c-128 0 -231.167 27.5 -309.5 82.5s-117.5 129.833 -117.5 224.5z" />
    <glyph glyph-name="parenright" unicode=")" horiz-adv-x="853" 
d="M85 -171h86c34 0 64.667 3.33301 92 10s49.666 15.167 66.999 25.5s32.333 23.5 45 39.5s22.334 31.167 29.001 45.5s11.834 31.5 15.501 51.5s5.83398 36.667 6.50098 50s1 29 1 47v1169c0 18 -0.333008 33.667 -1 47s-2.83398 30 -6.50098 50
s-8.83398 37.167 -15.501 51.5s-16.334 29.5 -29.001 45.5s-27.667 29.167 -45 39.5s-39.666 18.833 -66.999 25.5s-58 10 -92 10h-86v85h171c128 0 231.167 -27.5 309.5 -82.5s117.5 -129.833 117.5 -224.5v-1263c0 -94.667 -39.167 -169.5 -117.5 -224.5
s-181.5 -82.5 -309.5 -82.5h-171v85z" />
    <glyph glyph-name="asterisk" unicode="*" horiz-adv-x="900" 
d="M171 585l113 113l-113 113l59 59l113 -113l114 113l59 -59l-113 -113l113 -113l-59 -60l-114 113l-113 -113z" />
    <glyph glyph-name="plus" unicode="+" 
d="M85 853v86h470v512h170v-512h470v-86h-470v-512h-170v512h-470z" />
    <glyph glyph-name="comma" unicode="," horiz-adv-x="667" 
d="M147 -132l106 80c12 10.667 18 20.667 18 30c0 14.667 -12 22 -36 22c-28.667 -0 -46.5 2.83301 -53.5 8.5s-10.5 17.167 -10.5 34.5v85c0.666992 10 1.66699 17.167 3 21.5s6.83301 9 16.5 14s24.5 7.5 44.5 7.5h128c20.667 0 35.667 -2 45 -6s14.833 -8.33301 16.5 -13
s2.5 -12.667 2.5 -24v-128c-0.666992 -22.667 -10 -41 -28 -55l-205 -150z" />
    <glyph glyph-name="hyphen" unicode="-" 
d="M85 853v86h1110v-86h-1110z" />
    <glyph glyph-name="period" unicode="." horiz-adv-x="682" 
d="M171 43l0.000976562 85c0.666992 10 1.66699 17.167 3 21.5s6.83301 9 16.5 14s24.5 7.5 44.5 7.5h128c20.667 0 35.667 -2 45 -6s14.666 -8.33301 15.999 -13s2.33301 -12.667 3 -24v-85c0 -16.667 -3.33301 -28 -10 -34s-24.667 -9 -54 -9h-128
c-28.667 -0 -46.5 2.83301 -53.5 8.5s-10.5 17.167 -10.5 34.5z" />
    <glyph glyph-name="slash" unicode="/" horiz-adv-x="1280" 
d="M85 0l811 1621h213l-810 -1621h-214z" />
    <glyph glyph-name="zero" unicode="0" 
d="M85 307v1007c0 94.667 39.167 169.5 117.5 224.5s181.5 82.5 309.5 82.5h256c128 0 231.167 -27.5 309.5 -82.5s117.5 -129.833 117.5 -224.5v-1007c0 -94.667 -39.167 -169.5 -117.5 -224.5s-181.5 -82.5 -309.5 -82.5h-256c-128 0 -231.167 27.5 -309.5 82.5
s-117.5 129.833 -117.5 224.5zM341 354c0 -18 0.333008 -33.667 1 -47s2.83398 -30 6.50098 -50s8.83398 -37.167 15.501 -51.5s16.334 -29.5 29.001 -45.5s27.667 -29.167 45 -39.5s39.666 -18.833 66.999 -25.5s58 -10 92 -10h86c34 0 64.667 3.33301 92 10
s49.666 15.167 66.999 25.5s32.333 23.5 45 39.5s22.334 31.167 29.001 45.5s11.834 31.5 15.501 51.5s5.83398 36.667 6.50098 50s1 29 1 47v913c0 18 -0.333008 33.667 -1 47s-2.83398 30 -6.50098 50s-8.83398 37.167 -15.501 51.5s-16.334 29.5 -29.001 45.5
s-27.667 29.167 -45 39.5s-39.666 18.833 -66.999 25.5s-58 10 -92 10h-86c-34 0 -64.667 -3.33301 -92 -10s-49.666 -15.167 -66.999 -25.5s-32.333 -23.5 -45 -39.5s-22.334 -31.167 -29.001 -45.5s-11.834 -31.5 -15.501 -51.5s-5.83398 -36.667 -6.50098 -50
s-1 -29 -1 -47v-913z" />
    <glyph glyph-name="one" unicode="1" horiz-adv-x="597" 
d="M0 1536v85h427v-1621h-256v1438c0 65.333 -28.667 98 -86 98h-85z" />
    <glyph glyph-name="two" unicode="2" 
d="M85 0l0.00195312 674c0 94.667 39.167 169.5 117.5 224.5s181.5 82.5 309.5 82.5h171c34 0 64.667 3.33301 92 10s49.666 15.167 66.999 25.5s32.333 23.5 45 39.5s22.334 31.167 29.001 45.5s11.834 31.5 15.501 51.5s5.83398 36.667 6.50098 50s1 29 1 47v17
c0 18 -0.333008 33.667 -1 47s-2.83398 30 -6.50098 50s-8.83398 37.167 -15.501 51.5s-16.334 29.5 -29.001 45.5s-27.667 29.167 -45 39.5s-39.666 18.833 -66.999 25.5s-58 10 -92 10h-470v85h555c128 0 231.167 -27.5 309.5 -82.5s117.5 -129.833 117.5 -224.5v-111
c0 -94.667 -39.167 -169.5 -117.5 -224.5s-181.5 -82.5 -309.5 -82.5h-171c-34 0 -64.667 -3.33301 -92 -10s-49.666 -15.167 -66.999 -25.5s-32.333 -23.5 -45 -39.5s-22.334 -31.167 -29.001 -45.5s-11.834 -31.5 -15.501 -51.5s-5.83398 -36.667 -6.50098 -50
s-1 -29 -1 -47v-542h854v-85h-1110z" />
    <glyph glyph-name="three" unicode="3" 
d="M85 0l-0.000976562 85.0049h598c34 0 64.667 3.33301 92 10s49.666 15.167 66.999 25.5s32.333 23.5 45 39.5s22.334 31.167 29.001 45.5s11.834 31.5 15.501 51.5s5.83398 36.667 6.50098 50s1 29 1 47v188c0 18 -0.333008 33.667 -1 47s-2.83398 30 -6.50098 50
s-8.83398 37.167 -15.501 51.5s-16.334 29.5 -29.001 45.5s-27.667 29.167 -45 39.5s-39.666 18.833 -66.999 25.5s-58 10 -92 10h-342v85h299c34 0 64.667 4.16699 92 12.5s49.666 18.666 66.999 30.999s32.333 28.166 45 47.499s22.334 37.666 29.001 54.999
s11.834 37.333 15.501 60s5.83398 41.167 6.50098 55.5s1 30.833 1 49.5v60c0 18 -0.333008 33.667 -1 47s-2.83398 30 -6.50098 50s-8.83398 37.167 -15.501 51.5s-16.334 29.5 -29.001 45.5s-27.667 29.167 -45 39.5s-39.666 18.833 -66.999 25.5s-58 10 -92 10h-555v85
h640c128 0 231.167 -27.5 309.5 -82.5s117.5 -129.833 117.5 -224.5v-153c0 -50.667 -8.66699 -94.834 -26 -132.501s-39.166 -66.334 -65.499 -86.001s-55 -36 -86 -49s-59.833 -21.167 -86.5 -24.5s-49.5 -6.33301 -68.5 -9s-29.167 -5 -30.5 -7
c119.333 0 216.833 -27.667 292.5 -83s113.5 -130 113.5 -224v-239c0 -94.667 -39.167 -169.5 -117.5 -224.5s-181.5 -82.5 -309.5 -82.5h-683z" />
    <glyph glyph-name="four" unicode="4" 
d="M85 734l-0.00195312 887h256v-840c0 -18 0.333008 -33.667 1 -47s2.83398 -30 6.50098 -50s8.83398 -37.167 15.501 -51.5s16.334 -29.5 29.001 -45.5s27.667 -29.167 45 -39.5s39.666 -18.833 66.999 -25.5s58 -10 92 -10h342v1109h256v-1621h-256v427h-427
c-128 0 -231.167 27.5 -309.5 82.5s-117.5 129.833 -117.5 224.5z" />
    <glyph glyph-name="five" unicode="5" 
d="M85 0v85h598c34 0 64.667 3.33301 92 10s49.666 15.167 66.999 25.5s32.333 23.5 45 39.5s22.334 31.167 29.001 45.5s11.834 31.5 15.501 51.5s5.83398 36.667 6.50098 50s1 29 1 47v401c0 18 -0.333008 33.667 -1 47s-2.83398 30 -6.50098 50
s-8.83398 37.167 -15.501 51.5s-16.334 29.5 -29.001 45.5s-27.667 29.167 -45 39.5s-39.666 18.833 -66.999 25.5s-58 10 -92 10h-598v597h1024v-85h-768v-427h427c128 0 231.167 -27.5 309.5 -82.5s117.5 -129.833 117.5 -224.5v-495
c0 -94.667 -39.167 -169.5 -117.5 -224.5s-181.5 -82.5 -309.5 -82.5h-683z" />
    <glyph glyph-name="six" unicode="6" 
d="M85 307l0.00195312 1007c0 94.667 39.167 169.5 117.5 224.5s181.5 82.5 309.5 82.5h597v-85h-512c-34 0 -64.667 -3.33301 -92 -10s-49.666 -15.167 -66.999 -25.5s-32.333 -23.5 -45 -39.5s-22.334 -31.167 -29.001 -45.5s-11.834 -31.5 -15.501 -51.5
s-5.83398 -36.667 -6.50098 -50s-1 -29 -1 -47v-158h427c128 0 231.167 -27.5 309.5 -82.5s117.5 -129.833 117.5 -224.5v-495c0 -94.667 -39.167 -169.5 -117.5 -224.5s-181.5 -82.5 -309.5 -82.5h-256c-128 0 -231.167 27.5 -309.5 82.5s-117.5 129.833 -117.5 224.5z
M341.002 354c0 -18 0.333008 -33.667 1 -47s2.83398 -30 6.50098 -50s8.83398 -37.167 15.501 -51.5s16.334 -29.5 29.001 -45.5s27.667 -29.167 45 -39.5s39.666 -18.833 66.999 -25.5s58 -10 92 -10h86c34 0 64.667 3.33301 92 10s49.666 15.167 66.999 25.5
s32.333 23.5 45 39.5s22.334 31.167 29.001 45.5s11.834 31.5 15.501 51.5s5.83398 36.667 6.50098 50s1 29 1 47v401c0 18 -0.333008 33.667 -1 47s-2.83398 30 -6.50098 50s-8.83398 37.167 -15.501 51.5s-16.334 29.5 -29.001 45.5s-27.667 29.167 -45 39.5
s-39.666 18.833 -66.999 25.5s-58 10 -92 10h-86c-34 0 -64.667 -3.33301 -92 -10s-49.666 -15.167 -66.999 -25.5s-32.333 -23.5 -45 -39.5s-22.334 -31.167 -29.001 -45.5s-11.834 -31.5 -15.501 -51.5s-5.83398 -36.667 -6.50098 -50s-1 -29 -1 -47v-401z" />
    <glyph glyph-name="seven" unicode="7" horiz-adv-x="1250" 
d="M85 1536v85h1110l-64 -68c-317.333 -209.333 -471 -727 -461 -1553h-241c2.66699 768 144 1280 424 1536h-768z" />
    <glyph glyph-name="eight" unicode="8" 
d="M85 307l-0.00195312 367c0 60.667 16.667 113.667 50 159s80 80.666 140 105.999c-55.333 23.333 -93.666 56.333 -114.999 99s-32 97.667 -32 165v111c0 94.667 39.167 169.5 117.5 224.5s181.5 82.5 309.5 82.5h170c128 0 231.167 -27.5 309.5 -82.5
s117.5 -129.833 117.5 -224.5v-111c0 -67.333 -10.667 -122.333 -32 -165s-59.666 -75.667 -114.999 -99c60 -25.333 106.667 -60.666 140 -105.999s50 -98.333 50 -159v-367c0 -94.667 -39.167 -169.5 -117.5 -224.5s-181.5 -82.5 -309.5 -82.5h-256
c-128 0 -231.167 27.5 -309.5 82.5s-117.5 129.833 -117.5 224.5zM340.998 354c0 -18 0.333008 -33.667 1 -47s2.83398 -30 6.50098 -50s8.83398 -37.167 15.501 -51.5s16.334 -29.5 29.001 -45.5s27.667 -29.167 45 -39.5s39.666 -18.833 66.999 -25.5s58 -10 92 -10h86
c34 0 64.667 3.33301 92 10s49.666 15.167 66.999 25.5s32.333 23.5 45 39.5s22.334 31.167 29.001 45.5s11.834 31.5 15.501 51.5s5.83398 36.667 6.50098 50s1 29 1 47v273c0 18 -0.333008 33.667 -1 47s-2.83398 30 -6.50098 50s-8.83398 37.167 -15.501 51.5
s-16.334 29.5 -29.001 45.5s-27.667 29.167 -45 39.5s-39.666 18.833 -66.999 25.5s-58 10 -92 10h-86c-34 0 -64.667 -3.33301 -92 -10s-49.666 -15.167 -66.999 -25.5s-32.333 -23.5 -45 -39.5s-22.334 -31.167 -29.001 -45.5s-11.834 -31.5 -15.501 -51.5
s-5.83398 -36.667 -6.50098 -50s-1 -29 -1 -47v-273zM340.998 1250c0 -18 0.333008 -33.667 1 -47s2.83398 -30 6.50098 -50s8.83398 -37.167 15.501 -51.5s16.334 -29.5 29.001 -45.5s27.667 -29.167 45 -39.5s39.666 -18.833 66.999 -25.5s58 -10 92 -10h86
c34 0 64.667 3.33301 92 10s49.666 15.167 66.999 25.5s32.333 23.5 45 39.5s22.334 31.167 29.001 45.5s11.834 31.5 15.501 51.5s5.83398 36.667 6.50098 50s1 29 1 47v17c0 18 -0.333008 33.667 -1 47s-2.83398 30 -6.50098 50s-8.83398 37.167 -15.501 51.5
s-16.334 29.5 -29.001 45.5s-27.667 29.167 -45 39.5s-39.666 18.833 -66.999 25.5s-58 10 -92 10h-86c-34 0 -64.667 -3.33301 -92 -10s-49.666 -15.167 -66.999 -25.5s-32.333 -23.5 -45 -39.5s-22.334 -31.167 -29.001 -45.5s-11.834 -31.5 -15.501 -51.5
s-5.83398 -36.667 -6.50098 -50s-1 -29 -1 -47v-17z" />
    <glyph glyph-name="nine" unicode="9" 
d="M85 734l-0.00195312 397v183c0 94.667 39.167 169.5 117.5 224.5s181.5 82.5 309.5 82.5h256c128 0 231.167 -27.5 309.5 -82.5s117.5 -129.833 117.5 -224.5v-1007c0 -94.667 -39.167 -169.5 -117.5 -224.5s-181.5 -82.5 -309.5 -82.5h-597v85h512
c34 0 64.667 3.33301 92 10s49.666 15.167 66.999 25.5s32.333 23.5 45 39.5s22.334 31.167 29.001 45.5s11.834 31.5 15.501 51.5s5.83398 36.667 6.50098 50s1 29 1 47v73h-427c-128 0 -231.167 27.5 -309.5 82.5s-117.5 129.833 -117.5 224.5zM340.998 781
c0 -18 0.333008 -33.667 1 -47s2.83398 -30 6.50098 -50s8.83398 -37.167 15.501 -51.5s16.334 -29.5 29.001 -45.5s27.667 -29.167 45 -39.5s39.666 -18.833 66.999 -25.5s58 -10 92 -10h86c34 0 64.667 3.33301 92 10s49.666 15.167 66.999 25.5s32.333 23.5 45 39.5
s22.334 31.167 29.001 45.5s11.834 31.5 15.501 51.5s5.83398 36.667 6.50098 50s1 29 1 47v486c0 18 -0.333008 33.667 -1 47s-2.83398 30 -6.50098 50s-8.83398 37.167 -15.501 51.5s-16.334 29.5 -29.001 45.5s-27.667 29.167 -45 39.5s-39.666 18.833 -66.999 25.5
s-58 10 -92 10h-86c-34 0 -64.667 -3.33301 -92 -10s-49.666 -15.167 -66.999 -25.5s-32.333 -23.5 -45 -39.5s-22.334 -31.167 -29.001 -45.5s-11.834 -31.5 -15.501 -51.5s-5.83398 -36.667 -6.50098 -50s-1 -29 -1 -47v-136v-350z" />
    <glyph glyph-name="colon" unicode=":" horiz-adv-x="512" 
d="M86 45l0.000976562 85c0.666992 10 1.66699 17.167 3 21.5s6.83301 9 16.5 14s24.5 7.5 44.5 7.5h128c20.667 0 35.667 -2 45 -6s14.666 -8.33301 15.999 -13s2.33301 -12.667 3 -24v-85c0 -16.667 -3.33301 -28 -10 -34s-24.667 -9 -54 -9h-128
c-28.667 0 -46.5 2.83301 -53.5 8.5s-10.5 17.167 -10.5 34.5zM86.001 1067l0.000976562 85c0.666992 10 1.66699 17.167 3 21.5s6.83301 9 16.5 14s24.5 7.5 44.5 7.5h128c20.667 0 35.667 -2 45 -6s14.666 -8.33301 15.999 -13s2.33301 -12.667 3 -24v-85
c0 -16.667 -3.33301 -28 -10 -34s-24.667 -9 -54 -9h-128c-28.667 0 -46.5 2.83301 -53.5 8.5s-10.5 17.167 -10.5 34.5z" />
    <glyph glyph-name="semicolon" unicode=";" horiz-adv-x="667" 
d="M132 -132l106 80c12 10.667 18 20.667 18 30c0 14.667 -12 22 -36 22c-28.667 -0 -46.5 2.83301 -53.5 8.5s-10.5 17.167 -10.5 34.5v85c0.666992 10 1.66699 17.167 3 21.5s6.83301 9 16.5 14s24.5 7.5 44.5 7.5h128c20.667 0 35.667 -2 45 -6s14.833 -8.33301 16.5 -13
s2.5 -12.667 2.5 -24v-128c-0.666992 -22.667 -10 -41 -28 -55l-205 -150zM156 1067l0.000976562 85c0.666992 10 1.66699 17.167 3 21.5s6.83301 9 16.5 14s24.5 7.5 44.5 7.5h128c20.667 0 35.667 -2 45 -6s14.666 -8.33301 15.999 -13s2.33301 -12.667 3 -24v-85
c0 -16.667 -3.33301 -28 -10 -34s-24.667 -9 -54 -9h-128c-28.667 0 -46.5 2.83301 -53.5 8.5s-10.5 17.167 -10.5 34.5z" />
    <glyph glyph-name="less" unicode="&#x3c;" horiz-adv-x="896" 
d="M85 817l573 573l61 -60l-332 -332c-64 -64 -96 -125.667 -96 -185c0 -24 5.66699 -48 17 -72s22.833 -43 34.5 -57s26.5 -30 44.5 -48l332 -332l-61 -61z" />
    <glyph glyph-name="equal" unicode="=" 
d="M85 597v86h1110v-86h-1110zM85 939v85h1110v-85h-1110z" />
    <glyph glyph-name="greater" unicode="&#x3e;" horiz-adv-x="896" 
d="M86 304l332 331.999c18 18 32.833 34 44.5 48s23.167 33 34.5 57s17 48 17 72c0 58.667 -32 120.334 -96 185.001l-332 332l60 60l573 -573l-573 -574z" />
    <glyph glyph-name="question" unicode="?" horiz-adv-x="1194" 
d="M85 1536v85.001h512c128 0 231.167 -27.5 309.5 -82.5s117.5 -129.833 117.5 -224.5v-409c0 -95.333 -39.167 -170.5 -117.5 -225.5s-181.5 -82.5 -309.5 -82.5h-85v-256h-256v342h256c34 0 64.667 3.33301 92 10s49.666 15 66.999 25s32.333 23.167 45 39.5
s22.334 31.666 29.001 45.999s11.834 31.5 15.501 51.5s5.83398 36.5 6.50098 49.5s1 28.5 1 46.5v316c0 18 -0.333008 33.667 -1 47s-2.83398 30 -6.50098 50s-8.83398 37.167 -15.501 51.5s-16.334 29.5 -29.001 45.5s-27.667 29.167 -45 39.5
s-39.666 18.833 -66.999 25.5s-58 10 -92 10h-427zM256 43.001l0.000976562 85c0.666992 10 1.66699 17.167 3 21.5s6.83301 9 16.5 14s24.5 7.5 44.5 7.5h128c20.667 0 35.667 -2 45 -6s14.666 -8.33301 15.999 -13s2.33301 -12.667 3 -24v-85
c0 -16.667 -3.33301 -28 -10 -34s-24.667 -9 -54 -9h-128c-28.667 0 -46.5 2.83301 -53.5 8.5s-10.5 17.167 -10.5 34.5z" />
    <glyph glyph-name="at" unicode="@" horiz-adv-x="2133" 
d="M85 -34l0.00195312 1263c0 62.667 25 124.5 75 185.5s114.833 110.667 194.5 149s160.5 57.5 242.5 57.5h854c82 0 162.833 -19.167 242.5 -57.5s144.5 -88 194.5 -149s75 -122.833 75 -185.5v-1007c0 -92.667 -58.667 -156.334 -176 -191.001
c-24.667 -7.33301 -72.667 -17.666 -144 -30.999h-192h-534c-127.333 0 -230.166 27.5 -308.499 82.5s-117.5 129.833 -117.5 224.5v580c0 95.333 39.167 170.5 117.5 225.5s181.166 82.5 308.499 82.5h171c128 0 231.167 -27.5 309.5 -82.5s117.5 -130.167 117.5 -225.5
v-797h81c64 5.33301 112.667 21.833 146 49.5s50 70.834 50 129.501v913c0 21.333 -3.83301 46.333 -11.5 75s-20.334 59.5 -38.001 92.5s-39.167 63.167 -64.5 90.5s-57.833 50.166 -97.5 68.499s-82.834 27.5 -129.501 27.5h-854
c-46.667 0 -89.834 -9.16699 -129.501 -27.5s-72.167 -41.166 -97.5 -68.499s-46.833 -57.5 -64.5 -90.5s-30.334 -63.833 -38.001 -92.5s-11.5 -53.667 -11.5 -75v-1169c0 -21.333 3.83301 -46.333 11.5 -75s20.334 -59.5 38.001 -92.5s39.167 -63.167 64.5 -90.5
s57.833 -50.166 97.5 -68.499s82.834 -27.5 129.501 -27.5h753v-86h-753c-82 0 -162.833 19.167 -242.5 57.5s-144.5 88.166 -194.5 149.499s-75 123.333 -75 186zM747.002 353.999c0 -26.667 0.836914 -49.166 2.50391 -67.499s7.16699 -41.333 16.5 -69
s22.5 -50.167 39.5 -67.5s42.333 -32.5 76 -45.5s74.167 -19.5 121.5 -19.5h256v756c0 18 -0.333008 33.5 -1 46.5s-2.83398 29.5 -6.50098 49.5s-8.83398 37.167 -15.501 51.5s-16.334 29.666 -29.001 45.999s-27.667 29.5 -45 39.5s-39.666 18.333 -66.999 25
s-58 10 -92 10s-64.667 -3.33301 -92 -10s-49.833 -15 -67.5 -25s-32.834 -23.167 -45.501 -39.5s-22.167 -31.5 -28.5 -45.5s-11.333 -31.167 -15 -51.5s-5.83398 -37 -6.50098 -50s-1 -28.5 -1 -46.5v-487z" />
    <glyph glyph-name="A" unicode="A" horiz-adv-x="1450" 
d="M85 0v1314c0 94.667 39.167 169.5 117.5 224.5s181.5 82.5 309.5 82.5h341c128 0 231.167 -27.5 309.5 -82.5s117.5 -129.833 117.5 -224.5v-1314h-256v939h-683v-939h-256zM341 1024h683.004v243c0 18 -0.333008 33.667 -1 47s-2.83398 30 -6.50098 50
s-8.83398 37.167 -15.501 51.5s-16.334 29.5 -29.001 45.5s-27.667 29.167 -45 39.5s-39.666 18.833 -66.999 25.5s-58 10 -92 10h-171c-34 0 -64.667 -3.33301 -92 -10s-49.666 -15.167 -66.999 -25.5s-32.333 -23.5 -45 -39.5s-22.334 -31.167 -29.001 -45.5
s-11.834 -31.5 -15.501 -51.5s-5.83398 -36.667 -6.50098 -50s-1 -29 -1 -47v-243z" />
    <glyph glyph-name="B" unicode="B" horiz-adv-x="1450" 
d="M85 0l-0.000976562 853.002v768h726c127.333 0 230.166 -27.5 308.499 -82.5s117.5 -129.833 117.5 -224.5v-25c0 -50.667 -8.66699 -94.834 -26 -132.501s-39.166 -66.334 -65.499 -86.001s-55 -36 -86 -49s-59.667 -21.167 -86 -24.5s-49 -6.33301 -68 -9
s-29.167 -5 -30.5 -7c118.667 0 215.834 -27.667 291.501 -83s113.5 -130 113.5 -224v-367c0 -94.667 -39.167 -169.5 -117.5 -224.5s-181.5 -82.5 -309.5 -82.5h-768zM340.999 85.002h427c34 0 64.667 3.33301 92 10s49.666 15.167 66.999 25.5s32.333 23.5 45 39.5
s22.334 31.167 29.001 45.5s11.834 31.5 15.501 51.5s5.83398 36.667 6.50098 50s1 29 1 47v316c0 18 -0.333008 33.667 -1 47s-2.83398 30 -6.50098 50s-8.83398 37.167 -15.501 51.5s-16.334 29.5 -29.001 45.5s-27.667 29.167 -45 39.5s-39.666 18.833 -66.999 25.5
s-58 10 -92 10h-427v-854zM340.999 1024l383.999 -0.00195312c34 0 64.667 3.5 92 10.5s49.833 15.833 67.5 26.5s32.834 24.334 45.501 41.001s22.167 32.5 28.5 47.5s11.333 32.833 15 53.5s5.83398 37.667 6.50098 51s1 29 1 47c0 25.333 -3.33301 50 -10 74
s-18.5 49 -35.5 75s-43.5 46.833 -79.5 62.5s-79.667 23.5 -131 23.5h-213c-18.667 0 -32.834 -0.166992 -42.501 -0.5s-22.5 -1.16602 -38.5 -2.49902s-28.333 -3.83301 -37 -7.5s-17.667 -8.5 -27 -14.5s-16 -14 -20 -24s-6 -22 -6 -36v-427z" />
    <glyph glyph-name="C" unicode="C" 
d="M85 307v1007c0 94.667 39.167 169.5 117.5 224.5s181.5 82.5 309.5 82.5h683v-85h-598c-34 0 -64.667 -3.33301 -92 -10s-49.666 -15.167 -66.999 -25.5s-32.333 -23.5 -45 -39.5s-22.334 -31.167 -29.001 -45.5s-11.834 -31.5 -15.501 -51.5
s-5.83398 -36.667 -6.50098 -50s-1 -29 -1 -47v-913c0 -18 0.333008 -33.667 1 -47s2.83398 -30 6.50098 -50s8.83398 -37.167 15.501 -51.5s16.334 -29.5 29.001 -45.5s27.667 -29.167 45 -39.5s39.666 -18.833 66.999 -25.5s58 -10 92 -10h598v-85h-683
c-128 0 -231.167 27.5 -309.5 82.5s-117.5 129.833 -117.5 224.5z" />
    <glyph glyph-name="D" unicode="D" horiz-adv-x="1450" 
d="M85 0v1621h768c128 0 231.167 -27.5 309.5 -82.5s117.5 -129.833 117.5 -224.5v-1007c0 -94.667 -39.167 -169.5 -117.5 -224.5s-181.5 -82.5 -309.5 -82.5h-768zM341 85l426.999 -0.000976562c34 0 64.667 3.33301 92 10s49.666 15.167 66.999 25.5s32.333 23.5 45 39.5
s22.334 31.167 29.001 45.5s11.834 31.5 15.501 51.5s5.83398 36.667 6.50098 50s1 29 1 47v913c0 18 -0.333008 33.667 -1 47s-2.83398 30 -6.50098 50s-8.83398 37.167 -15.501 51.5s-16.334 29.5 -29.001 45.5s-27.667 29.167 -45 39.5s-39.666 18.833 -66.999 25.5
s-58 10 -92 10h-256c-19.333 0 -33.833 -0.166992 -43.5 -0.5s-22.5 -1.16602 -38.5 -2.49902s-28.167 -3.83301 -36.5 -7.5s-17.166 -8.5 -26.499 -14.5s-16 -14 -20 -24s-6 -22 -6 -36v-1366z" />
    <glyph glyph-name="E" unicode="E" 
d="M85 0l-0.000976562 1621h1110v-85h-683c-19.333 0 -33.833 -0.166992 -43.5 -0.5s-22.5 -1.16602 -38.5 -2.49902s-28.167 -3.83301 -36.5 -7.5s-17.166 -8.5 -26.499 -14.5s-16 -14 -20 -24s-6 -22 -6 -36v-427h598v-85h-598v-854h854v-85h-1110z" />
    <glyph glyph-name="F" unicode="F" 
d="M85 0l-0.000976562 1621h1110v-85h-683c-19.333 0 -33.833 -0.166992 -43.5 -0.5s-22.5 -1.16602 -38.5 -2.49902s-28.167 -3.83301 -36.5 -7.5s-17.166 -8.5 -26.499 -14.5s-16 -14 -20 -24s-6 -22 -6 -36v-427h598v-85h-598v-939h-256z" />
    <glyph glyph-name="G" unicode="G" horiz-adv-x="1450" 
d="M85 307v1007c0 94.667 39.167 169.5 117.5 224.5s181.5 82.5 309.5 82.5h725v-85h-640c-34 0 -64.667 -3.33301 -92 -10s-49.666 -15.167 -66.999 -25.5s-32.333 -23.5 -45 -39.5s-22.334 -31.167 -29.001 -45.5s-11.834 -31.5 -15.501 -51.5
s-5.83398 -36.667 -6.50098 -50s-1 -29 -1 -47v-913c0 -18 0.333008 -33.667 1 -47s2.83398 -30 6.50098 -50s8.83398 -37.167 15.501 -51.5s16.334 -29.5 29.001 -45.5s27.667 -29.167 45 -39.5s39.666 -18.833 66.999 -25.5s58 -10 92 -10h427v854h-326v85h582v-1024h-768
c-128 0 -231.167 27.5 -309.5 82.5s-117.5 129.833 -117.5 224.5z" />
    <glyph glyph-name="H" unicode="H" horiz-adv-x="1450" 
d="M85 0v1621h256v-597h683v597h256v-1621h-256v939h-683v-939h-256z" />
    <glyph glyph-name="I" unicode="I" horiz-adv-x="512" 
d="M85 0v1621h256v-1621h-256z" />
    <glyph glyph-name="J" unicode="J" horiz-adv-x="1024" 
d="M85 0l-0.000976562 85h256c47.333 0 87.833 6.5 121.5 19.5s59 28.167 76 45.5s30.167 39.833 39.5 67.5s14.833 50.667 16.5 69s2.5 40.833 2.5 67.5v1267h256v-1314c0 -94.667 -39.167 -169.5 -117.5 -224.5s-181.166 -82.5 -308.499 -82.5h-342z" />
    <glyph glyph-name="K" unicode="K" horiz-adv-x="1450" 
d="M85 0v1621h256v-689c0 -43.333 11.667 -65 35 -65c14 0 28.333 8.33301 43 25l661 729h115l-529 -584c-32 -36 -48 -78.333 -48 -127c0 -33.333 9.66699 -63 29 -89l633 -821h-322l-492 636c-26.667 34 -54 51 -82 51c-8.66699 0 -23 -9.33301 -43 -28v-659h-256z" />
    <glyph glyph-name="L" unicode="L" 
d="M85 0v1621h256v-1536h854v-85h-1110z" />
    <glyph glyph-name="M" unicode="M" horiz-adv-x="2048" 
d="M85 0v1621h1366c127.333 0 230.166 -27.5 308.499 -82.5s117.5 -129.833 117.5 -224.5v-1314h-256v1267c0 26.667 -0.833008 49.167 -2.5 67.5s-7.16699 41.333 -16.5 69s-22.5 50.167 -39.5 67.5s-42.333 32.5 -76 45.5s-74.167 19.5 -121.5 19.5h-30
c-150.667 0 -226 -89.667 -226 -269v-1267h-256v1267c0 18 -0.333008 33.833 -1 47.5s-3 30.334 -7 50.001s-9.16699 36.834 -15.5 51.501s-16 30 -29 46s-28.167 29 -45.5 39s-39.5 18.333 -66.5 25s-57.5 10 -91.5 10h-30c-149.333 0 -224.666 -89.667 -225.999 -269
v-1267h-256z" />
    <glyph glyph-name="N" unicode="N" horiz-adv-x="1450" 
d="M85 0l0.000976562 1621h768c128 0 231.167 -27.5 309.5 -82.5s117.5 -129.833 117.5 -224.5v-1314h-256v1267c0 18 -0.333008 33.667 -1 47s-2.83398 30 -6.50098 50s-8.83398 37.167 -15.501 51.5s-16.334 29.5 -29.001 45.5s-27.667 29.167 -45 39.5
s-39.666 18.833 -66.999 25.5s-58 10 -92 10h-256c-19.333 0 -33.833 -0.166992 -43.5 -0.5s-22.5 -1.16602 -38.5 -2.49902s-28.167 -3.83301 -36.5 -7.5s-17.166 -8.5 -26.499 -14.5s-16 -14 -20 -24s-6 -22 -6 -36v-1451h-256z" />
    <glyph glyph-name="O" unicode="O" horiz-adv-x="1450" 
d="M85 307v1007c0 94.667 39.167 169.5 117.5 224.5s181.5 82.5 309.5 82.5h341c128 0 231.167 -27.5 309.5 -82.5s117.5 -129.833 117.5 -224.5v-1007c0 -94.667 -39.167 -169.5 -117.5 -224.5s-181.5 -82.5 -309.5 -82.5h-341c-128 0 -231.167 27.5 -309.5 82.5
s-117.5 129.833 -117.5 224.5zM341 354c0 -18 0.333008 -33.667 1 -47s2.83398 -30 6.50098 -50s8.83398 -37.167 15.501 -51.5s16.334 -29.5 29.001 -45.5s27.667 -29.167 45 -39.5s39.666 -18.833 66.999 -25.5s58 -10 92 -10h171c34 0 64.667 3.33301 92 10
s49.666 15.167 66.999 25.5s32.333 23.5 45 39.5s22.334 31.167 29.001 45.5s11.834 31.5 15.501 51.5s5.83398 36.667 6.50098 50s1 29 1 47v913c0 18 -0.333008 33.667 -1 47s-2.83398 30 -6.50098 50s-8.83398 37.167 -15.501 51.5s-16.334 29.5 -29.001 45.5
s-27.667 29.167 -45 39.5s-39.666 18.833 -66.999 25.5s-58 10 -92 10h-171c-34 0 -64.667 -3.33301 -92 -10s-49.666 -15.167 -66.999 -25.5s-32.333 -23.5 -45 -39.5s-22.334 -31.167 -29.001 -45.5s-11.834 -31.5 -15.501 -51.5s-5.83398 -36.667 -6.50098 -50
s-1 -29 -1 -47v-913z" />
    <glyph glyph-name="P" unicode="P" horiz-adv-x="1450" 
d="M85 0v1621h768c128 0 231.167 -27.5 309.5 -82.5s117.5 -129.833 117.5 -224.5v-495c0 -94.667 -39.167 -169.5 -117.5 -224.5s-181.5 -82.5 -309.5 -82.5h-512v-512h-256zM341 597l426.999 -0.000976562c34 0 64.667 3.33301 92 10s49.666 15.167 66.999 25.5
s32.333 23.5 45 39.5s22.334 31.167 29.001 45.5s11.834 31.5 15.501 51.5s5.83398 36.667 6.50098 50s1 29 1 47v401c0 18 -0.333008 33.667 -1 47s-2.83398 30 -6.50098 50s-8.83398 37.167 -15.501 51.5s-16.334 29.5 -29.001 45.5s-27.667 29.167 -45 39.5
s-39.666 18.833 -66.999 25.5s-58 10 -92 10h-256c-19.333 0 -33.833 -0.166992 -43.5 -0.5s-22.5 -1.16602 -38.5 -2.49902s-28.167 -3.83301 -36.5 -7.5s-17.166 -8.5 -26.499 -14.5s-16 -14 -20 -24s-6 -22 -6 -36v-854z" />
    <glyph glyph-name="Q" unicode="Q" horiz-adv-x="1450" 
d="M85 307l-0.000976562 1007c0 94.667 39.167 169.5 117.5 224.5s181.5 82.5 309.5 82.5h341c128 0 231.167 -27.5 309.5 -82.5s117.5 -129.833 117.5 -224.5v-1007c0 -94.667 -39.167 -169.5 -117.5 -224.5s-181.5 -82.5 -309.5 -82.5h-72
c6.66699 -22.667 15.334 -44 26.001 -64s25.167 -40.333 43.5 -61s42.333 -37 72 -49s63.5 -18 101.5 -18h171v-85h-256c-120.667 0 -219.667 24.667 -297 74s-120.333 117 -129 203c-131.333 0 -235.5 28 -312.5 84s-115.5 130.333 -115.5 223zM340.999 354
c0 -18 0.333008 -33.667 1 -47s2.83398 -30 6.50098 -50s8.83398 -37.167 15.501 -51.5s16.334 -29.5 29.001 -45.5s27.667 -29.167 45 -39.5s39.666 -18.833 66.999 -25.5s58 -10 92 -10h171c34 0 64.667 3.33301 92 10s49.666 15.167 66.999 25.5s32.333 23.5 45 39.5
s22.334 31.167 29.001 45.5s11.834 31.5 15.501 51.5s5.83398 36.667 6.50098 50s1 29 1 47v913c0 18 -0.333008 33.667 -1 47s-2.83398 30 -6.50098 50s-8.83398 37.167 -15.501 51.5s-16.334 29.5 -29.001 45.5s-27.667 29.167 -45 39.5s-39.666 18.833 -66.999 25.5
s-58 10 -92 10h-171c-34 0 -64.667 -3.33301 -92 -10s-49.666 -15.167 -66.999 -25.5s-32.333 -23.5 -45 -39.5s-22.334 -31.167 -29.001 -45.5s-11.834 -31.5 -15.501 -51.5s-5.83398 -36.667 -6.50098 -50s-1 -29 -1 -47v-913z" />
    <glyph glyph-name="R" unicode="R" horiz-adv-x="1450" 
d="M85 0l0.000976562 1621h726c127.333 0 230.166 -27.5 308.499 -82.5s117.5 -129.833 117.5 -224.5v-25c0 -50.667 -8.66699 -94.834 -26 -132.501s-39.166 -66.334 -65.499 -86.001s-55 -36 -86 -49s-59.667 -21.167 -86 -24.5s-49 -6.33301 -68 -9s-29.167 -5 -30.5 -7
c118.667 0 215.834 -27.667 291.501 -83s113.5 -130 113.5 -224v-674h-256v670c0 18 -0.333008 33.667 -1 47s-2.83398 30 -6.50098 50s-8.83398 37.167 -15.501 51.5s-16.334 29.5 -29.001 45.5s-27.667 29.167 -45 39.5s-39.666 18.833 -66.999 25.5s-58 10 -92 10h-427
v-939h-256zM341.001 1024l383.997 -0.00195312c34 0 64.667 3.5 92 10.5s49.833 15.833 67.5 26.5s32.834 24.334 45.501 41.001s22.167 32.5 28.5 47.5s11.333 32.833 15 53.5s5.83398 37.667 6.50098 51s1 29 1 47c0 20 -1 38 -3 54s-7.83301 36 -17.5 60
s-23 44.167 -40 60.5s-42.333 30.5 -76 42.5s-73.5 18 -119.5 18h-213c-19.333 0 -33.833 -0.166992 -43.5 -0.5s-22.5 -1.16602 -38.5 -2.49902s-28.167 -3.83301 -36.5 -7.5s-17.166 -8.5 -26.499 -14.5s-16 -14 -20 -24s-6 -22 -6 -36v-427z" />
    <glyph glyph-name="S" unicode="S" horiz-adv-x="1450" 
d="M85 1203v111c0 94.667 39.167 169.5 117.5 224.5s181.5 82.5 309.5 82.5h683v-85h-598c-34 0 -64.667 -3.33301 -92 -10s-49.666 -15.167 -66.999 -25.5s-32.333 -23.5 -45 -39.5s-22.334 -31.167 -29.001 -45.5s-11.834 -31.5 -15.501 -51.5
s-5.83398 -36.667 -6.50098 -50s-1 -29 -1 -47v-17c0 -18 0.333008 -33.667 1 -47s2.83398 -30 6.50098 -50s8.83398 -37.167 15.501 -51.5s16.334 -29.5 29.001 -45.5s27.667 -29.167 45 -39.5s39.666 -18.833 66.999 -25.5s58 -10 92 -10h256
c128 0 231.167 -27.5 309.5 -82.5s117.5 -129.833 117.5 -224.5v-367c0 -94.667 -39.167 -169.5 -117.5 -224.5s-181.5 -82.5 -309.5 -82.5h-682v85h597c34 0 64.667 3.33301 92 10s49.666 15.167 66.999 25.5s32.333 23.5 45 39.5s22.334 31.167 29.001 45.5
s11.834 31.5 15.501 51.5s5.83398 36.667 6.50098 50s1 29 1 47v273c0 18 -0.333008 33.667 -1 47s-2.83398 30 -6.50098 50s-8.83398 37.167 -15.501 51.5s-16.334 29.5 -29.001 45.5s-27.667 29.167 -45 39.5s-39.666 18.833 -66.999 25.5s-58 10 -92 10h-256
c-128 0 -231.167 27.5 -309.5 82.5s-117.5 129.833 -117.5 224.5z" />
    <glyph glyph-name="T" unicode="T" 
d="M85 1536v85h1110v-85h-427v-1536h-256v1536h-427z" />
    <glyph glyph-name="U" unicode="U" horiz-adv-x="1450" 
d="M85 307l-0.000976562 1314h256v-1267c0 -18 0.333008 -33.667 1 -47s2.83398 -30 6.50098 -50s8.83398 -37.167 15.501 -51.5s16.334 -29.5 29.001 -45.5s27.667 -29.167 45 -39.5s39.666 -18.833 66.999 -25.5s58 -10 92 -10h256c19.333 0 33.833 0.166992 43.5 0.5
s22.5 1.16602 38.5 2.49902s28.167 3.83301 36.5 7.5s17.166 8.66699 26.499 15s16 14.5 20 24.5s6 22 6 36v1450h256v-1621h-768c-128 0 -231.167 27.5 -309.5 82.5s-117.5 129.833 -117.5 224.5z" />
    <glyph glyph-name="V" unicode="V" horiz-adv-x="1450" 
d="M80 1621h267l381 -1318c10 -34.667 24.333 -52 43 -52c18 0 32.333 18 43 54l379 1316h88l-466 -1621h-266z" />
    <glyph glyph-name="W" unicode="W" horiz-adv-x="2048" 
d="M85 307l-0.00195312 1314h256v-1267c0 -18 0.333008 -33.667 1 -47s2.83398 -30 6.50098 -50s8.83398 -37.167 15.501 -51.5s16.334 -29.5 29.001 -45.5s27.667 -29.167 45 -39.5s39.666 -18.833 66.999 -25.5s58 -10 92 -10h86c19.333 0 33.833 0.166992 43.5 0.5
s22.334 1.16602 38.001 2.49902s27.667 3.83301 36 7.5s17.166 8.66699 26.499 15s16 14.5 20 24.5s6 22 6 36v1450h256v-1450c0 -14 2 -26 6 -36s10.667 -18.167 20 -24.5s18.166 -11.333 26.499 -15s20.5 -6.16699 36.5 -7.5s28.833 -2.16602 38.5 -2.49902
s24.167 -0.5 43.5 -0.5h85c47.333 0 87.833 6.5 121.5 19.5s59 28.167 76 45.5s30.167 39.833 39.5 67.5s14.833 50.667 16.5 69s2.5 40.833 2.5 67.5v1267h256v-1314c0 -94.667 -39.167 -169.5 -117.5 -224.5s-181.166 -82.5 -308.499 -82.5h-342h-256h-341
c-128 0 -231.167 27.5 -309.5 82.5s-117.5 129.833 -117.5 224.5z" />
    <glyph glyph-name="X" unicode="X" horiz-adv-x="1450" 
d="M85 0l371 550.001c44 65.333 66 126 66 182c0 69.333 -37 171 -111 305l-326 584h293l250 -450c35.333 -62.667 74.333 -94 117 -94c44 0 87.667 32 131 96l302 448h102l-340 -495c-50 -72.667 -75 -154.334 -75 -245.001c0 -91.333 24.333 -180.333 73 -267l342 -614
h-292l-275 493c-24 44.667 -57.667 67 -101 67c-40.667 0 -74.667 -20.333 -102 -61l-343 -499h-82z" />
    <glyph glyph-name="Y" unicode="Y" horiz-adv-x="1450" 
d="M85 1621h293l250 -450c35.333 -62.667 74.333 -94 117 -94c44 0 87.667 32 131 96l302 448h102l-469 -683v-938h-256v778l-144 259z" />
    <glyph glyph-name="Z" unicode="Z" 
d="M85 0l693 1371c21.333 41.333 32 75.333 32 102c0 42 -40.333 63 -121 63h-561v85h1067l-696 -1369c-24.667 -49.333 -37 -84 -37 -104c0 -42 42.333 -63 127 -63h606v-85h-1110z" />
    <glyph glyph-name="bracketleft" unicode="[" horiz-adv-x="682" 
d="M85 -341v2048h427v-86h-171v-1877h171v-85h-427z" />
    <glyph glyph-name="backslash" unicode="\" horiz-adv-x="1280" 
d="M85 1621h214l810 -1621h-213z" />
    <glyph glyph-name="bracketright" unicode="]" horiz-adv-x="682" 
d="M85 -256h171v1877h-171v86h427v-2048h-427v85z" />
    <glyph glyph-name="asciicircum" unicode="^" horiz-adv-x="896" 
d="M117 1427l331 331l331 -331l-60 -62l-90 92c-64 64 -124.333 96 -181 96c-58 0 -118.333 -32 -181 -96l-90 -92z" />
    <glyph glyph-name="underscore" unicode="_" 
d="M85 -341h1110v-86h-1110v86z" />
    <glyph glyph-name="grave" unicode="`" 
d="M446 1515l-0.000976562 63.998c0 10.667 0.833008 18.334 2.5 23.001s7.33398 9 17.001 13s24.5 6 44.5 6h128c15.333 0 27.666 -1 36.999 -3s15.833 -5.5 19.5 -10.5s5.83398 -9.16699 6.50098 -12.5s1 -8.66602 1 -15.999v-22c0 -16.667 -3.5 -27.834 -10.5 -33.501
s-24.833 -8.5 -53.5 -8.5c-24 0 -36 -7.33301 -36 -22c0 -9.33301 5.66699 -19.666 17 -30.999l106 -80l-47 -72l-204 149c-18 14 -27.333 32.667 -28 56z" />
    <glyph glyph-name="a" unicode="a" 
d="M85 307l0.00195312 154.001c0 94.667 39.167 169.5 117.5 224.5s181.5 82.5 309.5 82.5h427v73c0 18 -0.333008 33.5 -1 46.5s-2.83398 29.5 -6.50098 49.5s-8.83398 37.167 -15.501 51.5s-16.334 29.666 -29.001 45.999s-27.667 29.5 -45 39.5
s-39.666 18.333 -66.999 25s-58 10 -92 10h-427v86h512c128 0 231.167 -27.5 309.5 -82.5s117.5 -130.167 117.5 -225.5v-887h-683c-128 0 -231.167 27.5 -309.5 82.5s-117.5 129.833 -117.5 224.5zM341.002 354.001c0 -18 0.333008 -33.667 1 -47s2.83398 -30 6.50098 -50
s8.83398 -37.167 15.501 -51.5s16.334 -29.5 29.001 -45.5s27.667 -29.167 45 -39.5s39.666 -18.833 66.999 -25.5s58 -10 92 -10h342v598h-342c-34 0 -64.667 -3.33301 -92 -10s-49.666 -15.167 -66.999 -25.5s-32.333 -23.5 -45 -39.5s-22.334 -31.167 -29.001 -45.5
s-11.834 -31.5 -15.501 -51.5s-5.83398 -36.667 -6.50098 -50s-1 -29 -1 -47v-60z" />
    <glyph glyph-name="b" unicode="b" 
d="M85 307v1314h256v-426h171h256c128 0 231.167 -27.5 309.5 -82.5s117.5 -130.167 117.5 -225.5v-580c0 -94.667 -39.167 -169.5 -117.5 -224.5s-181.5 -82.5 -309.5 -82.5h-256c-128 0 -231.167 27.5 -309.5 82.5s-117.5 129.833 -117.5 224.5zM341 354
c0 -18 0.331055 -33.666 0.998047 -46.999s2.83398 -30 6.50098 -50s8.83398 -37.167 15.501 -51.5s16.334 -29.5 29.001 -45.5s27.667 -29.167 45 -39.5s39.666 -18.833 66.999 -25.5s58 -10 92 -10h86c34 0 64.667 3.33301 92 10s49.666 15.167 66.999 25.5
s32.333 23.5 45 39.5s22.334 31.167 29.001 45.5s11.834 31.5 15.501 51.5s5.83398 36.667 6.50098 50s1 29 1 47v487c0 18 -0.333008 33.5 -1 46.5s-2.83398 29.5 -6.50098 49.5s-8.83398 37.167 -15.501 51.5s-16.334 29.666 -29.001 45.999s-27.667 29.5 -45 39.5
s-39.666 18.333 -66.999 25s-58 10 -92 10h-342v-755z" />
    <glyph glyph-name="c" unicode="c" horiz-adv-x="1280" 
d="M85 307v579.999c0 95.333 39.167 170.5 117.5 225.5s181.5 82.5 309.5 82.5h597v-86h-512c-34 0 -64.667 -3.33301 -92 -10s-49.666 -15 -66.999 -25s-32.333 -23.167 -45 -39.5s-22.334 -31.666 -29.001 -45.999s-11.834 -31.5 -15.501 -51.5
s-5.83398 -36.5 -6.50098 -49.5s-1 -28.5 -1 -46.5v-487c0 -18 0.333008 -33.667 1 -47s2.83398 -30 6.50098 -50s8.83398 -37.167 15.501 -51.5s16.334 -29.5 29.001 -45.5s27.667 -29.167 45 -39.5s39.666 -18.833 66.999 -25.5s58 -10 92 -10h512v-85h-597
c-128 0 -231.167 27.5 -309.5 82.5s-117.5 129.833 -117.5 224.5z" />
    <glyph glyph-name="d" unicode="d" 
d="M85 307v580c0 95.333 39.167 170.5 117.5 225.5s181.5 82.5 309.5 82.5h427v426h256v-1621h-683c-128 0 -231.167 27.5 -309.5 82.5s-117.5 129.833 -117.5 224.5zM341 354c0 -18 0.331055 -33.668 0.998047 -47.001s2.83398 -30 6.50098 -50
s8.83398 -37.167 15.501 -51.5s16.334 -29.5 29.001 -45.5s27.667 -29.167 45 -39.5s39.666 -18.833 66.999 -25.5s58 -10 92 -10h86c34 0 64.667 3.33301 92 10s49.666 15.167 66.999 25.5s32.333 23.5 45 39.5s22.334 31.167 29.001 45.5s11.834 31.5 15.501 51.5
s5.83398 36.667 6.50098 50s1 29 1 47v755h-342c-34 0 -64.667 -3.33301 -92 -10s-49.666 -15 -66.999 -25s-32.333 -23.167 -45 -39.5s-22.334 -31.666 -29.001 -45.999s-11.834 -31.5 -15.501 -51.5s-5.83398 -36.5 -6.50098 -49.5s-1 -28.5 -1 -46.5v-487z" />
    <glyph glyph-name="e" unicode="e" 
d="M85 307l-0.00195312 580c0 95.333 39.167 170.5 117.5 225.5s181.5 82.5 309.5 82.5h256c128 0 231.167 -27.5 309.5 -82.5s117.5 -130.167 117.5 -225.5v-247h-854v-286c0 -18 0.333008 -33.667 1 -47s2.83398 -30 6.50098 -50s8.83398 -37.167 15.501 -51.5
s16.334 -29.5 29.001 -45.5s27.667 -29.167 45 -39.5s39.666 -18.833 66.999 -25.5s58 -10 92 -10h555v-85h-640c-128 0 -231.167 27.5 -309.5 82.5s-117.5 129.833 -117.5 224.5zM340.998 725h598.004v116c0 18 -0.333008 33.5 -1 46.5s-2.83398 29.5 -6.50098 49.5
s-8.83398 37.167 -15.501 51.5s-16.334 29.666 -29.001 45.999s-27.667 29.5 -45 39.5s-39.666 18.333 -66.999 25s-58 10 -92 10h-86c-34 0 -64.667 -3.33301 -92 -10s-49.666 -15 -66.999 -25s-32.333 -23.167 -45 -39.5s-22.334 -31.666 -29.001 -45.999
s-11.834 -31.5 -15.501 -51.5s-5.83398 -36.5 -6.50098 -49.5s-1 -28.5 -1 -46.5v-116z" />
    <glyph glyph-name="f" unicode="f" horiz-adv-x="938" 
d="M0 1109l0.00195312 86h85v119c0 94.667 39.167 169.5 117.5 224.5s181.5 82.5 309.5 82.5h256v-85h-171c-34 0 -64.667 -3.33301 -92 -10s-49.666 -15.167 -66.999 -25.5s-32.333 -23.5 -45 -39.5s-22.334 -31.167 -29.001 -45.5s-11.834 -31.5 -15.501 -51.5
s-5.83398 -36.667 -6.50098 -50s-1 -29 -1 -47v-72h256v-86h-256v-1536h-256v1536h-85z" />
    <glyph glyph-name="g" unicode="g" 
d="M85 307l-0.00195312 580.001c0 95.333 39.167 170.5 117.5 225.5s181.5 82.5 309.5 82.5h256c128 0 231.167 -27.5 309.5 -82.5s117.5 -130.167 117.5 -225.5v-1006c0 -95.333 -39.167 -170.5 -117.5 -225.5s-181.5 -82.5 -309.5 -82.5h-597v86h512
c34 0 64.667 3.33301 92 10s49.666 15 66.999 25s32.333 23.167 45 39.5s22.334 31.666 29.001 45.999s11.834 31.5 15.501 51.5s5.83398 36.5 6.50098 49.5s1 28.5 1 46.5v73h-427c-128 0 -231.167 27.5 -309.5 82.5s-117.5 129.833 -117.5 224.5zM340.998 354.001
c0 -18 0.333008 -33.667 1 -47s2.83398 -30 6.50098 -50s8.83398 -37.167 15.501 -51.5s16.334 -29.5 29.001 -45.5s27.667 -29.167 45 -39.5s39.666 -18.833 66.999 -25.5s58 -10 92 -10h86c34 0 64.667 3.33301 92 10s49.666 15.167 66.999 25.5s32.333 23.5 45 39.5
s22.334 31.167 29.001 45.5s11.834 31.5 15.501 51.5s5.83398 36.667 6.50098 50s1 29 1 47v487c0 18 -0.333008 33.5 -1 46.5s-2.83398 29.5 -6.50098 49.5s-8.83398 37.167 -15.501 51.5s-16.334 29.666 -29.001 45.999s-27.667 29.5 -45 39.5s-39.666 18.333 -66.999 25
s-58 10 -92 10h-86c-34 0 -64.667 -3.33301 -92 -10s-49.666 -15 -66.999 -25s-32.333 -23.167 -45 -39.5s-22.334 -31.666 -29.001 -45.999s-11.834 -31.5 -15.501 -51.5s-5.83398 -36.5 -6.50098 -49.5s-1 -28.5 -1 -46.5v-487z" />
    <glyph glyph-name="h" unicode="h" 
d="M85 0l0.00195312 1621h256v-426h171h256c128 0 231.167 -27.5 309.5 -82.5s117.5 -130.167 117.5 -225.5v-887h-256v841c0 18 -0.333008 33.5 -1 46.5s-2.83398 29.5 -6.50098 49.5s-8.83398 37.167 -15.501 51.5s-16.334 29.666 -29.001 45.999s-27.667 29.5 -45 39.5
s-39.666 18.333 -66.999 25s-58 10 -92 10h-342v-1109h-256z" />
    <glyph glyph-name="i" unicode="i" horiz-adv-x="853" 
d="M85 307l-0.00195312 888h256v-841c0 -18 0.333008 -33.667 1 -47s2.83398 -30 6.50098 -50s8.83398 -37.167 15.501 -51.5s16.334 -29.5 29.001 -45.5s27.667 -29.167 45 -39.5s39.666 -18.833 66.999 -25.5s58 -10 92 -10h86v-85h-171c-128 0 -231.167 27.5 -309.5 82.5
s-117.5 129.833 -117.5 224.5zM84.998 1493v85.999c0.666992 10 1.66699 17.167 3 21.5s6.83301 8.83301 16.5 13.5s24.5 7 44.5 7h128c20 0 34.833 -2 44.5 -6s15.167 -8.16699 16.5 -12.5s2.33301 -12.166 3 -23.499v-86c0 -16.667 -3.33301 -27.834 -10 -33.501
s-24.667 -8.5 -54 -8.5h-128c-28 0 -45.667 2.83301 -53 8.5s-11 16.834 -11 33.501z" />
    <glyph glyph-name="j" unicode="j" horiz-adv-x="682" 
d="M-85 -341l84.998 0.000976562c34 0 64.667 3.33301 92 10s49.666 15 66.999 25s32.333 23.167 45 39.5s22.334 31.666 29.001 45.999s11.834 31.5 15.501 51.5s5.83398 36.5 6.50098 49.5s1 28.5 1 46.5v1268h256v-1314c0 -95.333 -39.167 -170.5 -117.5 -225.5
s-181.5 -82.5 -309.5 -82.5h-170v86zM255.998 1493v85.999c0.666992 10 1.66699 17.167 3 21.5s6.83301 8.83301 16.5 13.5s24.5 7 44.5 7h128c20 0 34.833 -2 44.5 -6s15.167 -8.16699 16.5 -12.5s2.33301 -12.166 3 -23.499v-86c0 -16.667 -3.33301 -27.834 -10 -33.501
s-24.667 -8.5 -54 -8.5h-128c-28.667 0 -46.5 2.83301 -53.5 8.5s-10.5 16.834 -10.5 33.501z" />
    <glyph glyph-name="k" unicode="k" horiz-adv-x="1408" 
d="M85 0l-0.000976562 1621h256v-849c0 -29.333 7.33301 -53.666 22 -72.999s30.334 -29 47.001 -29c23.333 0 50.333 13.333 81 40l512 485h123l-309 -295c-41.333 -39.333 -62 -86.333 -62 -141c0 -58.667 25 -118.334 75 -179.001l493 -580h-331l-361 427
c-58 68 -111.333 102 -160 102c-18 0 -39.333 -6.66699 -64 -20s-46.667 -30 -66 -50v-459h-256z" />
    <glyph glyph-name="l" unicode="l" horiz-adv-x="853" 
d="M85 307l-0.00195312 1314h256v-1267c0 -18 0.333008 -33.667 1 -47s2.83398 -30 6.50098 -50s8.83398 -37.167 15.501 -51.5s16.334 -29.5 29.001 -45.5s27.667 -29.167 45 -39.5s39.666 -18.833 66.999 -25.5s58 -10 92 -10h86v-85h-171
c-128 0 -231.167 27.5 -309.5 82.5s-117.5 129.833 -117.5 224.5z" />
    <glyph glyph-name="m" unicode="m" horiz-adv-x="2048" 
d="M85 0l0.000976562 1195h1366c127.333 0 230.166 -27.5 308.499 -82.5s117.5 -130.167 117.5 -225.5v-887h-256v841c0 18 -0.333008 33.5 -1 46.5s-2.83398 29.667 -6.50098 50s-8.66699 37.5 -15 51.5s-15.833 29.167 -28.5 45.5s-27.834 29.5 -45.501 39.5
s-40.167 18.333 -67.5 25s-58 10 -92 10h-85c-19.333 0 -33.833 -0.166992 -43.5 -0.5s-22.5 -1.16602 -38.5 -2.49902s-28.167 -3.83301 -36.5 -7.5s-17.166 -8.5 -26.499 -14.5s-16 -14 -20 -24s-6 -22 -6 -36v-1024h-256v1024c0 14 -2 26 -6 36s-10.667 18 -20 24
s-18.166 10.833 -26.499 14.5s-20.333 6.16699 -36 7.5s-28.334 2.16602 -38.001 2.49902s-24.167 0.5 -43.5 0.5h-171c-19.333 0 -33.833 -0.166992 -43.5 -0.5s-22.5 -1.16602 -38.5 -2.49902s-28.167 -3.83301 -36.5 -7.5s-17.166 -8.5 -26.499 -14.5s-16 -14 -20 -24
s-6 -22 -6 -36v-1024h-256z" />
    <glyph glyph-name="n" unicode="n" 
d="M85 0l0.000976562 1195h683c128 0 231.167 -27.5 309.5 -82.5s117.5 -130.167 117.5 -225.5v-887h-256v841c0 18 -0.333008 33.5 -1 46.5s-2.83398 29.5 -6.50098 49.5s-8.83398 37.167 -15.501 51.5s-16.334 29.666 -29.001 45.999s-27.667 29.5 -45 39.5
s-39.666 18.333 -66.999 25s-58 10 -92 10h-171c-19.333 0 -33.833 -0.166992 -43.5 -0.5s-22.5 -1.16602 -38.5 -2.49902s-28.167 -3.83301 -36.5 -7.5s-17.166 -8.5 -26.499 -14.5s-16 -14 -20 -24s-6 -22 -6 -36v-1024h-256z" />
    <glyph glyph-name="o" unicode="o" 
d="M85 307v580c0 95.333 39.167 170.5 117.5 225.5s181.5 82.5 309.5 82.5h256c128 0 231.167 -27.5 309.5 -82.5s117.5 -130.167 117.5 -225.5v-580c0 -94.667 -39.167 -169.5 -117.5 -224.5s-181.5 -82.5 -309.5 -82.5h-256c-128 0 -231.167 27.5 -309.5 82.5
s-117.5 129.833 -117.5 224.5zM341 354c0 -18 0.333008 -33.667 1 -47s2.83398 -30 6.50098 -50s8.83398 -37.167 15.501 -51.5s16.334 -29.5 29.001 -45.5s27.667 -29.167 45 -39.5s39.666 -18.833 66.999 -25.5s58 -10 92 -10h86c34 0 64.667 3.33301 92 10
s49.666 15.167 66.999 25.5s32.333 23.5 45 39.5s22.334 31.167 29.001 45.5s11.834 31.5 15.501 51.5s5.83398 36.667 6.50098 50s1 29 1 47v487c0 18 -0.333008 33.5 -1 46.5s-2.83398 29.5 -6.50098 49.5s-8.83398 37.167 -15.501 51.5s-16.334 29.666 -29.001 45.999
s-27.667 29.5 -45 39.5s-39.666 18.333 -66.999 25s-58 10 -92 10h-86c-34 0 -64.667 -3.33301 -92 -10s-49.666 -15 -66.999 -25s-32.333 -23.167 -45 -39.5s-22.334 -31.666 -29.001 -45.999s-11.834 -31.5 -15.501 -51.5s-5.83398 -36.5 -6.50098 -49.5
s-1 -28.5 -1 -46.5v-487z" />
    <glyph glyph-name="p" unicode="p" 
d="M85 -427v1622h683c128 0 231.167 -27.5 309.5 -82.5s117.5 -130.167 117.5 -225.5v-580c0 -94.667 -39.167 -169.5 -117.5 -224.5s-181.5 -82.5 -309.5 -82.5h-427v-427h-256zM341 85h341.999c34 0 64.667 3.33301 92 10s49.666 15.167 66.999 25.5s32.333 23.5 45 39.5
s22.334 31.167 29.001 45.5s11.834 31.5 15.501 51.5s5.83398 36.667 6.50098 50s1 29 1 47v487c0 18 -0.333008 33.5 -1 46.5s-2.83398 29.5 -6.50098 49.5s-8.83398 37.167 -15.501 51.5s-16.334 29.666 -29.001 45.999s-27.667 29.5 -45 39.5s-39.666 18.333 -66.999 25
s-58 10 -92 10h-171c-19.333 0 -33.833 -0.166992 -43.5 -0.5s-22.5 -1.16602 -38.5 -2.49902s-28.167 -3.83301 -36.5 -7.5s-17.166 -8.5 -26.499 -14.5s-16 -14 -20 -24s-6 -22 -6 -36v-939z" />
    <glyph glyph-name="q" unicode="q" 
d="M85 307v580c0 95.333 39.167 170.5 117.5 225.5s181.5 82.5 309.5 82.5h256c128 0 231.167 -27.5 309.5 -82.5s117.5 -130.167 117.5 -225.5v-1314h-256v427h-427c-128 0 -231.167 27.5 -309.5 82.5s-117.5 129.833 -117.5 224.5zM341 354c0 -18 0.333008 -33.667 1 -47
s2.83398 -30 6.50098 -50s8.83398 -37.167 15.501 -51.5s16.334 -29.5 29.001 -45.5s27.667 -29.167 45 -39.5s39.666 -18.833 66.999 -25.5s58 -10 92 -10h86c34 0 64.667 3.33301 92 10s49.666 15.167 66.999 25.5s32.333 23.5 45 39.5s22.334 31.167 29.001 45.5
s11.834 31.5 15.501 51.5s5.83398 36.667 6.50098 50s1 29 1 47v487c0 18 -0.333008 33.5 -1 46.5s-2.83398 29.5 -6.50098 49.5s-8.83398 37.167 -15.501 51.5s-16.334 29.666 -29.001 45.999s-27.667 29.5 -45 39.5s-39.666 18.333 -66.999 25s-58 10 -92 10h-86
c-34 0 -64.667 -3.33301 -92 -10s-49.666 -15 -66.999 -25s-32.333 -23.167 -45 -39.5s-22.334 -31.666 -29.001 -45.999s-11.834 -31.5 -15.501 -51.5s-5.83398 -36.5 -6.50098 -49.5s-1 -28.5 -1 -46.5v-487z" />
    <glyph glyph-name="r" unicode="r" horiz-adv-x="853" 
d="M85 0l0.00195312 1195h598v-86h-86c-34 0 -64.667 -3.33301 -92 -10s-49.666 -15 -66.999 -25s-32.333 -23.167 -45 -39.5s-22.334 -31.666 -29.001 -45.999s-11.834 -31.5 -15.501 -51.5s-5.83398 -36.5 -6.50098 -49.5s-1 -28.5 -1 -46.5v-841h-256z" />
    <glyph glyph-name="s" unicode="s" 
d="M85 883c0 95.333 39.3301 171.166 117.997 227.499s181.667 84.5 309 84.5h597v-86h-512c-34.667 0 -65.334 -2 -92.001 -6s-49 -9.16699 -67 -15.5s-33.167 -15 -45.5 -26s-21.833 -21.5 -28.5 -31.5s-11.834 -22.667 -15.501 -38s-5.83398 -28.666 -6.50098 -39.999
s-1 -25.666 -1 -42.999c0 -16 0.333008 -29.667 1 -41s2.83398 -25.333 6.50098 -42s8.83398 -31 15.501 -43s16.334 -24.667 29.001 -38s27.834 -24.166 45.501 -32.499s40 -15.333 67 -21s57.5 -8.5 91.5 -8.5h171c128 0 231.167 -27.5 309.5 -82.5
s117.5 -130.167 117.5 -225.5v-68c0 -94.667 -39.167 -169.5 -117.5 -224.5s-181.5 -82.5 -309.5 -82.5h-597v85h512c46.667 0 87 6.66699 121 20s59.333 28.666 76 45.999s29.834 39 39.501 65s15.334 47.167 17.001 63.5s2.5 34.166 2.5 53.499
c0 176 -85.333 264 -256 264h-171c-130.667 0 -234.5 24.333 -311.5 73s-115.5 119.667 -115.5 213z" />
    <glyph glyph-name="t" unicode="t" horiz-adv-x="938" 
d="M0 1109l-0.000976562 86h171v426h256v-426h341v-86h-341v-755c0 -26.667 0.833008 -49.167 2.5 -67.5s7.16699 -41.333 16.5 -69s22.5 -50.167 39.5 -67.5s42.333 -32.5 76 -45.5s74.167 -19.5 121.5 -19.5h85v-85h-171c-127.333 0 -230.166 27.5 -308.499 82.5
s-117.5 129.833 -117.5 224.5v802h-171z" />
    <glyph glyph-name="u" unicode="u" 
d="M85 307l-0.000976562 888.001h256v-841c0 -18 0.333008 -33.667 1 -47s2.83398 -30 6.50098 -50s8.83398 -37.167 15.501 -51.5s16.334 -29.5 29.001 -45.5s27.667 -29.167 45 -39.5s39.666 -18.833 66.999 -25.5s58 -10 92 -10h171c19.333 0 33.833 0.166992 43.5 0.5
s22.5 1.16602 38.5 2.49902s28.167 3.83301 36.5 7.5s17.166 8.66699 26.499 15s16 14.5 20 24.5s6 22 6 36v1024h256v-1195h-683c-128 0 -231.167 27.5 -309.5 82.5s-117.5 129.833 -117.5 224.5z" />
    <glyph glyph-name="v" unicode="v" 
d="M85 1195h271l315 -913c16 -46.667 33.667 -70 53 -70c18.667 0 36.667 23.333 54 70l325 913h92l-427 -1195h-271z" />
    <glyph glyph-name="w" unicode="w" horiz-adv-x="2048" 
d="M85 307l-0.00195312 888h256v-841c0 -18 0.333008 -33.667 1 -47s2.83398 -30 6.50098 -50s8.83398 -37.167 15.501 -51.5s16.334 -29.5 29.001 -45.5s27.667 -29.167 45 -39.5s39.666 -18.833 66.999 -25.5s58 -10 92 -10h86c19.333 0 33.833 0.166992 43.5 0.5
s22.334 1.16602 38.001 2.49902s27.667 3.83301 36 7.5s17.166 8.66699 26.499 15s16 14.5 20 24.5s6 22 6 36v1024h256v-1024c0 -14 2 -26 6 -36s10.667 -18.167 20 -24.5s18.166 -11.333 26.499 -15s20.5 -6.16699 36.5 -7.5s28.833 -2.16602 38.5 -2.49902
s24.167 -0.5 43.5 -0.5h85c47.333 0 87.833 6.5 121.5 19.5s59 28.167 76 45.5s30.167 39.833 39.5 67.5s14.833 50.667 16.5 69s2.5 40.833 2.5 67.5v841h256v-888c0 -94.667 -39.167 -169.5 -117.5 -224.5s-181.166 -82.5 -308.499 -82.5h-342h-256h-341
c-128 0 -231.167 27.5 -309.5 82.5s-117.5 129.833 -117.5 224.5z" />
    <glyph glyph-name="x" unicode="x" 
d="M85 0l306 364c59.333 71.333 89 132.333 89 183c0 48 -29 114.333 -87 199l-308 449h278l212 -305c26 -38 48.167 -65.5 66.5 -82.5s36.5 -25.5 54.5 -25.5c30 0 72.333 32.333 127 97l265 316h107l-308 -371c-34 -40 -58.333 -73.167 -73 -99.5s-22 -52.5 -22 -78.5
c0 -46 30.667 -112.667 92 -200l311 -446h-287l-215 311c-42 62 -78.667 93 -110 93c-18.667 0 -38 -8.5 -58 -25.5s-45.667 -44.167 -77 -81.5l-246 -297h-117z" />
    <glyph glyph-name="y" unicode="y" 
d="M85 307l-0.00390625 888.001h256v-841c0 -18 0.333008 -33.667 1 -47s2.83398 -30 6.50098 -50s8.83398 -37.167 15.501 -51.5s16.334 -29.5 29.001 -45.5s27.667 -29.167 45 -39.5s39.666 -18.833 66.999 -25.5s58 -10 92 -10h342v1110h256v-1314
c0 -95.333 -39.167 -170.5 -117.5 -225.5s-181.5 -82.5 -309.5 -82.5h-640v86h555c34 0 64.667 3.33301 92 10s49.666 15 66.999 25s32.333 23.167 45 39.5s22.334 31.666 29.001 45.999s11.834 31.5 15.501 51.5s5.83398 36.5 6.50098 49.5s1 28.5 1 46.5v73h-427
c-128 0 -231.167 27.5 -309.5 82.5s-117.5 129.833 -117.5 224.5z" />
    <glyph glyph-name="z" unicode="z" 
d="M85 0l679 943.001c30.667 42.667 46 77 46 103c0 42 -40.333 63 -121 63h-561v86h1067l-681 -943c-30.667 -42.667 -46 -77.334 -46 -104.001c0 -42 40.333 -63 121 -63h606v-85h-1110z" />
    <glyph glyph-name="braceleft" unicode="{" horiz-adv-x="810" 
d="M85 653l-0.000976562 63.999c8.66699 8.66699 25 22.834 49 42.501s43.667 36.5 59 50.5s29.666 32.833 42.999 56.5s20 47.834 20 72.501v484c0 30 9.16699 61.5 27.5 94.5s43.333 63.667 75 92s72.334 51.666 122.001 69.999s102.834 27.5 159.501 27.5v-107
c-37.333 0 -68 -17.5 -92 -52.5s-36 -80.167 -36 -135.5v-473c0 -24.667 -6.66699 -48.834 -20 -72.501s-27.333 -42.5 -42 -56.5s-34.167 -31 -58.5 -51s-40.5 -34 -48.5 -42v-64c8.66699 -8.66699 24.834 -23 48.501 -43s43 -37 58 -51s29.167 -32.833 42.5 -56.5
s20 -47.5 20 -71.5v-474c0 -56.667 11.333 -102.5 34 -137.5s54 -52.5 94 -52.5v-104c-56.667 0 -109.834 9.16699 -159.501 27.5s-90.334 41.666 -122.001 69.999s-56.667 58.833 -75 91.5s-27.5 64.334 -27.5 95.001v484c0 24 -6.66699 47.833 -20 71.5
s-27.666 42.667 -42.999 57s-35 31.333 -59 51s-40.333 33.834 -49 42.501z" />
    <glyph glyph-name="bar" unicode="|" horiz-adv-x="512" 
d="M85 -427v2048h256v-2048h-256z" />
    <glyph glyph-name="braceright" unicode="}" horiz-adv-x="810" 
d="M85 -233c40 0 71.333 17.498 94 52.498s34 80.833 34 137.5v474c0 24 6.66699 47.833 20 71.5s27.5 42.5 42.5 56.5s34.333 31 58 51s39.834 34.333 48.501 43v64c-8 8 -24.167 22 -48.5 42s-43.833 37 -58.5 51s-28.667 32.833 -42 56.5s-20 47.834 -20 72.501v473
c0 55.333 -11.833 100.5 -35.5 135.5s-54.5 52.5 -92.5 52.5v107c56.667 0 109.834 -9.16699 159.501 -27.5s90.334 -41.666 122.001 -69.999s56.667 -59 75 -92s27.5 -64.5 27.5 -94.5v-484c0 -24.667 6.83301 -48.834 20.5 -72.501s28.167 -42.5 43.5 -56.5
s34.833 -30.833 58.5 -50.5s39.834 -33.834 48.501 -42.501v-64c-8.66699 -9.33301 -24.834 -23.666 -48.501 -42.999s-43.334 -36.166 -59.001 -50.499s-30.167 -33.333 -43.5 -57s-20 -47.5 -20 -71.5v-484c0 -30.667 -9.16699 -62.334 -27.5 -95.001
s-43.333 -63.167 -75 -91.5s-72.334 -51.666 -122.001 -69.999s-102.834 -27.5 -159.501 -27.5v104z" />
    <glyph glyph-name="asciitilde" unicode="~" 
d="M87 899l182.999 166c35.333 31.333 77 47 125 47c71.333 0 143 -32.333 215 -97l119 -107c41.333 -36.667 81 -55 119 -55c38.667 0 80 20.333 124 61l103 92l118 -107l-124 -112c-35.333 -31.333 -77 -47 -125 -47c-71.333 0 -143 32.333 -215 97l-119 107
c-41.333 36.667 -81 55 -119 55c-37.333 0 -78.666 -20.333 -123.999 -61l-162 -146z" />
    <glyph glyph-name="uni0089" horiz-adv-x="1066" 
 />
    <glyph glyph-name="uni00A0" unicode="&#xa0;" horiz-adv-x="1066" 
 />
    <glyph glyph-name="exclamdown" unicode="&#xa1;" horiz-adv-x="554" 
d="M85 0v1109h256v-1109h-256zM85 1493v85.999c0.666992 10 1.66699 17.167 3 21.5s6.83301 8.83301 16.5 13.5s24.5 7 44.5 7h128c20 0 34.833 -2 44.5 -6s15.167 -8.16699 16.5 -12.5s2.33301 -12.166 3 -23.499v-86c0 -16.667 -3.33301 -27.834 -10 -33.501
s-24.667 -8.5 -54 -8.5h-128c-28 0 -45.667 2.83301 -53 8.5s-11 16.834 -11 33.501z" />
    <glyph glyph-name="cent" unicode="&#xa2;" horiz-adv-x="1280" 
d="M85 393v580c0 94.667 39.167 169.5 117.5 224.5s181.5 82.5 309.5 82.5h107v171h85v-171h405v-85h-405v-1024h405v-86h-405v-170h-85v170h-107c-128 0 -231.167 27.5 -309.5 82.5s-117.5 130.167 -117.5 225.5zM341 439c0 -18 0.333008 -33.501 1 -46.501
s2.83398 -29.5 6.50098 -49.5s8.83398 -37.167 15.501 -51.5s16.334 -29.666 29.001 -45.999s27.667 -29.5 45 -39.5s39.666 -18.333 66.999 -25s58 -10 92 -10h22v1024h-22c-34 0 -64.667 -3.33301 -92 -10s-49.666 -15.167 -66.999 -25.5s-32.333 -23.5 -45 -39.5
s-22.334 -31.167 -29.001 -45.5s-11.834 -31.5 -15.501 -51.5s-5.83398 -36.667 -6.50098 -50s-1 -29 -1 -47v-487z" />
    <glyph glyph-name="sterling" unicode="&#xa3;" 
d="M0 0v85h85c47.333 0 87.833 6.5 121.5 19.5s59 28.167 76 45.5s30.167 39.833 39.5 67.5s14.833 50.667 16.5 69s2.5 40.833 2.5 67.5v499h-256v86h256v375c0 94.667 39.167 169.5 117.5 224.5s181.5 82.5 309.5 82.5h427v-85h-342c-34 0 -64.667 -3.33301 -92 -10
s-49.666 -15.167 -66.999 -25.5s-32.333 -23.5 -45 -39.5s-22.334 -31.167 -29.001 -45.5s-11.834 -31.5 -15.501 -51.5s-5.83398 -36.667 -6.50098 -50s-1 -29 -1 -47v-328h427v-86h-427v-499c0 -18 0.333008 -33.667 1 -47s2.83398 -30 6.50098 -50
s8.83398 -37.167 15.501 -51.5s16.334 -29.5 29.001 -45.5s27.667 -29.167 45 -39.5s39.666 -18.833 66.999 -25.5s58 -10 92 -10h342v-85h-427h-597h-171z" />
    <glyph glyph-name="currency" unicode="&#xa4;" horiz-adv-x="853" 
d="M85 484l131 131c-14.667 23.333 -22 50 -22 80v54c0 32 8.33301 60 25 84l-134 133l60 60l143 -142c22 8 47 12 75 12h51c27.333 0 51.333 -3.33301 72 -10l141 140l60 -60l-126 -126c21.333 -24.667 32 -55 32 -91v-54c0 -32.667 -10 -61 -30 -85l124 -126l-60 -59
l-136 136c-26 -8.66699 -51.667 -13 -77 -13h-51c-29.333 0 -56 4.66699 -80 14l-138 -137zM277 719c0 -86.667 33.6689 -129.997 101.002 -129.997h21c22.667 0 41.334 4.16699 56.001 12.5s24.834 20.166 30.501 35.499s9.33398 28.666 11.001 39.999s2.5 25.333 2.5 42v8
c0 16 -0.833008 29.667 -2.5 41s-5.33398 24.5 -11.001 39.5s-15.834 26.667 -30.501 35s-33.334 12.5 -56.001 12.5h-21c-18.667 0 -34.834 -3.16699 -48.501 -9.5s-23.667 -13.5 -30 -21.5s-11.333 -18.667 -15 -32s-5.83398 -24.333 -6.50098 -33s-1 -19.334 -1 -32.001
v-8z" />
    <glyph glyph-name="yen" unicode="&#xa5;" horiz-adv-x="1450" 
d="M85 1621l256 0.00585938c10.667 -76.667 22.5 -150.834 35.5 -222.501s30 -147 51 -226s43.5 -147.333 67.5 -205s52.333 -105.334 85 -143.001s67 -56.5 103 -56.5h2c28 0 54.667 9.5 80 28.5s48 46 68 81s38.333 72.667 55 113s31.667 86.666 45 138.999
s25 100.166 35 143.499s19 90.666 27 141.999s13.833 90.833 17.5 118.5l11.5 87.5h256c-32 -190 -60.333 -330 -85 -420c-86 -317.333 -214 -489 -384 -515v-174h234v-85h-234v-427h-256v427h-263v85h263v174c-153.333 23.333 -271.333 161.666 -354 414.999
c-34 102.667 -69.667 259.667 -107 471z" />
    <glyph glyph-name="brokenbar" unicode="&#xa6;" horiz-adv-x="554" 
d="M85 0v480h171v-480h-171zM85 1141v480h171v-480h-171z" />
    <glyph glyph-name="section" unicode="&#xa7;" 
d="M85 478l-0.00195312 239.001c0 70 22 129.5 66 178.5s105 84.5 183 106.5c-51.333 29.333 -91.333 66.833 -120 112.5s-43 96.5 -43 152.5c0 98 40.167 181.5 120.5 250.5s182.166 103.5 305.499 103.5h470v-85h-384c-34 0 -64.667 -2.83301 -92 -8.5
s-49.833 -12.834 -67.5 -21.501s-32.834 -20.167 -45.501 -34.5s-22.167 -27.833 -28.5 -40.5s-11.333 -28.167 -15 -46.5s-5.83398 -33.666 -6.50098 -45.999s-1 -27.5 -1 -45.5c0 -16.667 0.333008 -31.167 1 -43.5s2.83398 -28.333 6.50098 -48
s8.66699 -36.834 15 -51.501s15.833 -30.334 28.5 -47.001s27.834 -30.5 45.501 -41.5s40.167 -20 67.5 -27s58 -10.5 92 -10.5h85c128 0 231.167 -27.5 309.5 -82.5s117.5 -129.833 117.5 -224.5v-239c0 -70 -22 -129.667 -66 -179s-105 -84.666 -183 -105.999
c51.333 -29.333 91.333 -67 120 -113s43 -97 43 -153c0 -98 -40.167 -181.5 -120.5 -250.5s-182.166 -103.5 -305.499 -103.5h-470v86h384c34 0 64.667 2.83301 92 8.5s49.833 12.834 67.5 21.501s32.834 20.167 45.501 34.5s22.167 27.833 28.5 40.5s11.333 28.167 15 46.5
s5.83398 33.666 6.50098 45.999s1 27.5 1 45.5c0 24 -0.833008 44.833 -2.5 62.5s-7.16699 40.5 -16.5 68.5s-22.5 51.167 -39.5 69.5s-42.333 34.333 -76 48s-74.167 20.5 -121.5 20.5h-85c-128 0 -231.167 27.5 -309.5 82.5s-117.5 129.833 -117.5 224.5zM340.998 525.001
c0 -18 0.333008 -33.667 1 -47s2.83398 -30 6.50098 -50s8.83398 -37.167 15.501 -51.5s16.334 -29.5 29.001 -45.5s27.667 -29.167 45 -39.5s39.666 -18.833 66.999 -25.5s58 -10 92 -10h86c34 0 64.667 3.33301 92 10s49.666 15.167 66.999 25.5s32.333 23.5 45 39.5
s22.334 31.167 29.001 45.5s11.834 31.5 15.501 51.5s5.83398 36.667 6.50098 50s1 29 1 47v145c0 18 -0.333008 33.667 -1 47s-2.83398 30 -6.50098 50s-8.83398 37.167 -15.501 51.5s-16.334 29.5 -29.001 45.5s-27.667 29.167 -45 39.5s-39.666 18.833 -66.999 25.5
s-58 10 -92 10h-86c-34 0 -64.667 -3.33301 -92 -10s-49.666 -15.167 -66.999 -25.5s-32.333 -23.5 -45 -39.5s-22.334 -31.167 -29.001 -45.5s-11.834 -31.5 -15.501 -51.5s-5.83398 -36.667 -6.50098 -50s-1 -29 -1 -47v-145z" />
    <glyph glyph-name="dieresis" unicode="&#xa8;" 
d="M256 1493v85.999c0.666992 10 1.66699 17.167 3 21.5s6.83301 8.83301 16.5 13.5s24.5 7 44.5 7h128c20 0 34.833 -2 44.5 -6s15.167 -8.16699 16.5 -12.5s2.33301 -12.166 3 -23.499v-86c0 -16.667 -3.33301 -27.834 -10 -33.501s-24.667 -8.5 -54 -8.5h-128
c-28.667 0 -46.5 2.83301 -53.5 8.5s-10.5 16.834 -10.5 33.501zM768 1493v85.999c0.666992 10 1.66699 17.167 3 21.5s6.83301 8.83301 16.5 13.5s24.5 7 44.5 7h128c20 0 34.833 -2 44.5 -6s15.167 -8.16699 16.5 -12.5s2.33301 -12.166 3 -23.499v-86
c0 -16.667 -3.33301 -27.834 -10 -33.501s-24.667 -8.5 -54 -8.5h-128c-28.667 0 -46.5 2.83301 -53.5 8.5s-10.5 16.834 -10.5 33.501z" />
    <glyph glyph-name="copyright" unicode="&#xa9;" horiz-adv-x="2133" 
d="M85 -34v1263c0 62.667 25 124.5 75 185.5s114.833 110.667 194.5 149s160.5 57.5 242.5 57.5h854c82 0 162.833 -19.167 242.5 -57.5s144.5 -88 194.5 -149s75 -122.833 75 -185.5v-1263c0 -62.667 -25 -124.667 -75 -186s-114.833 -111.166 -194.5 -149.499
s-160.5 -57.5 -242.5 -57.5h-854c-82 0 -162.833 19.167 -242.5 57.5s-144.5 88.166 -194.5 149.499s-75 123.333 -75 186zM256 13c0 -21.333 3.83301 -46.333 11.5 -75s20.334 -59.5 38.001 -92.5s39.167 -63.167 64.5 -90.5s57.833 -50.166 97.5 -68.499
s82.834 -27.5 129.501 -27.5h854c46.667 0 89.834 9.16699 129.501 27.5s72.167 41.166 97.5 68.499s46.833 57.5 64.5 90.5s30.334 63.833 38.001 92.5s11.5 53.667 11.5 75v1169c0 21.333 -3.83301 46.333 -11.5 75s-20.334 59.5 -38.001 92.5s-39.167 63.167 -64.5 90.5
s-57.833 50.166 -97.5 68.499s-82.834 27.5 -129.501 27.5h-854c-46.667 0 -89.834 -9.16699 -129.501 -27.5s-72.167 -41.166 -97.5 -68.499s-46.833 -57.5 -64.5 -90.5s-30.334 -63.833 -38.001 -92.5s-11.5 -53.667 -11.5 -75v-1169zM512 307v579.999
c0 95.333 39.167 170.5 117.5 225.5s181.5 82.5 309.5 82.5h512v-86h-427c-34 0 -64.667 -3.33301 -92 -10s-49.666 -15 -66.999 -25s-32.333 -23.167 -45 -39.5s-22.334 -31.666 -29.001 -45.999s-11.834 -31.5 -15.501 -51.5s-5.83398 -36.5 -6.50098 -49.5
s-1 -28.5 -1 -46.5v-487c0 -18 0.333008 -33.667 1 -47s2.83398 -30 6.50098 -50s8.83398 -37.167 15.501 -51.5s16.334 -29.5 29.001 -45.5s27.667 -29.167 45 -39.5s39.666 -18.833 66.999 -25.5s58 -10 92 -10h427v-85h-512c-128 0 -231.167 27.5 -309.5 82.5
s-117.5 129.833 -117.5 224.5z" />
    <glyph glyph-name="ordfeminine" unicode="&#xaa;" 
d="M85 734l0.00195312 154.001c0 94.667 39.167 169.5 117.5 224.5s181.5 82.5 309.5 82.5h427v73c0 18 -0.333008 33.5 -1 46.5s-2.83398 29.5 -6.50098 49.5s-8.83398 37.167 -15.501 51.5s-16.334 29.666 -29.001 45.999s-27.667 29.5 -45 39.5
s-39.666 18.333 -66.999 25s-58 10 -92 10h-427v86h512c128 0 231.167 -27.5 309.5 -82.5s117.5 -130.167 117.5 -225.5v-887h-683c-128 0 -231.167 27.5 -309.5 82.5s-117.5 129.833 -117.5 224.5zM341.002 781.001c0 -18 0.333008 -33.667 1 -47s2.83398 -30 6.50098 -50
s8.83398 -37.167 15.501 -51.5s16.334 -29.5 29.001 -45.5s27.667 -29.167 45 -39.5s39.666 -18.833 66.999 -25.5s58 -10 92 -10h342v598h-342c-34 0 -64.667 -3.33301 -92 -10s-49.666 -15.167 -66.999 -25.5s-32.333 -23.5 -45 -39.5s-22.334 -31.167 -29.001 -45.5
s-11.834 -31.5 -15.501 -51.5s-5.83398 -36.667 -6.50098 -50s-1 -29 -1 -47v-60z" />
    <glyph glyph-name="guillemotleft" unicode="&#xab;" horiz-adv-x="1322" 
d="M85 817l573 573l61 -60l-332 -332c-64 -64 -96 -125.667 -96 -185c0 -24 5.66699 -48 17 -72s22.833 -43 34.5 -57s26.5 -30 44.5 -48l332 -332l-61 -61zM512 817l573 573l61 -60l-332 -332c-64 -64 -96 -125.667 -96 -185c0 -24 5.66699 -48 17 -72s22.833 -43 34.5 -57
s26.5 -30 44.5 -48l332 -332l-61 -61z" />
    <glyph glyph-name="logicalnot" unicode="&#xac;" horiz-adv-x="1066" 
 />
    <glyph glyph-name="uni00AD" unicode="&#xad;" horiz-adv-x="1066" 
 />
    <glyph glyph-name="registered" unicode="&#xae;" horiz-adv-x="2133" 
d="M85 -34v1263c0 62.667 25 124.5 75 185.5s114.833 110.667 194.5 149s160.5 57.5 242.5 57.5h854c82 0 162.833 -19.167 242.5 -57.5s144.5 -88 194.5 -149s75 -122.833 75 -185.5v-1263c0 -62.667 -25 -124.667 -75 -186s-114.833 -111.166 -194.5 -149.499
s-160.5 -57.5 -242.5 -57.5h-854c-82 0 -162.833 19.167 -242.5 57.5s-144.5 88.166 -194.5 149.499s-75 123.333 -75 186zM256 13c0 -21.333 3.83301 -46.333 11.5 -75s20.334 -59.5 38.001 -92.5s39.167 -63.167 64.5 -90.5s57.833 -50.166 97.5 -68.499
s82.834 -27.5 129.501 -27.5h854c46.667 0 89.834 9.16699 129.501 27.5s72.167 41.166 97.5 68.499s46.833 57.5 64.5 90.5s30.334 63.833 38.001 92.5s11.5 53.667 11.5 75v1169c0 21.333 -3.83301 46.333 -11.5 75s-20.334 59.5 -38.001 92.5s-39.167 63.167 -64.5 90.5
s-57.833 50.166 -97.5 68.499s-82.834 27.5 -129.501 27.5h-854c-46.667 0 -89.834 -9.16699 -129.501 -27.5s-72.167 -41.166 -97.5 -68.499s-46.833 -57.5 -64.5 -90.5s-30.334 -63.833 -38.001 -92.5s-11.5 -53.667 -11.5 -75v-1169zM491 -128l0.00195312 810.999v725
h640c127.333 0 230.166 -27.5 308.499 -82.5s117.5 -129.833 117.5 -224.5v-111c0 -43.333 -6.5 -82.166 -19.5 -116.499s-29.833 -61.5 -50.5 -81.5s-43.667 -37.167 -69 -51.5s-50.833 -24.5 -76.5 -30.5s-49.167 -10.667 -70.5 -14s-39 -5.83301 -53 -7.5
s-21.667 -3.5 -23 -5.5c118.667 0 215.834 -27.667 291.501 -83s113.5 -130.333 113.5 -225v-503h-256v499c0 18 -0.333008 33.667 -1 47s-2.83398 30 -6.50098 50s-8.83398 37.167 -15.501 51.5s-16.334 29.5 -29.001 45.5s-27.667 29.167 -45 39.5
s-39.666 18.833 -66.999 25.5s-58 10 -92 10h-341v-768h-256zM747.002 724.999l297.998 -0.000976562c34 0 64.667 4.16699 92 12.5s49.833 18.833 67.5 31.5s32.834 28.667 45.501 48s22.167 37.5 28.5 54.5s11.333 37 15 60s5.83398 41.667 6.50098 56s1 30.833 1 49.5v17
c0 26.667 -0.833008 49.167 -2.5 67.5s-7.16699 41.333 -16.5 69s-22.5 50.167 -39.5 67.5s-42.333 32.5 -76 45.5s-74.167 19.5 -121.5 19.5h-128c-19.333 0 -33.833 -0.166992 -43.5 -0.5s-22.334 -1.16602 -38.001 -2.49902s-27.667 -3.83301 -36 -7.5
s-17.166 -8.66699 -26.499 -15s-16 -14.5 -20 -24.5s-6 -22 -6 -36v-512z" />
    <glyph glyph-name="macron" unicode="&#xaf;" 
d="M85 1536v85h1110v-85h-1110z" />
    <glyph glyph-name="degree" unicode="&#xb0;" horiz-adv-x="682" 
d="M85 1421v53c0 46 15.167 82 45.5 108s71.5 39 123.5 39h51c54 0 97.333 -13.167 130 -39.5s49 -62.166 49 -107.499v-53c0 -44.667 -17.333 -80.334 -52 -107.001s-77 -40 -127 -40h-51c-52 0 -93.167 13 -123.5 39s-45.5 62 -45.5 108zM169 1444
c0 -86.667 33.333 -129.997 100 -129.997h21c22.667 0 41.334 4.16699 56.001 12.5s24.834 20.166 30.501 35.499s9.33398 28.666 11.001 39.999s2.5 25.333 2.5 42v9c0 16 -0.833008 29.667 -2.5 41s-5.33398 24.5 -11.001 39.5s-15.834 26.667 -30.501 35
s-33.334 12.5 -56.001 12.5h-21c-18.667 0 -34.667 -3.16699 -48 -9.5s-23.333 -13.5 -30 -21.5s-11.667 -18.667 -15 -32s-5.33301 -24.333 -6 -33s-1 -19.334 -1 -32.001v-9z" />
    <glyph glyph-name="plusminus" unicode="&#xb1;" 
d="M85 0v85h1110v-85h-1110zM85 853v86h470v512h170v-512h470v-86h-470v-512h-170v512h-470z" />
    <glyph glyph-name="acute" unicode="&#xb4;" 
d="M489 1382l104.999 80.002c12 12 18 22.333 18 31c0 14.667 -12 22 -36 22c-28.667 0 -46.5 2.83301 -53.5 8.5s-10.5 16.834 -10.5 33.501v22c0 7.33301 0.333008 12.666 1 15.999s2.83398 7.5 6.50098 12.5s10.167 8.5 19.5 10.5s21.666 3 36.999 3h128
c20 0 34.833 -2 44.5 -6s15.334 -8.33301 17.001 -13s2.5 -12.334 2.5 -23.001v-64c-0.666992 -22.667 -10 -41.334 -28 -56.001l-205 -149z" />
    <glyph glyph-name="uni00B5" unicode="&#xb5;" 
d="M85 307l-0.000976562 886.001v2h256v-2v-839c0 -18 0.333008 -33.667 1 -47s2.83398 -30 6.50098 -50s8.83398 -37.167 15.501 -51.5s16.334 -29.5 29.001 -45.5s27.667 -29.167 45 -39.5s39.666 -18.833 66.999 -25.5s58 -10 92 -10h171
c19.333 0 33.833 0.166992 43.5 0.5s22.5 1.16602 38.5 2.49902s28.167 3.83301 36.5 7.5s17.166 8.66699 26.499 15s16 14.5 20 24.5s6 22 6 36v1024h256v-1195h-683c-30 0 -72.167 7 -126.5 21s-97.5 28 -129.5 42v-490h-171v734z" />
    <glyph glyph-name="paragraph" unicode="&#xb6;" horiz-adv-x="1109" 
d="M85 1365c0 44 4.49707 81.834 13.4971 113.501s20.833 56.5 35.5 74.5s33.667 32.167 57 42.5s46.333 17.166 69 20.499s49.667 5 81 5h598v-2048h-171v1963h-256v-1963h-171v1536c-32 0 -59.167 1.5 -81.5 4.5s-45.166 9.5 -68.499 19.5s-42.166 24 -56.499 42
s-26.166 43 -35.499 75s-14 70.333 -14 115z" />
    <glyph glyph-name="periodcentered" unicode="&#xb7;" horiz-adv-x="725" 
d="M171 768v171h170v-171h-170z" />
    <glyph glyph-name="cedilla" unicode="&#xb8;" horiz-adv-x="1237" 
d="M553 4l46 73l205 -150c18 -14 27.333 -32.333 28 -55v-128c0 -11.333 -0.833008 -19.333 -2.5 -24s-7.16699 -9 -16.5 -13s-24.333 -6 -45 -6h-128c-20 0 -34.833 2.5 -44.5 7.5s-15.167 9.66699 -16.5 14s-2.33301 11.5 -3 21.5v85c0 17.333 3.5 28.833 10.5 34.5
s24.833 8.5 53.5 8.5c24 0 36 7.33301 36 22c0 9.33301 -6 19.333 -18 30z" />
    <glyph glyph-name="uni00B9" unicode="&#xb9;" horiz-adv-x="725" 
d="M194 932v689h152v-689h-152z" />
    <glyph glyph-name="ordmasculine" unicode="&#xba;" 
d="M85 734v580c0 95.333 39.167 170.5 117.5 225.5s181.5 82.5 309.5 82.5h256c128 0 231.167 -27.5 309.5 -82.5s117.5 -130.167 117.5 -225.5v-580c0 -94.667 -39.167 -169.5 -117.5 -224.5s-181.5 -82.5 -309.5 -82.5h-256c-128 0 -231.167 27.5 -309.5 82.5
s-117.5 129.833 -117.5 224.5zM341 781c0 -18 0.333008 -33.667 1 -47s2.83398 -30 6.50098 -50s8.83398 -37.167 15.501 -51.5s16.334 -29.5 29.001 -45.5s27.667 -29.167 45 -39.5s39.666 -18.833 66.999 -25.5s58 -10 92 -10h86c34 0 64.667 3.33301 92 10
s49.666 15.167 66.999 25.5s32.333 23.5 45 39.5s22.334 31.167 29.001 45.5s11.834 31.5 15.501 51.5s5.83398 36.667 6.50098 50s1 29 1 47v487c0 18 -0.333008 33.5 -1 46.5s-2.83398 29.5 -6.50098 49.5s-8.83398 37.167 -15.501 51.5s-16.334 29.666 -29.001 45.999
s-27.667 29.5 -45 39.5s-39.666 18.333 -66.999 25s-58 10 -92 10h-86c-34 0 -64.667 -3.33301 -92 -10s-49.666 -15 -66.999 -25s-32.333 -23.167 -45 -39.5s-22.334 -31.666 -29.001 -45.999s-11.834 -31.5 -15.501 -51.5s-5.83398 -36.5 -6.50098 -49.5
s-1 -28.5 -1 -46.5v-487z" />
    <glyph glyph-name="guillemotright" unicode="&#xbb;" horiz-adv-x="1322" 
d="M86 304l332 331.999c18 18 32.833 34 44.5 48s23.167 33 34.5 57s17 48 17 72c0 58.667 -32 120.334 -96 185.001l-332 332l60 60l573 -573l-573 -574zM598 303.999l332 331.999c18 18 32.833 34 44.5 48s23.167 33 34.5 57s17 48 17 72
c0 58.667 -32 120.334 -96 185.001l-332 332l60 60l573 -573l-573 -574z" />
    <glyph glyph-name="questiondown" unicode="&#xbf;" horiz-adv-x="1194" 
d="M85 0v85h427c34 0 64.667 3.33301 92 10s49.666 15.167 66.999 25.5s32.333 23.5 45 39.5s22.334 31.167 29.001 45.5s11.834 31.5 15.501 51.5s5.83398 36.667 6.50098 50s1 29 1 47v316c0 18 -0.333008 33.667 -1 47s-2.83398 30 -6.50098 50
s-8.83398 37.167 -15.501 51.5s-16.334 29.5 -29.001 45.5s-27.667 29.167 -45 39.5s-39.666 18.833 -66.999 25.5s-58 10 -92 10h-256v341h256v-256h85c128 0 231.167 -27.5 309.5 -82.5s117.5 -129.833 117.5 -224.5v-410c0 -94.667 -39.167 -169.5 -117.5 -224.5
s-181.5 -82.5 -309.5 -82.5h-512zM256 1493v85.999c0 16.667 3.5 27.834 10.5 33.501s24.833 8.5 53.5 8.5h128c29.333 0 47.333 -2.83301 54 -8.5s10 -16.834 10 -33.501v-86c-0.666992 -11.333 -1.66699 -19.166 -3 -23.499s-6.83301 -8.5 -16.5 -12.5s-24.5 -6 -44.5 -6
h-128c-20 0 -34.833 2.33301 -44.5 7s-15.167 9.16699 -16.5 13.5s-2.33301 11.5 -3 21.5z" />
    <glyph glyph-name="Agrave" unicode="&#xc0;" horiz-adv-x="1450" 
d="M85 0v1314c0 94.667 39.167 169.5 117.5 224.5s181.5 82.5 309.5 82.5h341c128 0 231.167 -27.5 309.5 -82.5s117.5 -129.833 117.5 -224.5v-1314h-256v939h-683v-939h-256zM341 1024h683.004v243c0 18 -0.333008 33.667 -1 47s-2.83398 30 -6.50098 50
s-8.83398 37.167 -15.501 51.5s-16.334 29.5 -29.001 45.5s-27.667 29.167 -45 39.5s-39.666 18.833 -66.999 25.5s-58 10 -92 10h-171c-34 0 -64.667 -3.33301 -92 -10s-49.666 -15.167 -66.999 -25.5s-32.333 -23.5 -45 -39.5s-22.334 -31.167 -29.001 -45.5
s-11.834 -31.5 -15.501 -51.5s-5.83398 -36.667 -6.50098 -50s-1 -29 -1 -47v-243zM543.004 1948l-0.000976562 63.998c0 10.667 0.833008 18.334 2.5 23.001s7.33398 9 17.001 13s24.5 6 44.5 6h128c15.333 0 27.666 -1 36.999 -3s15.833 -5.5 19.5 -10.5
s5.83398 -9.16699 6.50098 -12.5s1 -8.66602 1 -15.999v-22c0 -16.667 -3.5 -27.834 -10.5 -33.501s-24.833 -8.5 -53.5 -8.5c-24 0 -36 -7.33301 -36 -22c0 -9.33301 5.66699 -19.666 17 -30.999l106 -80l-47 -72l-204 149c-18 14 -27.333 32.667 -28 56z" />
    <glyph glyph-name="Aacute" unicode="&#xc1;" horiz-adv-x="1450" 
d="M85 0v1314c0 94.667 39.167 169.5 117.5 224.5s181.5 82.5 309.5 82.5h341c128 0 231.167 -27.5 309.5 -82.5s117.5 -129.833 117.5 -224.5v-1314h-256v939h-683v-939h-256zM341 1024h683.004v243c0 18 -0.333008 33.667 -1 47s-2.83398 30 -6.50098 50
s-8.83398 37.167 -15.501 51.5s-16.334 29.5 -29.001 45.5s-27.667 29.167 -45 39.5s-39.666 18.833 -66.999 25.5s-58 10 -92 10h-171c-34 0 -64.667 -3.33301 -92 -10s-49.666 -15.167 -66.999 -25.5s-32.333 -23.5 -45 -39.5s-22.334 -31.167 -29.001 -45.5
s-11.834 -31.5 -15.501 -51.5s-5.83398 -36.667 -6.50098 -50s-1 -29 -1 -47v-243zM543.004 1815l104.999 80.002c12 12 18 22.333 18 31c0 14.667 -12 22 -36 22c-28.667 0 -46.5 2.83301 -53.5 8.5s-10.5 16.834 -10.5 33.501v22c0 7.33301 0.333008 12.666 1 15.999
s2.83398 7.5 6.50098 12.5s10.167 8.5 19.5 10.5s21.666 3 36.999 3h128c20 0 34.833 -2 44.5 -6s15.334 -8.33301 17.001 -13s2.5 -12.334 2.5 -23.001v-64c-0.666992 -22.667 -10 -41.334 -28 -56.001l-205 -149z" />
    <glyph glyph-name="Acircumflex" unicode="&#xc2;" horiz-adv-x="1450" 
d="M85 0v1314c0 94.667 39.167 169.5 117.5 224.5s181.5 82.5 309.5 82.5h341c128 0 231.167 -27.5 309.5 -82.5s117.5 -129.833 117.5 -224.5v-1314h-256v939h-683v-939h-256zM341 1024h683.004v243c0 18 -0.333008 33.667 -1 47s-2.83398 30 -6.50098 50
s-8.83398 37.167 -15.501 51.5s-16.334 29.5 -29.001 45.5s-27.667 29.167 -45 39.5s-39.666 18.833 -66.999 25.5s-58 10 -92 10h-171c-34 0 -64.667 -3.33301 -92 -10s-49.666 -15.167 -66.999 -25.5s-32.333 -23.5 -45 -39.5s-22.334 -31.167 -29.001 -45.5
s-11.834 -31.5 -15.501 -51.5s-5.83398 -36.667 -6.50098 -50s-1 -29 -1 -47v-243zM352.004 1764l331 331l331 -331l-60 -62l-90 92c-64 64 -124.333 96 -181 96c-58 0 -118.333 -32 -181 -96l-90 -92z" />
    <glyph glyph-name="Atilde" unicode="&#xc3;" horiz-adv-x="1450" 
d="M85 0v1314c0 94.667 39.167 169.5 117.5 224.5s181.5 82.5 309.5 82.5h341c128 0 231.167 -27.5 309.5 -82.5s117.5 -129.833 117.5 -224.5v-1314h-256v939h-683v-939h-256zM130 1902l182.999 166c35.333 31.333 77 47 125 47c71.333 0 143 -32.333 215 -97l119 -107
c41.333 -36.667 81 -55 119 -55c38.667 0 80 20.333 124 61l103 92l118 -107l-124 -112c-35.333 -31.333 -77 -47 -125 -47c-71.333 0 -143 32.333 -215 97l-119 107c-41.333 36.667 -81 55 -119 55c-37.333 0 -78.666 -20.333 -123.999 -61l-162 -146zM340.999 1024
h683.004v243c0 18 -0.333008 33.667 -1 47s-2.83398 30 -6.50098 50s-8.83398 37.167 -15.501 51.5s-16.334 29.5 -29.001 45.5s-27.667 29.167 -45 39.5s-39.666 18.833 -66.999 25.5s-58 10 -92 10h-171c-34 0 -64.667 -3.33301 -92 -10s-49.666 -15.167 -66.999 -25.5
s-32.333 -23.5 -45 -39.5s-22.334 -31.167 -29.001 -45.5s-11.834 -31.5 -15.501 -51.5s-5.83398 -36.667 -6.50098 -50s-1 -29 -1 -47v-243z" />
    <glyph glyph-name="Adieresis" unicode="&#xc4;" horiz-adv-x="1450" 
d="M85 0v1314c0 94.667 39.167 169.5 117.5 224.5s181.5 82.5 309.5 82.5h341c128 0 231.167 -27.5 309.5 -82.5s117.5 -129.833 117.5 -224.5v-1314h-256v939h-683v-939h-256zM299 1785v85.999c0.666992 10 1.66699 17.167 3 21.5s6.83301 8.83301 16.5 13.5s24.5 7 44.5 7
h128c20 0 34.833 -2 44.5 -6s15.167 -8.16699 16.5 -12.5s2.33301 -12.166 3 -23.499v-86c0 -16.667 -3.33301 -27.834 -10 -33.501s-24.667 -8.5 -54 -8.5h-128c-28.667 0 -46.5 2.83301 -53.5 8.5s-10.5 16.834 -10.5 33.501zM341 1024h683.004v243
c0 18 -0.333008 33.667 -1 47s-2.83398 30 -6.50098 50s-8.83398 37.167 -15.501 51.5s-16.334 29.5 -29.001 45.5s-27.667 29.167 -45 39.5s-39.666 18.833 -66.999 25.5s-58 10 -92 10h-171c-34 0 -64.667 -3.33301 -92 -10s-49.666 -15.167 -66.999 -25.5
s-32.333 -23.5 -45 -39.5s-22.334 -31.167 -29.001 -45.5s-11.834 -31.5 -15.501 -51.5s-5.83398 -36.667 -6.50098 -50s-1 -29 -1 -47v-243zM811.004 1785v85.999c0.666992 10 1.66699 17.167 3 21.5s6.83301 8.83301 16.5 13.5s24.5 7 44.5 7h128c20 0 34.833 -2 44.5 -6
s15.167 -8.16699 16.5 -12.5s2.33301 -12.166 3 -23.499v-86c0 -16.667 -3.33301 -27.834 -10 -33.501s-24.667 -8.5 -54 -8.5h-128c-28.667 0 -46.5 2.83301 -53.5 8.5s-10.5 16.834 -10.5 33.501z" />
    <glyph glyph-name="Aring" unicode="&#xc5;" horiz-adv-x="1450" 
d="M85 0v1314c0 94.667 39.167 169.5 117.5 224.5s181.5 82.5 309.5 82.5h341c128 0 231.167 -27.5 309.5 -82.5s117.5 -129.833 117.5 -224.5v-1314h-256v939h-683v-939h-256zM341 1024h683.004v243c0 18 -0.333008 33.667 -1 47s-2.83398 30 -6.50098 50
s-8.83398 37.167 -15.501 51.5s-16.334 29.5 -29.001 45.5s-27.667 29.167 -45 39.5s-39.666 18.833 -66.999 25.5s-58 10 -92 10h-171c-34 0 -64.667 -3.33301 -92 -10s-49.666 -15.167 -66.999 -25.5s-32.333 -23.5 -45 -39.5s-22.334 -31.167 -29.001 -45.5
s-11.834 -31.5 -15.501 -51.5s-5.83398 -36.667 -6.50098 -50s-1 -29 -1 -47v-243zM483.004 1799v54.001c0 45.333 15.167 81.166 45.5 107.499s71.5 39.5 123.5 39.5h51c53.333 0 96.5 -13.167 129.5 -39.5s49.5 -62.166 49.5 -107.499v-54c0 -44 -17.333 -79.5 -52 -106.5
s-77 -40.5 -127 -40.5h-51c-52 0 -93.167 13.167 -123.5 39.5s-45.5 62.166 -45.5 107.499zM545.004 1823c0 -16.667 1 -30.6709 3 -42.0039s6.5 -24.666 13.5 -39.999s19.333 -27.166 37 -35.499s40.167 -12.5 67.5 -12.5h22c22.667 0 42 3.16699 58 9.5s28 13.5 36 21.5
s14.167 18.833 18.5 32.5s6.83301 24.834 7.5 33.501s1 19.667 1 33v8c0 12.667 -0.333008 23.334 -1 32.001s-3.16699 19.667 -7.5 33s-10.5 24 -18.5 32s-20 15.167 -36 21.5s-35.333 9.5 -58 9.5h-22c-27.333 0 -49.833 -4.16699 -67.5 -12.5s-30 -20 -37 -35
s-11.5 -28.167 -13.5 -39.5s-3 -25 -3 -41v-8z" />
    <glyph glyph-name="AE" unicode="&#xc6;" horiz-adv-x="2304" 
d="M85 0l-0.000976562 1314c0 94.667 39.167 169.5 117.5 224.5s181.5 82.5 309.5 82.5h512h256h853v-85h-682c-19.333 0 -33.833 -0.166992 -43.5 -0.5s-22.5 -1.16602 -38.5 -2.49902s-28.167 -3.83301 -36.5 -7.5s-17.166 -8.5 -26.499 -14.5s-16 -14 -20 -24
s-6 -22 -6 -36v-427h597v-85h-597v-854h853v-85h-853h-256v939h-683v-939h-256zM340.999 1024l683.001 0.000976562v427c0 14 -2 26 -6 36s-10.667 18 -20 24s-18.166 10.833 -26.499 14.5s-20.5 6.16699 -36.5 7.5s-28.833 2.16602 -38.5 2.49902s-24.167 0.5 -43.5 0.5
h-256c-34 0 -64.667 -3.33301 -92 -10s-49.666 -15.167 -66.999 -25.5s-32.333 -23.5 -45 -39.5s-22.334 -31.167 -29.001 -45.5s-11.834 -31.5 -15.501 -51.5s-5.83398 -36.667 -6.50098 -50s-1 -29 -1 -47v-243z" />
    <glyph glyph-name="Ccedilla" unicode="&#xc7;" 
d="M85 307l0.00195312 1007c0 94.667 39.167 169.5 117.5 224.5s181.5 82.5 309.5 82.5h683v-85h-598c-34 0 -64.667 -3.33301 -92 -10s-49.666 -15.167 -66.999 -25.5s-32.333 -23.5 -45 -39.5s-22.334 -31.167 -29.001 -45.5s-11.834 -31.5 -15.501 -51.5
s-5.83398 -36.667 -6.50098 -50s-1 -29 -1 -47v-913c0 -18 0.333008 -33.667 1 -47s2.83398 -30 6.50098 -50s8.83398 -37.167 15.501 -51.5s16.334 -29.5 29.001 -45.5s27.667 -29.167 45 -39.5s39.666 -18.833 66.999 -25.5s58 -10 92 -10h598v-85h-511l161 -117
c17.333 -14 26.666 -32.667 27.999 -56v-128c0 -10.667 -0.833008 -18.334 -2.5 -23.001s-7.33398 -9 -17.001 -13s-24.5 -6 -44.5 -6h-128c-20 0 -34.833 2.33301 -44.5 7s-15.167 9.16699 -16.5 13.5s-2.33301 11.5 -3 21.5v86c0 16.667 3.5 27.834 10.5 33.501
s24.833 8.5 53.5 8.5c24 0 36 7.33301 36 22c0 8.66699 -6 18.667 -18 30l-106 80l-57 41h-24c-128 0 -231.167 27.5 -309.5 82.5s-117.5 129.833 -117.5 224.5z" />
    <glyph glyph-name="Egrave" unicode="&#xc8;" 
d="M85 0l-0.000976562 1621h1110v-85h-683c-19.333 0 -33.833 -0.166992 -43.5 -0.5s-22.5 -1.16602 -38.5 -2.49902s-28.167 -3.83301 -36.5 -7.5s-17.166 -8.5 -26.499 -14.5s-16 -14 -20 -24s-6 -22 -6 -36v-427h598v-85h-598v-854h854v-85h-1110zM499.999 1948
l-0.000976562 63.998c0 10.667 0.833008 18.334 2.5 23.001s7.33398 9 17.001 13s24.5 6 44.5 6h128c15.333 0 27.666 -1 36.999 -3s15.833 -5.5 19.5 -10.5s5.83398 -9.16699 6.50098 -12.5s1 -8.66602 1 -15.999v-22c0 -16.667 -3.5 -27.834 -10.5 -33.501
s-24.833 -8.5 -53.5 -8.5c-24 0 -36 -7.33301 -36 -22c0 -9.33301 5.66699 -19.666 17 -30.999l106 -80l-47 -72l-204 149c-18 14 -27.333 32.667 -28 56z" />
    <glyph glyph-name="Eacute" unicode="&#xc9;" 
d="M85 0l-0.000976562 1621h1110v-85h-683c-19.333 0 -33.833 -0.166992 -43.5 -0.5s-22.5 -1.16602 -38.5 -2.49902s-28.167 -3.83301 -36.5 -7.5s-17.166 -8.5 -26.499 -14.5s-16 -14 -20 -24s-6 -22 -6 -36v-427h598v-85h-598v-854h854v-85h-1110zM500.999 1815
l104.999 80.002c12 12 18 22.333 18 31c0 14.667 -12 22 -36 22c-28.667 0 -46.5 2.83301 -53.5 8.5s-10.5 16.834 -10.5 33.501v22c0 7.33301 0.333008 12.666 1 15.999s2.83398 7.5 6.50098 12.5s10.167 8.5 19.5 10.5s21.666 3 36.999 3h128c20 0 34.833 -2 44.5 -6
s15.334 -8.33301 17.001 -13s2.5 -12.334 2.5 -23.001v-64c-0.666992 -22.667 -10 -41.334 -28 -56.001l-205 -149z" />
    <glyph glyph-name="Ecircumflex" unicode="&#xca;" 
d="M85 0l-0.000976562 1621h1110v-85h-683c-19.333 0 -33.833 -0.166992 -43.5 -0.5s-22.5 -1.16602 -38.5 -2.49902s-28.167 -3.83301 -36.5 -7.5s-17.166 -8.5 -26.499 -14.5s-16 -14 -20 -24s-6 -22 -6 -36v-427h598v-85h-598v-854h854v-85h-1110zM308.999 1764l331 331
l331 -331l-60 -62l-90 92c-64 64 -124.333 96 -181 96c-58 0 -118.333 -32 -181 -96l-90 -92z" />
    <glyph glyph-name="Edieresis" unicode="&#xcb;" 
d="M85 0l-0.000976562 1621h1110v-85h-683c-19.333 0 -33.833 -0.166992 -43.5 -0.5s-22.5 -1.16602 -38.5 -2.49902s-28.167 -3.83301 -36.5 -7.5s-17.166 -8.5 -26.499 -14.5s-16 -14 -20 -24s-6 -22 -6 -36v-427h598v-85h-598v-854h854v-85h-1110zM255.999 1785v85.999
c0.666992 10 1.66699 17.167 3 21.5s6.83301 8.83301 16.5 13.5s24.5 7 44.5 7h128c20 0 34.833 -2 44.5 -6s15.167 -8.16699 16.5 -12.5s2.33301 -12.166 3 -23.499v-86c0 -16.667 -3.33301 -27.834 -10 -33.501s-24.667 -8.5 -54 -8.5h-128
c-28.667 0 -46.5 2.83301 -53.5 8.5s-10.5 16.834 -10.5 33.501zM767.999 1785v85.999c0.666992 10 1.66699 17.167 3 21.5s6.83301 8.83301 16.5 13.5s24.5 7 44.5 7h128c20 0 34.833 -2 44.5 -6s15.167 -8.16699 16.5 -12.5s2.33301 -12.166 3 -23.499v-86
c0 -16.667 -3.33301 -27.834 -10 -33.501s-24.667 -8.5 -54 -8.5h-128c-28.667 0 -46.5 2.83301 -53.5 8.5s-10.5 16.834 -10.5 33.501z" />
    <glyph glyph-name="Igrave" unicode="&#xcc;" horiz-adv-x="512" 
d="M74 1948l-0.000976562 63.998c0 10.667 0.833008 18.334 2.5 23.001s7.33398 9 17.001 13s24.5 6 44.5 6h128c15.333 0 27.666 -1 36.999 -3s15.833 -5.5 19.5 -10.5s5.83398 -9.16699 6.50098 -12.5s1 -8.66602 1 -15.999v-22c0 -16.667 -3.5 -27.834 -10.5 -33.501
s-24.833 -8.5 -53.5 -8.5c-24 0 -36 -7.33301 -36 -22c0 -9.33301 5.66699 -19.666 17 -30.999l106 -80l-47 -72l-204 149c-18 14 -27.333 32.667 -28 56zM84.999 -0.00195312v1621h256v-1621h-256z" />
    <glyph glyph-name="Iacute" unicode="&#xcd;" horiz-adv-x="512" 
d="M74 1815l104.999 80.002c12 12 18 22.333 18 31c0 14.667 -12 22 -36 22c-28.667 0 -46.5 2.83301 -53.5 8.5s-10.5 16.834 -10.5 33.501v22c0 7.33301 0.333008 12.666 1 15.999s2.83398 7.5 6.50098 12.5s10.167 8.5 19.5 10.5s21.666 3 36.999 3h128
c20 0 34.833 -2 44.5 -6s15.334 -8.33301 17.001 -13s2.5 -12.334 2.5 -23.001v-64c-0.666992 -22.667 -10 -41.334 -28 -56.001l-205 -149zM84.999 0.00195312v1621h256v-1621h-256z" />
    <glyph glyph-name="Icircumflex" unicode="&#xce;" horiz-adv-x="512" 
d="M-96 1779l331 331l331 -331l-60 -62l-90 92c-64 64 -124.333 96 -181 96c-58 0 -118.333 -32 -181 -96l-90 -92zM85 0v1621h256v-1621h-256z" />
    <glyph glyph-name="Idieresis" unicode="&#xcf;" horiz-adv-x="512" 
d="M-171 1785v85.999c0.666992 10 1.66699 17.167 3 21.5s6.83301 8.83301 16.5 13.5s24.5 7 44.5 7h128c20 0 34.833 -2 44.5 -6s15.167 -8.16699 16.5 -12.5s2.33301 -12.166 3 -23.499v-86c0 -16.667 -3.33301 -27.834 -10 -33.501s-24.667 -8.5 -54 -8.5h-128
c-28.667 0 -46.5 2.83301 -53.5 8.5s-10.5 16.834 -10.5 33.501zM85 -0.000976562v1621h256v-1621h-256zM341 1785v85.999c0.666992 10 1.66699 17.167 3 21.5s6.83301 8.83301 16.5 13.5s24.5 7 44.5 7h128c20 0 34.833 -2 44.5 -6s15.167 -8.16699 16.5 -12.5
s2.33301 -12.166 3 -23.499v-86c0 -16.667 -3.33301 -27.834 -10 -33.501s-24.667 -8.5 -54 -8.5h-128c-28.667 0 -46.5 2.83301 -53.5 8.5s-10.5 16.834 -10.5 33.501z" />
    <glyph glyph-name="Eth" unicode="&#xd0;" horiz-adv-x="1450" 
d="M0 853v86h85v682h768c128 0 231.167 -27.5 309.5 -82.5s117.5 -129.833 117.5 -224.5v-1007c0 -94.667 -39.167 -169.5 -117.5 -224.5s-181.5 -82.5 -309.5 -82.5h-768v853h-85zM341 85l426.999 -0.000976562c34 0 64.667 3.33301 92 10s49.666 15.167 66.999 25.5
s32.333 23.5 45 39.5s22.334 31.167 29.001 45.5s11.834 31.5 15.501 51.5s5.83398 36.667 6.50098 50s1 29 1 47v913c0 18 -0.333008 33.667 -1 47s-2.83398 30 -6.50098 50s-8.83398 37.167 -15.501 51.5s-16.334 29.5 -29.001 45.5s-27.667 29.167 -45 39.5
s-39.666 18.833 -66.999 25.5s-58 10 -92 10h-256c-19.333 0 -33.833 -0.166992 -43.5 -0.5s-22.5 -1.16602 -38.5 -2.49902s-28.167 -3.83301 -36.5 -7.5s-17.166 -8.5 -26.499 -14.5s-16 -14 -20 -24s-6 -22 -6 -36v-512h342v-86h-342v-768z" />
    <glyph glyph-name="Ntilde" unicode="&#xd1;" horiz-adv-x="1450" 
d="M85 0l0.000976562 1621h768c128 0 231.167 -27.5 309.5 -82.5s117.5 -129.833 117.5 -224.5v-1314h-256v1267c0 18 -0.333008 33.667 -1 47s-2.83398 30 -6.50098 50s-8.83398 37.167 -15.501 51.5s-16.334 29.5 -29.001 45.5s-27.667 29.167 -45 39.5
s-39.666 18.833 -66.999 25.5s-58 10 -92 10h-256c-19.333 0 -33.833 -0.166992 -43.5 -0.5s-22.5 -1.16602 -38.5 -2.49902s-28.167 -3.83301 -36.5 -7.5s-17.166 -8.5 -26.499 -14.5s-16 -14 -20 -24s-6 -22 -6 -36v-1451h-256zM130.001 1902l182.999 166
c35.333 31.333 77 47 125 47c71.333 0 143 -32.333 215 -97l119 -107c41.333 -36.667 81 -55 119 -55c38.667 0 80 20.333 124 61l103 92l118 -107l-124 -112c-35.333 -31.333 -77 -47 -125 -47c-71.333 0 -143 32.333 -215 97l-119 107c-41.333 36.667 -81 55 -119 55
c-37.333 0 -78.666 -20.333 -123.999 -61l-162 -146z" />
    <glyph glyph-name="Ograve" unicode="&#xd2;" horiz-adv-x="1450" 
d="M85 307v1007c0 94.667 39.167 169.5 117.5 224.5s181.5 82.5 309.5 82.5h341c128 0 231.167 -27.5 309.5 -82.5s117.5 -129.833 117.5 -224.5v-1007c0 -94.667 -39.167 -169.5 -117.5 -224.5s-181.5 -82.5 -309.5 -82.5h-341c-128 0 -231.167 27.5 -309.5 82.5
s-117.5 129.833 -117.5 224.5zM341 354c0 -18 0.333008 -33.667 1 -47s2.83398 -30 6.50098 -50s8.83398 -37.167 15.501 -51.5s16.334 -29.5 29.001 -45.5s27.667 -29.167 45 -39.5s39.666 -18.833 66.999 -25.5s58 -10 92 -10h171c34 0 64.667 3.33301 92 10
s49.666 15.167 66.999 25.5s32.333 23.5 45 39.5s22.334 31.167 29.001 45.5s11.834 31.5 15.501 51.5s5.83398 36.667 6.50098 50s1 29 1 47v913c0 18 -0.333008 33.667 -1 47s-2.83398 30 -6.50098 50s-8.83398 37.167 -15.501 51.5s-16.334 29.5 -29.001 45.5
s-27.667 29.167 -45 39.5s-39.666 18.833 -66.999 25.5s-58 10 -92 10h-171c-34 0 -64.667 -3.33301 -92 -10s-49.666 -15.167 -66.999 -25.5s-32.333 -23.5 -45 -39.5s-22.334 -31.167 -29.001 -45.5s-11.834 -31.5 -15.501 -51.5s-5.83398 -36.667 -6.50098 -50
s-1 -29 -1 -47v-913zM543 1948l-0.000976562 63.998c0 10.667 0.833008 18.334 2.5 23.001s7.33398 9 17.001 13s24.5 6 44.5 6h128c15.333 0 27.666 -1 36.999 -3s15.833 -5.5 19.5 -10.5s5.83398 -9.16699 6.50098 -12.5s1 -8.66602 1 -15.999v-22
c0 -16.667 -3.5 -27.834 -10.5 -33.501s-24.833 -8.5 -53.5 -8.5c-24 0 -36 -7.33301 -36 -22c0 -9.33301 5.66699 -19.666 17 -30.999l106 -80l-47 -72l-204 149c-18 14 -27.333 32.667 -28 56z" />
    <glyph glyph-name="Oacute" unicode="&#xd3;" horiz-adv-x="1450" 
d="M85 307v1007c0 94.667 39.167 169.5 117.5 224.5s181.5 82.5 309.5 82.5h341c128 0 231.167 -27.5 309.5 -82.5s117.5 -129.833 117.5 -224.5v-1007c0 -94.667 -39.167 -169.5 -117.5 -224.5s-181.5 -82.5 -309.5 -82.5h-341c-128 0 -231.167 27.5 -309.5 82.5
s-117.5 129.833 -117.5 224.5zM341 354c0 -18 0.333008 -33.667 1 -47s2.83398 -30 6.50098 -50s8.83398 -37.167 15.501 -51.5s16.334 -29.5 29.001 -45.5s27.667 -29.167 45 -39.5s39.666 -18.833 66.999 -25.5s58 -10 92 -10h171c34 0 64.667 3.33301 92 10
s49.666 15.167 66.999 25.5s32.333 23.5 45 39.5s22.334 31.167 29.001 45.5s11.834 31.5 15.501 51.5s5.83398 36.667 6.50098 50s1 29 1 47v913c0 18 -0.333008 33.667 -1 47s-2.83398 30 -6.50098 50s-8.83398 37.167 -15.501 51.5s-16.334 29.5 -29.001 45.5
s-27.667 29.167 -45 39.5s-39.666 18.833 -66.999 25.5s-58 10 -92 10h-171c-34 0 -64.667 -3.33301 -92 -10s-49.666 -15.167 -66.999 -25.5s-32.333 -23.5 -45 -39.5s-22.334 -31.167 -29.001 -45.5s-11.834 -31.5 -15.501 -51.5s-5.83398 -36.667 -6.50098 -50
s-1 -29 -1 -47v-913zM543 1815l104.999 80.002c12 12 18 22.333 18 31c0 14.667 -12 22 -36 22c-28.667 0 -46.5 2.83301 -53.5 8.5s-10.5 16.834 -10.5 33.501v22c0 7.33301 0.333008 12.666 1 15.999s2.83398 7.5 6.50098 12.5s10.167 8.5 19.5 10.5s21.666 3 36.999 3
h128c20 0 34.833 -2 44.5 -6s15.334 -8.33301 17.001 -13s2.5 -12.334 2.5 -23.001v-64c-0.666992 -22.667 -10 -41.334 -28 -56.001l-205 -149z" />
    <glyph glyph-name="Ocircumflex" unicode="&#xd4;" horiz-adv-x="1450" 
d="M85 307v1007c0 94.667 39.167 169.5 117.5 224.5s181.5 82.5 309.5 82.5h341c128 0 231.167 -27.5 309.5 -82.5s117.5 -129.833 117.5 -224.5v-1007c0 -94.667 -39.167 -169.5 -117.5 -224.5s-181.5 -82.5 -309.5 -82.5h-341c-128 0 -231.167 27.5 -309.5 82.5
s-117.5 129.833 -117.5 224.5zM341 354c0 -18 0.333008 -33.667 1 -47s2.83398 -30 6.50098 -50s8.83398 -37.167 15.501 -51.5s16.334 -29.5 29.001 -45.5s27.667 -29.167 45 -39.5s39.666 -18.833 66.999 -25.5s58 -10 92 -10h171c34 0 64.667 3.33301 92 10
s49.666 15.167 66.999 25.5s32.333 23.5 45 39.5s22.334 31.167 29.001 45.5s11.834 31.5 15.501 51.5s5.83398 36.667 6.50098 50s1 29 1 47v913c0 18 -0.333008 33.667 -1 47s-2.83398 30 -6.50098 50s-8.83398 37.167 -15.501 51.5s-16.334 29.5 -29.001 45.5
s-27.667 29.167 -45 39.5s-39.666 18.833 -66.999 25.5s-58 10 -92 10h-171c-34 0 -64.667 -3.33301 -92 -10s-49.666 -15.167 -66.999 -25.5s-32.333 -23.5 -45 -39.5s-22.334 -31.167 -29.001 -45.5s-11.834 -31.5 -15.501 -51.5s-5.83398 -36.667 -6.50098 -50
s-1 -29 -1 -47v-913zM352 1764l331 331l331 -331l-60 -62l-90 92c-64 64 -124.333 96 -181 96c-58 0 -118.333 -32 -181 -96l-90 -92z" />
    <glyph glyph-name="Otilde" unicode="&#xd5;" horiz-adv-x="1450" 
d="M85 307v1007c0 94.667 39.167 169.5 117.5 224.5s181.5 82.5 309.5 82.5h341c128 0 231.167 -27.5 309.5 -82.5s117.5 -129.833 117.5 -224.5v-1007c0 -94.667 -39.167 -169.5 -117.5 -224.5s-181.5 -82.5 -309.5 -82.5h-341c-128 0 -231.167 27.5 -309.5 82.5
s-117.5 129.833 -117.5 224.5zM130 1902l182.999 166c35.333 31.333 77 47 125 47c71.333 0 143 -32.333 215 -97l119 -107c41.333 -36.667 81 -55 119 -55c38.667 0 80 20.333 124 61l103 92l118 -107l-124 -112c-35.333 -31.333 -77 -47 -125 -47
c-71.333 0 -143 32.333 -215 97l-119 107c-41.333 36.667 -81 55 -119 55c-37.333 0 -78.666 -20.333 -123.999 -61l-162 -146zM340.999 354c0 -18 0.333008 -33.667 1 -47s2.83398 -30 6.50098 -50s8.83398 -37.167 15.501 -51.5s16.334 -29.5 29.001 -45.5
s27.667 -29.167 45 -39.5s39.666 -18.833 66.999 -25.5s58 -10 92 -10h171c34 0 64.667 3.33301 92 10s49.666 15.167 66.999 25.5s32.333 23.5 45 39.5s22.334 31.167 29.001 45.5s11.834 31.5 15.501 51.5s5.83398 36.667 6.50098 50s1 29 1 47v913
c0 18 -0.333008 33.667 -1 47s-2.83398 30 -6.50098 50s-8.83398 37.167 -15.501 51.5s-16.334 29.5 -29.001 45.5s-27.667 29.167 -45 39.5s-39.666 18.833 -66.999 25.5s-58 10 -92 10h-171c-34 0 -64.667 -3.33301 -92 -10s-49.666 -15.167 -66.999 -25.5
s-32.333 -23.5 -45 -39.5s-22.334 -31.167 -29.001 -45.5s-11.834 -31.5 -15.501 -51.5s-5.83398 -36.667 -6.50098 -50s-1 -29 -1 -47v-913z" />
    <glyph glyph-name="Odieresis" unicode="&#xd6;" horiz-adv-x="1450" 
d="M85 307v1007c0 94.667 39.167 169.5 117.5 224.5s181.5 82.5 309.5 82.5h341c128 0 231.167 -27.5 309.5 -82.5s117.5 -129.833 117.5 -224.5v-1007c0 -94.667 -39.167 -169.5 -117.5 -224.5s-181.5 -82.5 -309.5 -82.5h-341c-128 0 -231.167 27.5 -309.5 82.5
s-117.5 129.833 -117.5 224.5zM299 1785v85.999c0.666992 10 1.66699 17.167 3 21.5s6.83301 8.83301 16.5 13.5s24.5 7 44.5 7h128c20 0 34.833 -2 44.5 -6s15.167 -8.16699 16.5 -12.5s2.33301 -12.166 3 -23.499v-86c0 -16.667 -3.33301 -27.834 -10 -33.501
s-24.667 -8.5 -54 -8.5h-128c-28.667 0 -46.5 2.83301 -53.5 8.5s-10.5 16.834 -10.5 33.501zM341 353.999c0 -18 0.333008 -33.667 1 -47s2.83398 -30 6.50098 -50s8.83398 -37.167 15.501 -51.5s16.334 -29.5 29.001 -45.5s27.667 -29.167 45 -39.5
s39.666 -18.833 66.999 -25.5s58 -10 92 -10h171c34 0 64.667 3.33301 92 10s49.666 15.167 66.999 25.5s32.333 23.5 45 39.5s22.334 31.167 29.001 45.5s11.834 31.5 15.501 51.5s5.83398 36.667 6.50098 50s1 29 1 47v913c0 18 -0.333008 33.667 -1 47
s-2.83398 30 -6.50098 50s-8.83398 37.167 -15.501 51.5s-16.334 29.5 -29.001 45.5s-27.667 29.167 -45 39.5s-39.666 18.833 -66.999 25.5s-58 10 -92 10h-171c-34 0 -64.667 -3.33301 -92 -10s-49.666 -15.167 -66.999 -25.5s-32.333 -23.5 -45 -39.5
s-22.334 -31.167 -29.001 -45.5s-11.834 -31.5 -15.501 -51.5s-5.83398 -36.667 -6.50098 -50s-1 -29 -1 -47v-913zM811 1785v85.999c0.666992 10 1.66699 17.167 3 21.5s6.83301 8.83301 16.5 13.5s24.5 7 44.5 7h128c20 0 34.833 -2 44.5 -6s15.167 -8.16699 16.5 -12.5
s2.33301 -12.166 3 -23.499v-86c0 -16.667 -3.33301 -27.834 -10 -33.501s-24.667 -8.5 -54 -8.5h-128c-28.667 0 -46.5 2.83301 -53.5 8.5s-10.5 16.834 -10.5 33.501z" />
    <glyph glyph-name="multiply" unicode="&#xd7;" 
d="M169 484l241 241l-241 241l59 60l241 -239l241 239l60 -60l-239 -241l239 -241l-60 -59l-241 241l-241 -241z" />
    <glyph glyph-name="Oslash" unicode="&#xd8;" horiz-adv-x="1450" 
d="M85 307v1007c0 94.667 39.167 169.5 117.5 224.5s181.5 82.5 309.5 82.5h341c72.667 0 137.667 -9 195 -27l61 113h128l-87 -160c86.667 -56 130 -133.667 130 -233v-1007c0 -94.667 -39.167 -169.5 -117.5 -224.5s-181.5 -82.5 -309.5 -82.5h-341
c-72 0 -136.667 9 -194 27l-62 -112h-128l87 159c-86.667 56 -130 133.667 -130 233zM341 354c0 -10 0.668945 -25.667 2.00195 -47l631 1153c-41.333 50.667 -110 76 -206 76h-171c-34 0 -64.667 -3.33301 -92 -10s-49.666 -15.167 -66.999 -25.5s-32.333 -23.5 -45 -39.5
s-22.334 -31.167 -29.001 -45.5s-11.834 -31.5 -15.501 -51.5s-5.83398 -36.667 -6.50098 -50s-1 -29 -1 -47v-913zM391.002 161c41.333 -50.667 109.998 -76 205.998 -76h171c34 0 64.667 3.33301 92 10s49.666 15.167 66.999 25.5s32.333 23.5 45 39.5
s22.334 31.167 29.001 45.5s11.834 31.5 15.501 51.5s5.83398 36.667 6.50098 50s1 29 1 47v913c0 20.667 -0.333008 36.667 -1 48z" />
    <glyph glyph-name="Ugrave" unicode="&#xd9;" horiz-adv-x="1450" 
d="M85 307l-0.000976562 1314h256v-1267c0 -18 0.333008 -33.667 1 -47s2.83398 -30 6.50098 -50s8.83398 -37.167 15.501 -51.5s16.334 -29.5 29.001 -45.5s27.667 -29.167 45 -39.5s39.666 -18.833 66.999 -25.5s58 -10 92 -10h256c19.333 0 33.833 0.166992 43.5 0.5
s22.5 1.16602 38.5 2.49902s28.167 3.83301 36.5 7.5s17.166 8.66699 26.499 15s16 14.5 20 24.5s6 22 6 36v1450h256v-1621h-768c-128 0 -231.167 27.5 -309.5 82.5s-117.5 129.833 -117.5 224.5zM542.999 1948l-0.000976562 63.998c0 10.667 0.833008 18.334 2.5 23.001
s7.33398 9 17.001 13s24.5 6 44.5 6h128c15.333 0 27.666 -1 36.999 -3s15.833 -5.5 19.5 -10.5s5.83398 -9.16699 6.50098 -12.5s1 -8.66602 1 -15.999v-22c0 -16.667 -3.5 -27.834 -10.5 -33.501s-24.833 -8.5 -53.5 -8.5c-24 0 -36 -7.33301 -36 -22
c0 -9.33301 5.66699 -19.666 17 -30.999l106 -80l-47 -72l-204 149c-18 14 -27.333 32.667 -28 56z" />
    <glyph glyph-name="Uacute" unicode="&#xda;" horiz-adv-x="1450" 
d="M85 307l-0.000976562 1314h256v-1267c0 -18 0.333008 -33.667 1 -47s2.83398 -30 6.50098 -50s8.83398 -37.167 15.501 -51.5s16.334 -29.5 29.001 -45.5s27.667 -29.167 45 -39.5s39.666 -18.833 66.999 -25.5s58 -10 92 -10h256c19.333 0 33.833 0.166992 43.5 0.5
s22.5 1.16602 38.5 2.49902s28.167 3.83301 36.5 7.5s17.166 8.66699 26.499 15s16 14.5 20 24.5s6 22 6 36v1450h256v-1621h-768c-128 0 -231.167 27.5 -309.5 82.5s-117.5 129.833 -117.5 224.5zM542.999 1815l104.999 80.002c12 12 18 22.333 18 31
c0 14.667 -12 22 -36 22c-28.667 0 -46.5 2.83301 -53.5 8.5s-10.5 16.834 -10.5 33.501v22c0 7.33301 0.333008 12.666 1 15.999s2.83398 7.5 6.50098 12.5s10.167 8.5 19.5 10.5s21.666 3 36.999 3h128c20 0 34.833 -2 44.5 -6s15.334 -8.33301 17.001 -13
s2.5 -12.334 2.5 -23.001v-64c-0.666992 -22.667 -10 -41.334 -28 -56.001l-205 -149z" />
    <glyph glyph-name="Ucircumflex" unicode="&#xdb;" horiz-adv-x="1450" 
d="M85 307l-0.000976562 1314h256v-1267c0 -18 0.333008 -33.667 1 -47s2.83398 -30 6.50098 -50s8.83398 -37.167 15.501 -51.5s16.334 -29.5 29.001 -45.5s27.667 -29.167 45 -39.5s39.666 -18.833 66.999 -25.5s58 -10 92 -10h256c19.333 0 33.833 0.166992 43.5 0.5
s22.5 1.16602 38.5 2.49902s28.167 3.83301 36.5 7.5s17.166 8.66699 26.499 15s16 14.5 20 24.5s6 22 6 36v1450h256v-1621h-768c-128 0 -231.167 27.5 -309.5 82.5s-117.5 129.833 -117.5 224.5zM351.999 1768l331 331l331 -331l-60 -62l-90 92
c-64 64 -124.333 96 -181 96c-58 0 -118.333 -32 -181 -96l-90 -92z" />
    <glyph glyph-name="Udieresis" unicode="&#xdc;" horiz-adv-x="1450" 
d="M85 307l-0.000976562 1314h256v-1267c0 -18 0.333008 -33.667 1 -47s2.83398 -30 6.50098 -50s8.83398 -37.167 15.501 -51.5s16.334 -29.5 29.001 -45.5s27.667 -29.167 45 -39.5s39.666 -18.833 66.999 -25.5s58 -10 92 -10h256c19.333 0 33.833 0.166992 43.5 0.5
s22.5 1.16602 38.5 2.49902s28.167 3.83301 36.5 7.5s17.166 8.66699 26.499 15s16 14.5 20 24.5s6 22 6 36v1450h256v-1621h-768c-128 0 -231.167 27.5 -309.5 82.5s-117.5 129.833 -117.5 224.5zM298.999 1749v85.999c0.666992 10 1.66699 17.167 3 21.5
s6.83301 8.83301 16.5 13.5s24.5 7 44.5 7h128c20 0 34.833 -2 44.5 -6s15.167 -8.16699 16.5 -12.5s2.33301 -12.166 3 -23.499v-86c0 -16.667 -3.33301 -27.834 -10 -33.501s-24.667 -8.5 -54 -8.5h-128c-28.667 0 -46.5 2.83301 -53.5 8.5s-10.5 16.834 -10.5 33.501z
M810.999 1749v85.999c0.666992 10 1.66699 17.167 3 21.5s6.83301 8.83301 16.5 13.5s24.5 7 44.5 7h128c20 0 34.833 -2 44.5 -6s15.167 -8.16699 16.5 -12.5s2.33301 -12.166 3 -23.499v-86c0 -16.667 -3.33301 -27.834 -10 -33.501s-24.667 -8.5 -54 -8.5h-128
c-28.667 0 -46.5 2.83301 -53.5 8.5s-10.5 16.834 -10.5 33.501z" />
    <glyph glyph-name="Yacute" unicode="&#xdd;" horiz-adv-x="1450" 
d="M85 1621h293l250 -450c35.333 -62.667 74.333 -94 117 -94c44 0 87.667 32 131 96l302 448h102l-469 -683v-938h-256v778l-144 259zM543 1815l104.999 80.002c12 12 18 22.333 18 31c0 14.667 -12 22 -36 22c-28.667 0 -46.5 2.83301 -53.5 8.5
s-10.5 16.834 -10.5 33.501v22c0 7.33301 0.333008 12.666 1 15.999s2.83398 7.5 6.50098 12.5s10.167 8.5 19.5 10.5s21.666 3 36.999 3h128c20 0 34.833 -2 44.5 -6s15.334 -8.33301 17.001 -13s2.5 -12.334 2.5 -23.001v-64c-0.666992 -22.667 -10 -41.334 -28 -56.001
l-205 -149z" />
    <glyph glyph-name="Thorn" unicode="&#xde;" 
d="M85 0v427v853v341h256v-341h427c128 0 231.167 -27.5 309.5 -82.5s117.5 -129.833 117.5 -224.5v-239c0 -94.667 -39.167 -169.5 -117.5 -224.5s-181.5 -82.5 -309.5 -82.5h-427v-427h-256zM341 512l341.999 -0.000976562c34 0 64.667 3.33301 92 10
s49.666 15.167 66.999 25.5s32.333 23.5 45 39.5s22.334 31.167 29.001 45.5s11.834 31.5 15.501 51.5s5.83398 36.667 6.50098 50s1 29 1 47v145c0 18 -0.333008 33.667 -1 47s-2.83398 30 -6.50098 50s-8.83398 37.167 -15.501 51.5s-16.334 29.5 -29.001 45.5
s-27.667 29.167 -45 39.5s-39.666 18.833 -66.999 25.5s-58 10 -92 10h-171c-19.333 0 -33.833 -0.166992 -43.5 -0.5s-22.5 -1.16602 -38.5 -2.49902s-28.167 -3.83301 -36.5 -7.5s-17.166 -8.66699 -26.499 -15s-16 -14.5 -20 -24.5s-6 -22 -6 -36v-597z" />
    <glyph glyph-name="germandbls" unicode="&#xdf;" horiz-adv-x="1621" 
d="M85 0v1314c0 94.667 39.167 169.5 117.5 224.5s181.5 82.5 309.5 82.5h341c128 0 231.167 -27.5 309.5 -82.5s117.5 -129.833 117.5 -224.5c0 -35.333 -5 -65.5 -15 -90.5s-23.167 -44.833 -39.5 -59.5s-38 -26.167 -65 -34.5s-54 -13.833 -81 -16.5s-59.833 -4 -98.5 -4
c-34.667 0 -65.334 -2 -92.001 -6s-49 -9.16699 -67 -15.5s-33.167 -15 -45.5 -26s-21.833 -21.5 -28.5 -31.5s-11.834 -22.667 -15.501 -38s-5.83398 -28.666 -6.50098 -39.999s-1 -25.666 -1 -42.999c0 -16 0.333008 -29.667 1 -41s2.83398 -25.333 6.50098 -42
s8.83398 -31 15.501 -43s16.334 -24.667 29.001 -38s27.834 -24.166 45.501 -32.499s40 -15.333 67 -21s57.5 -8.5 91.5 -8.5h64c63.333 0 118.333 -4.66699 165 -14s85.334 -22.166 116.001 -38.499s55.334 -37.666 74.001 -63.999s31.834 -54.833 39.501 -85.5
s11.5 -66 11.5 -106v-68c0 -94.667 -39.167 -169.5 -117.5 -224.5s-181.5 -82.5 -309.5 -82.5h-467v85h382c46.667 0 87 6.66699 121 20s59.333 28.666 76 45.999s29.834 39 39.501 65s15.334 47.167 17.001 63.5s2.5 34.166 2.5 53.499c0 176 -85.333 264 -256 264h-43
c-128.667 0 -228.334 24.167 -299.001 72.5s-106 119.5 -106 213.5c0 96 36.167 172 108.5 228s171.166 84 296.499 84c47.333 0 80.5 6.33301 99.5 19s28.5 30.334 28.5 53.001c0 18 -0.333008 33.667 -1 47s-2.83398 30 -6.50098 50s-8.83398 37.167 -15.501 51.5
s-16.334 29.5 -29.001 45.5s-27.667 29.167 -45 39.5s-39.666 18.833 -66.999 25.5s-58 10 -92 10h-171c-34 0 -64.667 -3.33301 -92 -10s-49.666 -15.167 -66.999 -25.5s-32.333 -23.5 -45 -39.5s-22.334 -31.167 -29.001 -45.5s-11.834 -31.5 -15.501 -51.5
s-5.83398 -36.667 -6.50098 -50s-1 -29 -1 -47v-1267h-256z" />
    <glyph glyph-name="agrave" unicode="&#xe0;" 
d="M85 307l0.00195312 154.001c0 94.667 39.167 169.5 117.5 224.5s181.5 82.5 309.5 82.5h427v73c0 18 -0.333008 33.5 -1 46.5s-2.83398 29.5 -6.50098 49.5s-8.83398 37.167 -15.501 51.5s-16.334 29.666 -29.001 45.999s-27.667 29.5 -45 39.5
s-39.666 18.333 -66.999 25s-58 10 -92 10h-427v86h512c128 0 231.167 -27.5 309.5 -82.5s117.5 -130.167 117.5 -225.5v-887h-683c-128 0 -231.167 27.5 -309.5 82.5s-117.5 129.833 -117.5 224.5zM341.002 354.001c0 -18 0.333008 -33.667 1 -47s2.83398 -30 6.50098 -50
s8.83398 -37.167 15.501 -51.5s16.334 -29.5 29.001 -45.5s27.667 -29.167 45 -39.5s39.666 -18.833 66.999 -25.5s58 -10 92 -10h342v598h-342c-34 0 -64.667 -3.33301 -92 -10s-49.666 -15.167 -66.999 -25.5s-32.333 -23.5 -45 -39.5s-22.334 -31.167 -29.001 -45.5
s-11.834 -31.5 -15.501 -51.5s-5.83398 -36.667 -6.50098 -50s-1 -29 -1 -47v-60zM500.002 1515l-0.000976562 63.998c0 10.667 0.833008 18.334 2.5 23.001s7.33398 9 17.001 13s24.5 6 44.5 6h128c15.333 0 27.666 -1 36.999 -3s15.833 -5.5 19.5 -10.5
s5.83398 -9.16699 6.50098 -12.5s1 -8.66602 1 -15.999v-22c0 -16.667 -3.5 -27.834 -10.5 -33.501s-24.833 -8.5 -53.5 -8.5c-24 0 -36 -7.33301 -36 -22c0 -9.33301 5.66699 -19.666 17 -30.999l106 -80l-47 -72l-204 149c-18 14 -27.333 32.667 -28 56z" />
    <glyph glyph-name="aacute" unicode="&#xe1;" 
d="M85 307l0.00195312 154.001c0 94.667 39.167 169.5 117.5 224.5s181.5 82.5 309.5 82.5h427v73c0 18 -0.333008 33.5 -1 46.5s-2.83398 29.5 -6.50098 49.5s-8.83398 37.167 -15.501 51.5s-16.334 29.666 -29.001 45.999s-27.667 29.5 -45 39.5
s-39.666 18.333 -66.999 25s-58 10 -92 10h-427v86h512c128 0 231.167 -27.5 309.5 -82.5s117.5 -130.167 117.5 -225.5v-887h-683c-128 0 -231.167 27.5 -309.5 82.5s-117.5 129.833 -117.5 224.5zM341.002 354.001c0 -18 0.333008 -33.667 1 -47s2.83398 -30 6.50098 -50
s8.83398 -37.167 15.501 -51.5s16.334 -29.5 29.001 -45.5s27.667 -29.167 45 -39.5s39.666 -18.833 66.999 -25.5s58 -10 92 -10h342v598h-342c-34 0 -64.667 -3.33301 -92 -10s-49.666 -15.167 -66.999 -25.5s-32.333 -23.5 -45 -39.5s-22.334 -31.167 -29.001 -45.5
s-11.834 -31.5 -15.501 -51.5s-5.83398 -36.667 -6.50098 -50s-1 -29 -1 -47v-60zM501.002 1352l104.999 80.002c12 12 18 22.333 18 31c0 14.667 -12 22 -36 22c-28.667 0 -46.5 2.83301 -53.5 8.5s-10.5 16.834 -10.5 33.501v22c0 7.33301 0.333008 12.666 1 15.999
s2.83398 7.5 6.50098 12.5s10.167 8.5 19.5 10.5s21.666 3 36.999 3h128c20 0 34.833 -2 44.5 -6s15.334 -8.33301 17.001 -13s2.5 -12.334 2.5 -23.001v-64c-0.666992 -22.667 -10 -41.334 -28 -56.001l-205 -149z" />
    <glyph glyph-name="acircumflex" unicode="&#xe2;" 
d="M85 307l0.00195312 154.001c0 94.667 39.167 169.5 117.5 224.5s181.5 82.5 309.5 82.5h427v73c0 18 -0.333008 33.5 -1 46.5s-2.83398 29.5 -6.50098 49.5s-8.83398 37.167 -15.501 51.5s-16.334 29.666 -29.001 45.999s-27.667 29.5 -45 39.5
s-39.666 18.333 -66.999 25s-58 10 -92 10h-427v86h512c128 0 231.167 -27.5 309.5 -82.5s117.5 -130.167 117.5 -225.5v-887h-683c-128 0 -231.167 27.5 -309.5 82.5s-117.5 129.833 -117.5 224.5zM309.002 1342l331 331l331 -331l-60 -62l-90 92
c-64 64 -124.333 96 -181 96c-58 0 -118.333 -32 -181 -96l-90 -92zM341.002 354.001c0 -18 0.333008 -33.667 1 -47s2.83398 -30 6.50098 -50s8.83398 -37.167 15.501 -51.5s16.334 -29.5 29.001 -45.5s27.667 -29.167 45 -39.5s39.666 -18.833 66.999 -25.5s58 -10 92 -10
h342v598h-342c-34 0 -64.667 -3.33301 -92 -10s-49.666 -15.167 -66.999 -25.5s-32.333 -23.5 -45 -39.5s-22.334 -31.167 -29.001 -45.5s-11.834 -31.5 -15.501 -51.5s-5.83398 -36.667 -6.50098 -50s-1 -29 -1 -47v-60z" />
    <glyph glyph-name="atilde" unicode="&#xe3;" 
d="M85 307l0.00195312 154.001c0 94.667 39.167 169.5 117.5 224.5s181.5 82.5 309.5 82.5h427v73c0 18 -0.333008 33.5 -1 46.5s-2.83398 29.5 -6.50098 49.5s-8.83398 37.167 -15.501 51.5s-16.334 29.666 -29.001 45.999s-27.667 29.5 -45 39.5
s-39.666 18.333 -66.999 25s-58 10 -92 10h-427v86h512c128 0 231.167 -27.5 309.5 -82.5s117.5 -130.167 117.5 -225.5v-887h-683c-128 0 -231.167 27.5 -309.5 82.5s-117.5 129.833 -117.5 224.5zM87.002 1475l182.999 166c35.333 31.333 77 47 125 47
c71.333 0 143 -32.333 215 -97l119 -107c41.333 -36.667 81 -55 119 -55c38.667 0 80 20.333 124 61l103 92l118 -107l-124 -112c-35.333 -31.333 -77 -47 -125 -47c-71.333 0 -143 32.333 -215 97l-119 107c-41.333 36.667 -81 55 -119 55
c-37.333 0 -78.666 -20.333 -123.999 -61l-162 -146zM341.001 354.001c0 -18 0.333008 -33.667 1 -47s2.83398 -30 6.50098 -50s8.83398 -37.167 15.501 -51.5s16.334 -29.5 29.001 -45.5s27.667 -29.167 45 -39.5s39.666 -18.833 66.999 -25.5s58 -10 92 -10h342v598h-342
c-34 0 -64.667 -3.33301 -92 -10s-49.666 -15.167 -66.999 -25.5s-32.333 -23.5 -45 -39.5s-22.334 -31.167 -29.001 -45.5s-11.834 -31.5 -15.501 -51.5s-5.83398 -36.667 -6.50098 -50s-1 -29 -1 -47v-60z" />
    <glyph glyph-name="adieresis" unicode="&#xe4;" 
d="M85 307l0.00195312 154.001c0 94.667 39.167 169.5 117.5 224.5s181.5 82.5 309.5 82.5h427v73c0 18 -0.333008 33.5 -1 46.5s-2.83398 29.5 -6.50098 49.5s-8.83398 37.167 -15.501 51.5s-16.334 29.666 -29.001 45.999s-27.667 29.5 -45 39.5
s-39.666 18.333 -66.999 25s-58 10 -92 10h-427v86h512c128 0 231.167 -27.5 309.5 -82.5s117.5 -130.167 117.5 -225.5v-887h-683c-128 0 -231.167 27.5 -309.5 82.5s-117.5 129.833 -117.5 224.5zM256.002 1493v85.999c0.666992 10 1.66699 17.167 3 21.5
s6.83301 8.83301 16.5 13.5s24.5 7 44.5 7h128c20 0 34.833 -2 44.5 -6s15.167 -8.16699 16.5 -12.5s2.33301 -12.166 3 -23.499v-86c0 -16.667 -3.33301 -27.834 -10 -33.501s-24.667 -8.5 -54 -8.5h-128c-28.667 0 -46.5 2.83301 -53.5 8.5s-10.5 16.834 -10.5 33.501z
M341.002 354c0 -18 0.333008 -33.667 1 -47s2.83398 -30 6.50098 -50s8.83398 -37.167 15.501 -51.5s16.334 -29.5 29.001 -45.5s27.667 -29.167 45 -39.5s39.666 -18.833 66.999 -25.5s58 -10 92 -10h342v598h-342c-34 0 -64.667 -3.33301 -92 -10
s-49.666 -15.167 -66.999 -25.5s-32.333 -23.5 -45 -39.5s-22.334 -31.167 -29.001 -45.5s-11.834 -31.5 -15.501 -51.5s-5.83398 -36.667 -6.50098 -50s-1 -29 -1 -47v-60zM768.002 1493v85.999c0.666992 10 1.66699 17.167 3 21.5s6.83301 8.83301 16.5 13.5
s24.5 7 44.5 7h128c20 0 34.833 -2 44.5 -6s15.167 -8.16699 16.5 -12.5s2.33301 -12.166 3 -23.499v-86c0 -16.667 -3.33301 -27.834 -10 -33.501s-24.667 -8.5 -54 -8.5h-128c-28.667 0 -46.5 2.83301 -53.5 8.5s-10.5 16.834 -10.5 33.501z" />
    <glyph glyph-name="aring" unicode="&#xe5;" 
d="M85 307l0.00195312 154.001c0 94.667 39.167 169.5 117.5 224.5s181.5 82.5 309.5 82.5h427v73c0 18 -0.333008 33.5 -1 46.5s-2.83398 29.5 -6.50098 49.5s-8.83398 37.167 -15.501 51.5s-16.334 29.666 -29.001 45.999s-27.667 29.5 -45 39.5
s-39.666 18.333 -66.999 25s-58 10 -92 10h-427v86h512c128 0 231.167 -27.5 309.5 -82.5s117.5 -130.167 117.5 -225.5v-887h-683c-128 0 -231.167 27.5 -309.5 82.5s-117.5 129.833 -117.5 224.5zM341.002 354.001c0 -18 0.333008 -33.667 1 -47s2.83398 -30 6.50098 -50
s8.83398 -37.167 15.501 -51.5s16.334 -29.5 29.001 -45.5s27.667 -29.167 45 -39.5s39.666 -18.833 66.999 -25.5s58 -10 92 -10h342v598h-342c-34 0 -64.667 -3.33301 -92 -10s-49.666 -15.167 -66.999 -25.5s-32.333 -23.5 -45 -39.5s-22.334 -31.167 -29.001 -45.5
s-11.834 -31.5 -15.501 -51.5s-5.83398 -36.667 -6.50098 -50s-1 -29 -1 -47v-60zM441.002 1427v54.001c0 45.333 15.167 81.166 45.5 107.499s71.5 39.5 123.5 39.5h51c53.333 0 96.5 -13.167 129.5 -39.5s49.5 -62.166 49.5 -107.499v-54c0 -44 -17.333 -79.5 -52 -106.5
s-77 -40.5 -127 -40.5h-51c-52 0 -93.167 13.167 -123.5 39.5s-45.5 62.166 -45.5 107.499zM503.002 1451c0 -16.667 1 -30.6709 3 -42.0039s6.5 -24.666 13.5 -39.999s19.333 -27.166 37 -35.499s40.167 -12.5 67.5 -12.5h22c22.667 0 42 3.16699 58 9.5s28 13.5 36 21.5
s14.167 18.833 18.5 32.5s6.83301 24.834 7.5 33.501s1 19.667 1 33v8c0 12.667 -0.333008 23.334 -1 32.001s-3.16699 19.667 -7.5 33s-10.5 24 -18.5 32s-20 15.167 -36 21.5s-35.333 9.5 -58 9.5h-22c-27.333 0 -49.833 -4.16699 -67.5 -12.5s-30 -20 -37 -35
s-11.5 -28.167 -13.5 -39.5s-3 -25 -3 -41v-8z" />
    <glyph glyph-name="ae" unicode="&#xe6;" horiz-adv-x="2218" 
d="M85 307l0.00195312 154.001c0 94.667 39.167 169.5 117.5 224.5s181.5 82.5 309.5 82.5h427v73c0 18 -0.333008 33.5 -1 46.5s-2.83398 29.5 -6.50098 49.5s-8.83398 37.167 -15.501 51.5s-16.334 29.666 -29.001 45.999s-27.667 29.5 -45 39.5
s-39.666 18.333 -66.999 25s-58 10 -92 10h-427v86h512c122 0 221.667 -25.333 299 -76c76.667 50.667 176 76 298 76h256c128 0 231.167 -27.5 309.5 -82.5s117.5 -130.167 117.5 -225.5v-204h-853v-329c0 -26.667 0.833008 -49.167 2.5 -67.5s7.16699 -41.333 16.5 -69
s22.5 -50.167 39.5 -67.5s42.333 -32.5 76 -45.5s74.167 -19.5 121.5 -19.5h554v-85h-1493c-128 0 -231.167 27.5 -309.5 82.5s-117.5 129.833 -117.5 224.5zM341.002 354.001c0 -18 0.333008 -33.667 1 -47s2.83398 -30 6.50098 -50s8.83398 -37.167 15.501 -51.5
s16.334 -29.5 29.001 -45.5s27.667 -29.167 45 -39.5s39.666 -18.833 66.999 -25.5s58 -10 92 -10h342v222v376h-342c-34 0 -64.667 -3.33301 -92 -10s-49.666 -15.167 -66.999 -25.5s-32.333 -23.5 -45 -39.5s-22.334 -31.167 -29.001 -45.5s-11.834 -31.5 -15.501 -51.5
s-5.83398 -36.667 -6.50098 -50s-1 -29 -1 -47v-60zM1195 768.001l597.004 0.000976562v73c0 18 -0.333008 33.5 -1 46.5s-2.83398 29.5 -6.50098 49.5s-8.83398 37.167 -15.501 51.5s-16.334 29.666 -29.001 45.999s-27.667 29.5 -45 39.5s-39.666 18.333 -66.999 25
s-58 10 -92 10h-85c-34 0 -64.667 -3.33301 -92 -10s-49.833 -15 -67.5 -25s-32.834 -23.167 -45.501 -39.5s-22.167 -31.5 -28.5 -45.5s-11.333 -31.167 -15 -51.5s-5.83398 -37 -6.50098 -50s-1 -28.5 -1 -46.5v-73z" />
    <glyph glyph-name="ccedilla" unicode="&#xe7;" horiz-adv-x="1280" 
d="M85 307l0.000976562 580.001c0 95.333 39.167 170.5 117.5 225.5s181.5 82.5 309.5 82.5h597v-86h-512c-34 0 -64.667 -3.33301 -92 -10s-49.666 -15 -66.999 -25s-32.333 -23.167 -45 -39.5s-22.334 -31.666 -29.001 -45.999s-11.834 -31.5 -15.501 -51.5
s-5.83398 -36.5 -6.50098 -49.5s-1 -28.5 -1 -46.5v-487c0 -18 0.333008 -33.667 1 -47s2.83398 -30 6.50098 -50s8.83398 -37.167 15.501 -51.5s16.334 -29.5 29.001 -45.5s27.667 -29.167 45 -39.5s39.666 -18.833 66.999 -25.5s58 -10 92 -10h512v-85h-426l158 -115
c17.333 -14.667 26.333 -33.334 27 -56.001v-128c0 -10.667 -0.833008 -18.334 -2.5 -23.001s-7.33398 -9 -17.001 -13s-24.5 -6 -44.5 -6h-128c-20 0 -34.833 2.33301 -44.5 7s-15.167 9.16699 -16.5 13.5s-2.33301 11.5 -3 21.5v86c0 16.667 3.5 27.834 10.5 33.501
s24.833 8.5 53.5 8.5c24 0 36 7.33301 36 22c0 9.33301 -5.66699 19.666 -17 30.999l-160 118h-23c-128 0 -231.167 27.5 -309.5 82.5s-117.5 129.833 -117.5 224.5z" />
    <glyph glyph-name="egrave" unicode="&#xe8;" 
d="M85 307l-0.00195312 580c0 95.333 39.167 170.5 117.5 225.5s181.5 82.5 309.5 82.5h256c128 0 231.167 -27.5 309.5 -82.5s117.5 -130.167 117.5 -225.5v-247h-854v-286c0 -18 0.333008 -33.667 1 -47s2.83398 -30 6.50098 -50s8.83398 -37.167 15.501 -51.5
s16.334 -29.5 29.001 -45.5s27.667 -29.167 45 -39.5s39.666 -18.833 66.999 -25.5s58 -10 92 -10h555v-85h-640c-128 0 -231.167 27.5 -309.5 82.5s-117.5 129.833 -117.5 224.5zM340.998 725h598.004v116c0 18 -0.333008 33.5 -1 46.5s-2.83398 29.5 -6.50098 49.5
s-8.83398 37.167 -15.501 51.5s-16.334 29.666 -29.001 45.999s-27.667 29.5 -45 39.5s-39.666 18.333 -66.999 25s-58 10 -92 10h-86c-34 0 -64.667 -3.33301 -92 -10s-49.666 -15 -66.999 -25s-32.333 -23.167 -45 -39.5s-22.334 -31.666 -29.001 -45.999
s-11.834 -31.5 -15.501 -51.5s-5.83398 -36.5 -6.50098 -49.5s-1 -28.5 -1 -46.5v-116zM500.002 1515l-0.000976562 63.998c0 10.667 0.833008 18.334 2.5 23.001s7.33398 9 17.001 13s24.5 6 44.5 6h128c15.333 0 27.666 -1 36.999 -3s15.833 -5.5 19.5 -10.5
s5.83398 -9.16699 6.50098 -12.5s1 -8.66602 1 -15.999v-22c0 -16.667 -3.5 -27.834 -10.5 -33.501s-24.833 -8.5 -53.5 -8.5c-24 0 -36 -7.33301 -36 -22c0 -9.33301 5.66699 -19.666 17 -30.999l106 -80l-47 -72l-204 149c-18 14 -27.333 32.667 -28 56z" />
    <glyph glyph-name="eacute" unicode="&#xe9;" 
d="M85 307l-0.00195312 580c0 95.333 39.167 170.5 117.5 225.5s181.5 82.5 309.5 82.5h256c128 0 231.167 -27.5 309.5 -82.5s117.5 -130.167 117.5 -225.5v-247h-854v-286c0 -18 0.333008 -33.667 1 -47s2.83398 -30 6.50098 -50s8.83398 -37.167 15.501 -51.5
s16.334 -29.5 29.001 -45.5s27.667 -29.167 45 -39.5s39.666 -18.833 66.999 -25.5s58 -10 92 -10h555v-85h-640c-128 0 -231.167 27.5 -309.5 82.5s-117.5 129.833 -117.5 224.5zM340.998 725h598.004v116c0 18 -0.333008 33.5 -1 46.5s-2.83398 29.5 -6.50098 49.5
s-8.83398 37.167 -15.501 51.5s-16.334 29.666 -29.001 45.999s-27.667 29.5 -45 39.5s-39.666 18.333 -66.999 25s-58 10 -92 10h-86c-34 0 -64.667 -3.33301 -92 -10s-49.666 -15 -66.999 -25s-32.333 -23.167 -45 -39.5s-22.334 -31.666 -29.001 -45.999
s-11.834 -31.5 -15.501 -51.5s-5.83398 -36.5 -6.50098 -49.5s-1 -28.5 -1 -46.5v-116zM501.002 1382l104.999 80.002c12 12 18 22.333 18 31c0 14.667 -12 22 -36 22c-28.667 0 -46.5 2.83301 -53.5 8.5s-10.5 16.834 -10.5 33.501v22c0 7.33301 0.333008 12.666 1 15.999
s2.83398 7.5 6.50098 12.5s10.167 8.5 19.5 10.5s21.666 3 36.999 3h128c20 0 34.833 -2 44.5 -6s15.334 -8.33301 17.001 -13s2.5 -12.334 2.5 -23.001v-64c-0.666992 -22.667 -10 -41.334 -28 -56.001l-205 -149z" />
    <glyph glyph-name="ecircumflex" unicode="&#xea;" 
d="M85 307l-0.00195312 580c0 95.333 39.167 170.5 117.5 225.5s181.5 82.5 309.5 82.5h256c128 0 231.167 -27.5 309.5 -82.5s117.5 -130.167 117.5 -225.5v-247h-854v-286c0 -18 0.333008 -33.667 1 -47s2.83398 -30 6.50098 -50s8.83398 -37.167 15.501 -51.5
s16.334 -29.5 29.001 -45.5s27.667 -29.167 45 -39.5s39.666 -18.833 66.999 -25.5s58 -10 92 -10h555v-85h-640c-128 0 -231.167 27.5 -309.5 82.5s-117.5 129.833 -117.5 224.5zM308.998 1337l331 331l331 -331l-60 -62l-90 92c-64 64 -124.333 96 -181 96
c-58 0 -118.333 -32 -181 -96l-90 -92zM340.998 725h598.004v116c0 18 -0.333008 33.5 -1 46.5s-2.83398 29.5 -6.50098 49.5s-8.83398 37.167 -15.501 51.5s-16.334 29.666 -29.001 45.999s-27.667 29.5 -45 39.5s-39.666 18.333 -66.999 25s-58 10 -92 10h-86
c-34 0 -64.667 -3.33301 -92 -10s-49.666 -15 -66.999 -25s-32.333 -23.167 -45 -39.5s-22.334 -31.666 -29.001 -45.999s-11.834 -31.5 -15.501 -51.5s-5.83398 -36.5 -6.50098 -49.5s-1 -28.5 -1 -46.5v-116z" />
    <glyph glyph-name="edieresis" unicode="&#xeb;" 
d="M85 307l-0.00195312 580c0 95.333 39.167 170.5 117.5 225.5s181.5 82.5 309.5 82.5h256c128 0 231.167 -27.5 309.5 -82.5s117.5 -130.167 117.5 -225.5v-247h-854v-286c0 -18 0.333008 -33.667 1 -47s2.83398 -30 6.50098 -50s8.83398 -37.167 15.501 -51.5
s16.334 -29.5 29.001 -45.5s27.667 -29.167 45 -39.5s39.666 -18.833 66.999 -25.5s58 -10 92 -10h555v-85h-640c-128 0 -231.167 27.5 -309.5 82.5s-117.5 129.833 -117.5 224.5zM255.998 1493v85.999c0.666992 10 1.66699 17.167 3 21.5s6.83301 8.83301 16.5 13.5
s24.5 7 44.5 7h128c20 0 34.833 -2 44.5 -6s15.167 -8.16699 16.5 -12.5s2.33301 -12.166 3 -23.499v-86c0 -16.667 -3.33301 -27.834 -10 -33.501s-24.667 -8.5 -54 -8.5h-128c-28.667 0 -46.5 2.83301 -53.5 8.5s-10.5 16.834 -10.5 33.501zM340.998 724.999h598.004v116
c0 18 -0.333008 33.5 -1 46.5s-2.83398 29.5 -6.50098 49.5s-8.83398 37.167 -15.501 51.5s-16.334 29.666 -29.001 45.999s-27.667 29.5 -45 39.5s-39.666 18.333 -66.999 25s-58 10 -92 10h-86c-34 0 -64.667 -3.33301 -92 -10s-49.666 -15 -66.999 -25
s-32.333 -23.167 -45 -39.5s-22.334 -31.666 -29.001 -45.999s-11.834 -31.5 -15.501 -51.5s-5.83398 -36.5 -6.50098 -49.5s-1 -28.5 -1 -46.5v-116zM768.002 1493v85.999c0.666992 10 1.66699 17.167 3 21.5s6.83301 8.83301 16.5 13.5s24.5 7 44.5 7h128
c20 0 34.833 -2 44.5 -6s15.167 -8.16699 16.5 -12.5s2.33301 -12.166 3 -23.499v-86c0 -16.667 -3.33301 -27.834 -10 -33.501s-24.667 -8.5 -54 -8.5h-128c-28.667 0 -46.5 2.83301 -53.5 8.5s-10.5 16.834 -10.5 33.501z" />
    <glyph glyph-name="igrave" unicode="&#xec;" horiz-adv-x="400" 
d="M85 307l-0.00195312 888h256v-841c0 -18 0.333008 -33.667 1 -47s2.83398 -30 6.50098 -50s8.83398 -37.167 15.501 -51.5s16.334 -29.5 29.001 -45.5s27.667 -29.167 45 -39.5s39.666 -18.833 66.999 -25.5s58 -10 92 -10h86v-85h-171c-128 0 -231.167 27.5 -309.5 82.5
s-117.5 129.833 -117.5 224.5zM86.998 1515l-0.000976562 63.998c0 10.667 0.833008 18.334 2.5 23.001s7.33398 9 17.001 13s24.5 6 44.5 6h128c15.333 0 27.666 -1 36.999 -3s15.833 -5.5 19.5 -10.5s5.83398 -9.16699 6.50098 -12.5s1 -8.66602 1 -15.999v-22
c0 -16.667 -3.5 -27.834 -10.5 -33.501s-24.833 -8.5 -53.5 -8.5c-24 0 -36 -7.33301 -36 -22c0 -9.33301 5.66699 -19.666 17 -30.999l106 -80l-47 -72l-204 149c-18 14 -27.333 32.667 -28 56z" />
    <glyph glyph-name="iacute" unicode="&#xed;" horiz-adv-x="853" 
d="M85 307l-0.00195312 888h256v-841c0 -18 0.333008 -33.667 1 -47s2.83398 -30 6.50098 -50s8.83398 -37.167 15.501 -51.5s16.334 -29.5 29.001 -45.5s27.667 -29.167 45 -39.5s39.666 -18.833 66.999 -25.5s58 -10 92 -10h86v-85h-171c-128 0 -231.167 27.5 -309.5 82.5
s-117.5 129.833 -117.5 224.5zM85.998 1382l104.999 80.002c12 12 18 22.333 18 31c0 14.667 -12 22 -36 22c-28.667 0 -46.5 2.83301 -53.5 8.5s-10.5 16.834 -10.5 33.501v22c0 7.33301 0.333008 12.666 1 15.999s2.83398 7.5 6.50098 12.5s10.167 8.5 19.5 10.5
s21.666 3 36.999 3h128c20 0 34.833 -2 44.5 -6s15.334 -8.33301 17.001 -13s2.5 -12.334 2.5 -23.001v-64c-0.666992 -22.667 -10 -41.334 -28 -56.001l-205 -149z" />
    <glyph glyph-name="icircumflex" unicode="&#xee;" horiz-adv-x="853" 
d="M74 1427l331 331l331 -331l-60 -62l-90 92c-64 64 -124.333 96 -181 96c-58 0 -118.333 -32 -181 -96l-90 -92zM85 307l-0.00195312 888h256v-841c0 -18 0.333008 -33.667 1 -47s2.83398 -30 6.50098 -50s8.83398 -37.167 15.501 -51.5s16.334 -29.5 29.001 -45.5
s27.667 -29.167 45 -39.5s39.666 -18.833 66.999 -25.5s58 -10 92 -10h86v-85h-171c-128 0 -231.167 27.5 -309.5 82.5s-117.5 129.833 -117.5 224.5z" />
    <glyph glyph-name="idieresis" unicode="&#xef;" horiz-adv-x="853" 
d="M0 1493v85.999c0.666992 10 1.66699 17.167 3 21.5s6.83301 8.83301 16.5 13.5s24.5 7 44.5 7h128c20 0 34.833 -2 44.5 -6s15.167 -8.16699 16.5 -12.5s2.33301 -12.166 3 -23.499v-86c0 -16.667 -3.33301 -27.834 -10 -33.501s-24.667 -8.5 -54 -8.5h-128
c-28.667 0 -46.5 2.83301 -53.5 8.5s-10.5 16.834 -10.5 33.501zM85 306.999l-0.00195312 888h256v-841c0 -18 0.333008 -33.667 1 -47s2.83398 -30 6.50098 -50s8.83398 -37.167 15.501 -51.5s16.334 -29.5 29.001 -45.5s27.667 -29.167 45 -39.5
s39.666 -18.833 66.999 -25.5s58 -10 92 -10h86v-85h-171c-128 0 -231.167 27.5 -309.5 82.5s-117.5 129.833 -117.5 224.5zM426.998 1493v85.999c0.666992 10 1.66699 17.167 3 21.5s6.83301 8.83301 16.5 13.5s24.5 7 44.5 7h128c20 0 34.833 -2 44.5 -6
s15.167 -8.16699 16.5 -12.5s2.33301 -12.166 3 -23.499v-86c0 -16.667 -3.33301 -27.834 -10 -33.501s-24.667 -8.5 -54 -8.5h-128c-28.667 0 -46.5 2.83301 -53.5 8.5s-10.5 16.834 -10.5 33.501z" />
    <glyph glyph-name="eth" unicode="&#xf0;" 
d="M85 307v580c0 94.667 39.167 169.667 117.5 225s181.5 83 309.5 83h256c24 0 51.667 -1.66699 83 -5l-100 109l-96 -85l-58 64l96 83l-158 173l94 87l158 -172l158 145l58 -62l-158 -147l258 -282c61.333 -69.333 92 -141.333 92 -216v-580
c0 -94.667 -39.167 -169.5 -117.5 -224.5s-181.5 -82.5 -309.5 -82.5h-256c-128 0 -231.167 27.5 -309.5 82.5s-117.5 129.833 -117.5 224.5zM341 354c0 -18 0.333008 -33.667 1 -47s2.83398 -30 6.50098 -50s8.83398 -37.167 15.501 -51.5s16.334 -29.5 29.001 -45.5
s27.667 -29.167 45 -39.5s39.666 -18.833 66.999 -25.5s58 -10 92 -10h86c34 0 64.667 3.33301 92 10s49.666 15.167 66.999 25.5s32.333 23.5 45 39.5s22.334 31.167 29.001 45.5s11.834 31.5 15.501 51.5s5.83398 36.667 6.50098 50s1 29 1 47v487
c0 18 -0.333008 33.5 -1 46.5s-2.83398 29.5 -6.50098 49.5s-8.83398 37.167 -15.501 51.5s-16.334 29.666 -29.001 45.999s-27.667 29.5 -45 39.5s-39.666 18.333 -66.999 25s-58 10 -92 10h-86c-34 0 -64.667 -3.33301 -92 -10s-49.666 -15 -66.999 -25
s-32.333 -23.167 -45 -39.5s-22.334 -31.666 -29.001 -45.999s-11.834 -31.5 -15.501 -51.5s-5.83398 -36.5 -6.50098 -49.5s-1 -28.5 -1 -46.5v-487z" />
    <glyph glyph-name="ntilde" unicode="&#xf1;" 
d="M85 0l0.000976562 1195h683c128 0 231.167 -27.5 309.5 -82.5s117.5 -130.167 117.5 -225.5v-887h-256v841c0 18 -0.333008 33.5 -1 46.5s-2.83398 29.5 -6.50098 49.5s-8.83398 37.167 -15.501 51.5s-16.334 29.666 -29.001 45.999s-27.667 29.5 -45 39.5
s-39.666 18.333 -66.999 25s-58 10 -92 10h-171c-19.333 0 -33.833 -0.166992 -43.5 -0.5s-22.5 -1.16602 -38.5 -2.49902s-28.167 -3.83301 -36.5 -7.5s-17.166 -8.5 -26.499 -14.5s-16 -14 -20 -24s-6 -22 -6 -36v-1024h-256zM87.001 1475l182.999 166
c35.333 31.333 77 47 125 47c71.333 0 143 -32.333 215 -97l119 -107c41.333 -36.667 81 -55 119 -55c38.667 0 80 20.333 124 61l103 92l118 -107l-124 -112c-35.333 -31.333 -77 -47 -125 -47c-71.333 0 -143 32.333 -215 97l-119 107c-41.333 36.667 -81 55 -119 55
c-37.333 0 -78.666 -20.333 -123.999 -61l-162 -146z" />
    <glyph glyph-name="ograve" unicode="&#xf2;" 
d="M85 307v580c0 95.333 39.167 170.5 117.5 225.5s181.5 82.5 309.5 82.5h256c128 0 231.167 -27.5 309.5 -82.5s117.5 -130.167 117.5 -225.5v-580c0 -94.667 -39.167 -169.5 -117.5 -224.5s-181.5 -82.5 -309.5 -82.5h-256c-128 0 -231.167 27.5 -309.5 82.5
s-117.5 129.833 -117.5 224.5zM341 354c0 -18 0.333008 -33.667 1 -47s2.83398 -30 6.50098 -50s8.83398 -37.167 15.501 -51.5s16.334 -29.5 29.001 -45.5s27.667 -29.167 45 -39.5s39.666 -18.833 66.999 -25.5s58 -10 92 -10h86c34 0 64.667 3.33301 92 10
s49.666 15.167 66.999 25.5s32.333 23.5 45 39.5s22.334 31.167 29.001 45.5s11.834 31.5 15.501 51.5s5.83398 36.667 6.50098 50s1 29 1 47v487c0 18 -0.333008 33.5 -1 46.5s-2.83398 29.5 -6.50098 49.5s-8.83398 37.167 -15.501 51.5s-16.334 29.666 -29.001 45.999
s-27.667 29.5 -45 39.5s-39.666 18.333 -66.999 25s-58 10 -92 10h-86c-34 0 -64.667 -3.33301 -92 -10s-49.666 -15 -66.999 -25s-32.333 -23.167 -45 -39.5s-22.334 -31.666 -29.001 -45.999s-11.834 -31.5 -15.501 -51.5s-5.83398 -36.5 -6.50098 -49.5
s-1 -28.5 -1 -46.5v-487zM500 1515l-0.000976562 63.998c0 10.667 0.833008 18.334 2.5 23.001s7.33398 9 17.001 13s24.5 6 44.5 6h128c15.333 0 27.666 -1 36.999 -3s15.833 -5.5 19.5 -10.5s5.83398 -9.16699 6.50098 -12.5s1 -8.66602 1 -15.999v-22
c0 -16.667 -3.5 -27.834 -10.5 -33.501s-24.833 -8.5 -53.5 -8.5c-24 0 -36 -7.33301 -36 -22c0 -9.33301 5.66699 -19.666 17 -30.999l106 -80l-47 -72l-204 149c-18 14 -27.333 32.667 -28 56z" />
    <glyph glyph-name="oacute" unicode="&#xf3;" 
d="M85 307v580c0 95.333 39.167 170.5 117.5 225.5s181.5 82.5 309.5 82.5h256c128 0 231.167 -27.5 309.5 -82.5s117.5 -130.167 117.5 -225.5v-580c0 -94.667 -39.167 -169.5 -117.5 -224.5s-181.5 -82.5 -309.5 -82.5h-256c-128 0 -231.167 27.5 -309.5 82.5
s-117.5 129.833 -117.5 224.5zM341 354c0 -18 0.333008 -33.667 1 -47s2.83398 -30 6.50098 -50s8.83398 -37.167 15.501 -51.5s16.334 -29.5 29.001 -45.5s27.667 -29.167 45 -39.5s39.666 -18.833 66.999 -25.5s58 -10 92 -10h86c34 0 64.667 3.33301 92 10
s49.666 15.167 66.999 25.5s32.333 23.5 45 39.5s22.334 31.167 29.001 45.5s11.834 31.5 15.501 51.5s5.83398 36.667 6.50098 50s1 29 1 47v487c0 18 -0.333008 33.5 -1 46.5s-2.83398 29.5 -6.50098 49.5s-8.83398 37.167 -15.501 51.5s-16.334 29.666 -29.001 45.999
s-27.667 29.5 -45 39.5s-39.666 18.333 -66.999 25s-58 10 -92 10h-86c-34 0 -64.667 -3.33301 -92 -10s-49.666 -15 -66.999 -25s-32.333 -23.167 -45 -39.5s-22.334 -31.666 -29.001 -45.999s-11.834 -31.5 -15.501 -51.5s-5.83398 -36.5 -6.50098 -49.5
s-1 -28.5 -1 -46.5v-487zM501 1382l104.999 80.002c12 12 18 22.333 18 31c0 14.667 -12 22 -36 22c-28.667 0 -46.5 2.83301 -53.5 8.5s-10.5 16.834 -10.5 33.501v22c0 7.33301 0.333008 12.666 1 15.999s2.83398 7.5 6.50098 12.5s10.167 8.5 19.5 10.5
s21.666 3 36.999 3h128c20 0 34.833 -2 44.5 -6s15.334 -8.33301 17.001 -13s2.5 -12.334 2.5 -23.001v-64c-0.666992 -22.667 -10 -41.334 -28 -56.001l-205 -149z" />
    <glyph glyph-name="ocircumflex" unicode="&#xf4;" 
d="M85 307v580c0 95.333 39.167 170.5 117.5 225.5s181.5 82.5 309.5 82.5h256c128 0 231.167 -27.5 309.5 -82.5s117.5 -130.167 117.5 -225.5v-580c0 -94.667 -39.167 -169.5 -117.5 -224.5s-181.5 -82.5 -309.5 -82.5h-256c-128 0 -231.167 27.5 -309.5 82.5
s-117.5 129.833 -117.5 224.5zM309 1337l331 331l331 -331l-60 -62l-90 92c-64 64 -124.333 96 -181 96c-58 0 -118.333 -32 -181 -96l-90 -92zM341 354c0 -18 0.333008 -33.667 1 -47s2.83398 -30 6.50098 -50s8.83398 -37.167 15.501 -51.5s16.334 -29.5 29.001 -45.5
s27.667 -29.167 45 -39.5s39.666 -18.833 66.999 -25.5s58 -10 92 -10h86c34 0 64.667 3.33301 92 10s49.666 15.167 66.999 25.5s32.333 23.5 45 39.5s22.334 31.167 29.001 45.5s11.834 31.5 15.501 51.5s5.83398 36.667 6.50098 50s1 29 1 47v487
c0 18 -0.333008 33.5 -1 46.5s-2.83398 29.5 -6.50098 49.5s-8.83398 37.167 -15.501 51.5s-16.334 29.666 -29.001 45.999s-27.667 29.5 -45 39.5s-39.666 18.333 -66.999 25s-58 10 -92 10h-86c-34 0 -64.667 -3.33301 -92 -10s-49.666 -15 -66.999 -25
s-32.333 -23.167 -45 -39.5s-22.334 -31.666 -29.001 -45.999s-11.834 -31.5 -15.501 -51.5s-5.83398 -36.5 -6.50098 -49.5s-1 -28.5 -1 -46.5v-487z" />
    <glyph glyph-name="otilde" unicode="&#xf5;" 
d="M85 307v580c0 95.333 39.167 170.5 117.5 225.5s181.5 82.5 309.5 82.5h256c128 0 231.167 -27.5 309.5 -82.5s117.5 -130.167 117.5 -225.5v-580c0 -94.667 -39.167 -169.5 -117.5 -224.5s-181.5 -82.5 -309.5 -82.5h-256c-128 0 -231.167 27.5 -309.5 82.5
s-117.5 129.833 -117.5 224.5zM87 1475l182.999 166c35.333 31.333 77 47 125 47c71.333 0 143 -32.333 215 -97l119 -107c41.333 -36.667 81 -55 119 -55c38.667 0 80 20.333 124 61l103 92l118 -107l-124 -112c-35.333 -31.333 -77 -47 -125 -47
c-71.333 0 -143 32.333 -215 97l-119 107c-41.333 36.667 -81 55 -119 55c-37.333 0 -78.666 -20.333 -123.999 -61l-162 -146zM340.999 354c0 -18 0.333008 -33.667 1 -47s2.83398 -30 6.50098 -50s8.83398 -37.167 15.501 -51.5s16.334 -29.5 29.001 -45.5
s27.667 -29.167 45 -39.5s39.666 -18.833 66.999 -25.5s58 -10 92 -10h86c34 0 64.667 3.33301 92 10s49.666 15.167 66.999 25.5s32.333 23.5 45 39.5s22.334 31.167 29.001 45.5s11.834 31.5 15.501 51.5s5.83398 36.667 6.50098 50s1 29 1 47v487
c0 18 -0.333008 33.5 -1 46.5s-2.83398 29.5 -6.50098 49.5s-8.83398 37.167 -15.501 51.5s-16.334 29.666 -29.001 45.999s-27.667 29.5 -45 39.5s-39.666 18.333 -66.999 25s-58 10 -92 10h-86c-34 0 -64.667 -3.33301 -92 -10s-49.666 -15 -66.999 -25
s-32.333 -23.167 -45 -39.5s-22.334 -31.666 -29.001 -45.999s-11.834 -31.5 -15.501 -51.5s-5.83398 -36.5 -6.50098 -49.5s-1 -28.5 -1 -46.5v-487z" />
    <glyph glyph-name="odieresis" unicode="&#xf6;" 
d="M85 307v580c0 95.333 39.167 170.5 117.5 225.5s181.5 82.5 309.5 82.5h256c128 0 231.167 -27.5 309.5 -82.5s117.5 -130.167 117.5 -225.5v-580c0 -94.667 -39.167 -169.5 -117.5 -224.5s-181.5 -82.5 -309.5 -82.5h-256c-128 0 -231.167 27.5 -309.5 82.5
s-117.5 129.833 -117.5 224.5zM273 1493v85.999c0.666992 10 1.66699 17.167 3 21.5s6.83301 8.83301 16.5 13.5s24.5 7 44.5 7h128c20 0 34.833 -2 44.5 -6s15.167 -8.16699 16.5 -12.5s2.33301 -12.166 3 -23.499v-86c0 -16.667 -3.33301 -27.834 -10 -33.501
s-24.667 -8.5 -54 -8.5h-128c-28.667 0 -46.5 2.83301 -53.5 8.5s-10.5 16.834 -10.5 33.501zM341 353.999c0 -18 0.333008 -33.667 1 -47s2.83398 -30 6.50098 -50s8.83398 -37.167 15.501 -51.5s16.334 -29.5 29.001 -45.5s27.667 -29.167 45 -39.5
s39.666 -18.833 66.999 -25.5s58 -10 92 -10h86c34 0 64.667 3.33301 92 10s49.666 15.167 66.999 25.5s32.333 23.5 45 39.5s22.334 31.167 29.001 45.5s11.834 31.5 15.501 51.5s5.83398 36.667 6.50098 50s1 29 1 47v487c0 18 -0.333008 33.5 -1 46.5
s-2.83398 29.5 -6.50098 49.5s-8.83398 37.167 -15.501 51.5s-16.334 29.666 -29.001 45.999s-27.667 29.5 -45 39.5s-39.666 18.333 -66.999 25s-58 10 -92 10h-86c-34 0 -64.667 -3.33301 -92 -10s-49.666 -15 -66.999 -25s-32.333 -23.167 -45 -39.5
s-22.334 -31.666 -29.001 -45.999s-11.834 -31.5 -15.501 -51.5s-5.83398 -36.5 -6.50098 -49.5s-1 -28.5 -1 -46.5v-487zM785 1493v85.999c0.666992 10 1.66699 17.167 3 21.5s6.83301 8.83301 16.5 13.5s24.5 7 44.5 7h128c20 0 34.833 -2 44.5 -6
s15.167 -8.16699 16.5 -12.5s2.33301 -12.166 3 -23.499v-86c0 -16.667 -3.33301 -27.834 -10 -33.501s-24.667 -8.5 -54 -8.5h-128c-28.667 0 -46.5 2.83301 -53.5 8.5s-10.5 16.834 -10.5 33.501z" />
    <glyph glyph-name="divide" unicode="&#xf7;" 
d="M85 853v86h1110v-86h-1110zM512 512l0.000976562 84.999c0.666992 10 1.66699 17.333 3 22s6.83301 9.33398 16.5 14.001s24.5 7 44.5 7h128c20.667 0 35.667 -2 45 -6s14.666 -8.33301 15.999 -13s2.33301 -12.667 3 -24v-85c0 -16.667 -3.33301 -28 -10 -34
s-24.667 -9 -54 -9h-128c-28.667 0 -46.5 2.83301 -53.5 8.5s-10.5 17.167 -10.5 34.5zM512.001 1195l0.000976562 85c0.666992 10 1.66699 17.167 3 21.5s6.83301 9 16.5 14s24.5 7.5 44.5 7.5h128c20.667 0 35.667 -2 45 -6s14.666 -8.33301 15.999 -13
s2.33301 -12.667 3 -24v-85c0 -16.667 -3.33301 -28 -10 -34s-24.667 -9 -54 -9h-128c-28.667 0 -46.5 2.83301 -53.5 8.5s-10.5 17.167 -10.5 34.5z" />
    <glyph glyph-name="oslash" unicode="&#xf8;" 
d="M85 307l0.000976562 580c0 95.333 39.167 170.5 117.5 225.5s181.5 82.5 309.5 82.5h256c65.333 0 126.666 -8 183.999 -24l72 109h128l-100 -152c95.333 -56 143 -136.333 143 -241v-580c0 -94.667 -39.167 -169.5 -117.5 -224.5s-181.5 -82.5 -309.5 -82.5h-256
c-68.667 0 -130 8 -184 24l-72 -109h-128l100 152c-95.333 55.333 -143 135.333 -143 240zM341.001 354c0 -41.333 3.00195 -75.001 9.00195 -101.001l523 797c-42.667 39.333 -106 59 -190 59h-86c-34 0 -64.667 -3.33301 -92 -10s-49.666 -15 -66.999 -25
s-32.333 -23.167 -45 -39.5s-22.334 -31.666 -29.001 -45.999s-11.834 -31.5 -15.501 -51.5s-5.83398 -36.5 -6.50098 -49.5s-1 -28.5 -1 -46.5v-487zM407.003 144.999c42 -40 105.331 -60.001 189.998 -60.001h86c34 0 64.667 3.33301 92 10s49.666 15.167 66.999 25.5
s32.333 23.5 45 39.5s22.334 31.167 29.001 45.5s11.834 31.5 15.501 51.5s5.83398 36.667 6.50098 50s1 29 1 47v487c0 40.667 -3 74.334 -9 101.001z" />
    <glyph glyph-name="ugrave" unicode="&#xf9;" 
d="M85 307l-0.000976562 888.001h256v-841c0 -18 0.333008 -33.667 1 -47s2.83398 -30 6.50098 -50s8.83398 -37.167 15.501 -51.5s16.334 -29.5 29.001 -45.5s27.667 -29.167 45 -39.5s39.666 -18.833 66.999 -25.5s58 -10 92 -10h171c19.333 0 33.833 0.166992 43.5 0.5
s22.5 1.16602 38.5 2.49902s28.167 3.83301 36.5 7.5s17.166 8.66699 26.499 15s16 14.5 20 24.5s6 22 6 36v1024h256v-1195h-683c-128 0 -231.167 27.5 -309.5 82.5s-117.5 129.833 -117.5 224.5zM499.999 1515l-0.000976562 63.998c0 10.667 0.833008 18.334 2.5 23.001
s7.33398 9 17.001 13s24.5 6 44.5 6h128c15.333 0 27.666 -1 36.999 -3s15.833 -5.5 19.5 -10.5s5.83398 -9.16699 6.50098 -12.5s1 -8.66602 1 -15.999v-22c0 -16.667 -3.5 -27.834 -10.5 -33.501s-24.833 -8.5 -53.5 -8.5c-24 0 -36 -7.33301 -36 -22
c0 -9.33301 5.66699 -19.666 17 -30.999l106 -80l-47 -72l-204 149c-18 14 -27.333 32.667 -28 56z" />
    <glyph glyph-name="uacute" unicode="&#xfa;" 
d="M85 307l-0.000976562 888.001h256v-841c0 -18 0.333008 -33.667 1 -47s2.83398 -30 6.50098 -50s8.83398 -37.167 15.501 -51.5s16.334 -29.5 29.001 -45.5s27.667 -29.167 45 -39.5s39.666 -18.833 66.999 -25.5s58 -10 92 -10h171c19.333 0 33.833 0.166992 43.5 0.5
s22.5 1.16602 38.5 2.49902s28.167 3.83301 36.5 7.5s17.166 8.66699 26.499 15s16 14.5 20 24.5s6 22 6 36v1024h256v-1195h-683c-128 0 -231.167 27.5 -309.5 82.5s-117.5 129.833 -117.5 224.5zM484.999 1382l104.999 80.002c12 12 18 22.333 18 31
c0 14.667 -12 22 -36 22c-28.667 0 -46.5 2.83301 -53.5 8.5s-10.5 16.834 -10.5 33.501v22c0 7.33301 0.333008 12.666 1 15.999s2.83398 7.5 6.50098 12.5s10.167 8.5 19.5 10.5s21.666 3 36.999 3h128c20 0 34.833 -2 44.5 -6s15.334 -8.33301 17.001 -13
s2.5 -12.334 2.5 -23.001v-64c-0.666992 -22.667 -10 -41.334 -28 -56.001l-205 -149z" />
    <glyph glyph-name="ucircumflex" unicode="&#xfb;" 
d="M85 307l-0.000976562 888.001h256v-841c0 -18 0.333008 -33.667 1 -47s2.83398 -30 6.50098 -50s8.83398 -37.167 15.501 -51.5s16.334 -29.5 29.001 -45.5s27.667 -29.167 45 -39.5s39.666 -18.833 66.999 -25.5s58 -10 92 -10h171c19.333 0 33.833 0.166992 43.5 0.5
s22.5 1.16602 38.5 2.49902s28.167 3.83301 36.5 7.5s17.166 8.66699 26.499 15s16 14.5 20 24.5s6 22 6 36v1024h256v-1195h-683c-128 0 -231.167 27.5 -309.5 82.5s-117.5 129.833 -117.5 224.5zM308.999 1337l331 331l331 -331l-60 -62l-90 92
c-64 64 -124.333 96 -181 96c-58 0 -118.333 -32 -181 -96l-90 -92z" />
    <glyph glyph-name="udieresis" unicode="&#xfc;" 
d="M85 307l-0.000976562 888.001h256v-841c0 -18 0.333008 -33.667 1 -47s2.83398 -30 6.50098 -50s8.83398 -37.167 15.501 -51.5s16.334 -29.5 29.001 -45.5s27.667 -29.167 45 -39.5s39.666 -18.833 66.999 -25.5s58 -10 92 -10h171c19.333 0 33.833 0.166992 43.5 0.5
s22.5 1.16602 38.5 2.49902s28.167 3.83301 36.5 7.5s17.166 8.66699 26.499 15s16 14.5 20 24.5s6 22 6 36v1024h256v-1195h-683c-128 0 -231.167 27.5 -309.5 82.5s-117.5 129.833 -117.5 224.5zM255.999 1493v85.999c0.666992 10 1.66699 17.167 3 21.5
s6.83301 8.83301 16.5 13.5s24.5 7 44.5 7h128c20 0 34.833 -2 44.5 -6s15.167 -8.16699 16.5 -12.5s2.33301 -12.166 3 -23.499v-86c0 -16.667 -3.33301 -27.834 -10 -33.501s-24.667 -8.5 -54 -8.5h-128c-28.667 0 -46.5 2.83301 -53.5 8.5s-10.5 16.834 -10.5 33.501z
M767.999 1493v85.999c0.666992 10 1.66699 17.167 3 21.5s6.83301 8.83301 16.5 13.5s24.5 7 44.5 7h128c20 0 34.833 -2 44.5 -6s15.167 -8.16699 16.5 -12.5s2.33301 -12.166 3 -23.499v-86c0 -16.667 -3.33301 -27.834 -10 -33.501s-24.667 -8.5 -54 -8.5h-128
c-28.667 0 -46.5 2.83301 -53.5 8.5s-10.5 16.834 -10.5 33.501z" />
    <glyph glyph-name="yacute" unicode="&#xfd;" 
d="M85 307l-0.00390625 888.001h256v-841c0 -18 0.333008 -33.667 1 -47s2.83398 -30 6.50098 -50s8.83398 -37.167 15.501 -51.5s16.334 -29.5 29.001 -45.5s27.667 -29.167 45 -39.5s39.666 -18.833 66.999 -25.5s58 -10 92 -10h342v1110h256v-1314
c0 -95.333 -39.167 -170.5 -117.5 -225.5s-181.5 -82.5 -309.5 -82.5h-640v86h555c34 0 64.667 3.33301 92 10s49.666 15 66.999 25s32.333 23.167 45 39.5s22.334 31.666 29.001 45.999s11.834 31.5 15.501 51.5s5.83398 36.5 6.50098 49.5s1 28.5 1 46.5v73h-427
c-128 0 -231.167 27.5 -309.5 82.5s-117.5 129.833 -117.5 224.5zM488.996 1382l104.999 80.002c12 12 18 22.333 18 31c0 14.667 -12 22 -36 22c-28.667 0 -46.5 2.83301 -53.5 8.5s-10.5 16.834 -10.5 33.501v22c0 7.33301 0.333008 12.666 1 15.999
s2.83398 7.5 6.50098 12.5s10.167 8.5 19.5 10.5s21.666 3 36.999 3h128c20 0 34.833 -2 44.5 -6s15.334 -8.33301 17.001 -13s2.5 -12.334 2.5 -23.001v-64c-0.666992 -22.667 -10 -41.334 -28 -56.001l-205 -149z" />
    <glyph glyph-name="thorn" unicode="&#xfe;" 
d="M85 0v1195v426h256v-426h427c128 0 231.167 -27.5 309.5 -82.5s117.5 -130.167 117.5 -225.5v-580c0 -94.667 -39.167 -169.5 -117.5 -224.5s-181.5 -82.5 -309.5 -82.5h-427v-427h-256v427zM341 85h341.999c34 0 64.667 3.33301 92 10s49.666 15.167 66.999 25.5
s32.333 23.5 45 39.5s22.334 31.167 29.001 45.5s11.834 31.5 15.501 51.5s5.83398 36.667 6.50098 50s1 29 1 47v487c0 18 -0.333008 33.5 -1 46.5s-2.83398 29.5 -6.50098 49.5s-8.83398 37.167 -15.501 51.5s-16.334 29.666 -29.001 45.999s-27.667 29.5 -45 39.5
s-39.666 18.333 -66.999 25s-58 10 -92 10h-171c-19.333 0 -33.833 -0.166992 -43.5 -0.5s-22.5 -1.16602 -38.5 -2.49902s-28.167 -3.83301 -36.5 -7.5s-17.166 -8.5 -26.499 -14.5s-16 -14 -20 -24s-6 -22 -6 -36v-939z" />
    <glyph glyph-name="ydieresis" unicode="&#xff;" 
d="M85 307l-0.00390625 888.001h256v-841c0 -18 0.333008 -33.667 1 -47s2.83398 -30 6.50098 -50s8.83398 -37.167 15.501 -51.5s16.334 -29.5 29.001 -45.5s27.667 -29.167 45 -39.5s39.666 -18.833 66.999 -25.5s58 -10 92 -10h342v1110h256v-1314
c0 -95.333 -39.167 -170.5 -117.5 -225.5s-181.5 -82.5 -309.5 -82.5h-640v86h555c34 0 64.667 3.33301 92 10s49.666 15 66.999 25s32.333 23.167 45 39.5s22.334 31.666 29.001 45.999s11.834 31.5 15.501 51.5s5.83398 36.5 6.50098 49.5s1 28.5 1 46.5v73h-427
c-128 0 -231.167 27.5 -309.5 82.5s-117.5 129.833 -117.5 224.5zM251.996 1493v85.999c0.666992 10 1.66699 17.167 3 21.5s6.83301 8.83301 16.5 13.5s24.5 7 44.5 7h128c20 0 34.833 -2 44.5 -6s15.167 -8.16699 16.5 -12.5s2.33301 -12.166 3 -23.499v-86
c0 -16.667 -3.33301 -27.834 -10 -33.501s-24.667 -8.5 -54 -8.5h-128c-28.667 0 -46.5 2.83301 -53.5 8.5s-10.5 16.834 -10.5 33.501zM763.996 1493v85.999c0.666992 10 1.66699 17.167 3 21.5s6.83301 8.83301 16.5 13.5s24.5 7 44.5 7h128c20 0 34.833 -2 44.5 -6
s15.167 -8.16699 16.5 -12.5s2.33301 -12.166 3 -23.499v-86c0 -16.667 -3.33301 -27.834 -10 -33.501s-24.667 -8.5 -54 -8.5h-128c-28.667 0 -46.5 2.83301 -53.5 8.5s-10.5 16.834 -10.5 33.501z" />
    <glyph glyph-name="OE" unicode="&#x152;" horiz-adv-x="2304" 
d="M85 307l-0.000976562 1007c0 94.667 39.167 169.5 117.5 224.5s181.5 82.5 309.5 82.5h341c62 0 119 -6.66699 171 -20v20h1109v-85h-682c-19.333 0 -33.833 -0.166992 -43.5 -0.5s-22.5 -1.16602 -38.5 -2.49902s-28.167 -3.83301 -36.5 -7.5
s-17.166 -8.5 -26.499 -14.5s-16 -14 -20 -24s-6 -22 -6 -36v-137v-290h597v-85h-597v-632v-222h853v-85h-1109v20c-52 -13.333 -109 -20 -171 -20h-341c-128 0 -231.167 27.5 -309.5 82.5s-117.5 129.833 -117.5 224.5zM340.999 353.999c0 -18 0.333008 -33.667 1 -47
s2.83398 -30 6.50098 -50s8.83398 -37.167 15.501 -51.5s16.334 -29.5 29.001 -45.5s27.667 -29.167 45 -39.5s39.666 -18.833 66.999 -25.5s58 -10 92 -10h171c34 0 64.667 3.33301 92 10s49.666 15.167 66.999 25.5s32.333 23.5 45 39.5s22.334 31.167 29.001 45.5
s11.834 31.5 15.501 51.5s5.83398 36.667 6.50098 50s1 29 1 47v913c0 18 -0.333008 33.667 -1 47s-2.83398 30 -6.50098 50s-8.83398 37.167 -15.501 51.5s-16.334 29.5 -29.001 45.5s-27.667 29.167 -45 39.5s-39.666 18.833 -66.999 25.5s-58 10 -92 10h-171
c-34 0 -64.667 -3.33301 -92 -10s-49.666 -15.167 -66.999 -25.5s-32.333 -23.5 -45 -39.5s-22.334 -31.167 -29.001 -45.5s-11.834 -31.5 -15.501 -51.5s-5.83398 -36.667 -6.50098 -50s-1 -29 -1 -47v-913z" />
    <glyph glyph-name="oe" unicode="&#x153;" horiz-adv-x="2218" 
d="M85 307l-0.000976562 580c0 95.333 39.167 170.5 117.5 225.5s181.5 82.5 309.5 82.5h256c122 0 221.667 -25.333 299 -76c76.667 50.667 176 76 298 76h256c128 0 231.167 -27.5 309.5 -82.5s117.5 -130.167 117.5 -225.5v-247h-853v-286
c0 -26.667 0.833008 -49.167 2.5 -67.5s7.16699 -41.333 16.5 -69s22.5 -50.167 39.5 -67.5s42.333 -32.5 76 -45.5s74.167 -19.5 121.5 -19.5h554v-85h-640c-121.333 0 -220.666 25 -297.999 75c-78 -50 -177.667 -75 -299 -75h-256c-128 0 -231.167 27.5 -309.5 82.5
s-117.5 129.833 -117.5 224.5zM340.999 354c0 -18 0.333008 -33.667 1 -47s2.83398 -30 6.50098 -50s8.83398 -37.167 15.501 -51.5s16.334 -29.5 29.001 -45.5s27.667 -29.167 45 -39.5s39.666 -18.833 66.999 -25.5s58 -10 92 -10h86c34 0 64.667 3.33301 92 10
s49.666 15.167 66.999 25.5s32.333 23.5 45 39.5s22.334 31.167 29.001 45.5s11.834 31.5 15.501 51.5s5.83398 36.667 6.50098 50s1 29 1 47v487c0 18 -0.333008 33.5 -1 46.5s-2.83398 29.5 -6.50098 49.5s-8.83398 37.167 -15.501 51.5s-16.334 29.666 -29.001 45.999
s-27.667 29.5 -45 39.5s-39.666 18.333 -66.999 25s-58 10 -92 10h-86c-34 0 -64.667 -3.33301 -92 -10s-49.666 -15 -66.999 -25s-32.333 -23.167 -45 -39.5s-22.334 -31.666 -29.001 -45.999s-11.834 -31.5 -15.501 -51.5s-5.83398 -36.5 -6.50098 -49.5
s-1 -28.5 -1 -46.5v-487zM1195 725l597.004 0.000976562v116c0 18 -0.333008 33.5 -1 46.5s-2.83398 29.5 -6.50098 49.5s-8.83398 37.167 -15.501 51.5s-16.334 29.666 -29.001 45.999s-27.667 29.5 -45 39.5s-39.666 18.333 -66.999 25s-58 10 -92 10h-85
c-34 0 -64.667 -3.33301 -92 -10s-49.833 -15 -67.5 -25s-32.834 -23.167 -45.501 -39.5s-22.167 -31.5 -28.5 -45.5s-11.333 -31.167 -15 -51.5s-5.83398 -37 -6.50098 -50s-1 -28.5 -1 -46.5v-116z" />
    <glyph glyph-name="Ydieresis" unicode="&#x178;" horiz-adv-x="1450" 
d="M85 1621h293l250 -450c35.333 -62.667 74.333 -94 117 -94c44 0 87.667 32 131 96l302 448h102l-469 -683v-938h-256v778l-144 259zM301 1834v85.999c0.666992 10 1.66699 17.167 3 21.5s6.83301 8.83301 16.5 13.5s24.5 7 44.5 7h128c20 0 34.833 -2 44.5 -6
s15.167 -8.16699 16.5 -12.5s2.33301 -12.166 3 -23.499v-86c0 -16.667 -3.33301 -27.834 -10 -33.501s-24.667 -8.5 -54 -8.5h-128c-28.667 0 -46.5 2.83301 -53.5 8.5s-10.5 16.834 -10.5 33.501zM813 1834v85.999c0.666992 10 1.66699 17.167 3 21.5
s6.83301 8.83301 16.5 13.5s24.5 7 44.5 7h128c20 0 34.833 -2 44.5 -6s15.167 -8.16699 16.5 -12.5s2.33301 -12.166 3 -23.499v-86c0 -16.667 -3.33301 -27.834 -10 -33.501s-24.667 -8.5 -54 -8.5h-128c-28.667 0 -46.5 2.83301 -53.5 8.5s-10.5 16.834 -10.5 33.501z
" />
    <glyph glyph-name="uni2000" unicode="&#x2000;" horiz-adv-x="1057" 
 />
    <glyph glyph-name="uni2001" unicode="&#x2001;" horiz-adv-x="2115" 
 />
    <glyph glyph-name="uni2002" unicode="&#x2002;" horiz-adv-x="1057" 
 />
    <glyph glyph-name="uni2003" unicode="&#x2003;" horiz-adv-x="2115" 
 />
    <glyph glyph-name="uni2004" unicode="&#x2004;" horiz-adv-x="705" 
 />
    <glyph glyph-name="uni2005" unicode="&#x2005;" horiz-adv-x="528" 
 />
    <glyph glyph-name="uni2006" unicode="&#x2006;" horiz-adv-x="352" 
 />
    <glyph glyph-name="uni2007" unicode="&#x2007;" horiz-adv-x="352" 
 />
    <glyph glyph-name="uni2008" unicode="&#x2008;" horiz-adv-x="264" 
 />
    <glyph glyph-name="uni2009" unicode="&#x2009;" horiz-adv-x="423" 
 />
    <glyph glyph-name="uni200A" unicode="&#x200a;" horiz-adv-x="117" 
 />
    <glyph glyph-name="uni2010" unicode="&#x2010;" 
d="M85 853v86h1110v-86h-1110z" />
    <glyph glyph-name="uni2011" unicode="&#x2011;" 
d="M85 853v86h1110v-86h-1110z" />
    <glyph glyph-name="figuredash" unicode="&#x2012;" 
d="M85 853v86h1110v-86h-1110z" />
    <glyph glyph-name="endash" unicode="&#x2013;" horiz-adv-x="1279" 
d="M85 853v86h1024v-86h-1024z" />
    <glyph glyph-name="emdash" unicode="&#x2014;" horiz-adv-x="2303" 
d="M85 853v86h2048v-86h-2048z" />
    <glyph glyph-name="uni202F" unicode="&#x202f;" horiz-adv-x="423" 
 />
    <glyph glyph-name="uni205F" unicode="&#x205f;" horiz-adv-x="528" 
 />
    <glyph glyph-name="Euro" unicode="&#x20ac;" horiz-adv-x="1536" 
d="M25 507l146 57v164l-115 -45l-31 80l146 57v494c0 94.667 39.167 169.5 117.5 224.5s181.166 82.5 308.499 82.5h342c127.333 0 230.166 -27.5 308.499 -82.5s117.5 -129.833 117.5 -224.5v-79h-256v32c0 26.667 -0.833008 49.167 -2.5 67.5s-7.16699 41.333 -16.5 69
s-22.5 50.167 -39.5 67.5s-42.333 32.5 -76 45.5s-74.167 19.5 -121.5 19.5h-170c-47.333 0 -87.833 -6.5 -121.5 -19.5s-59 -28.167 -76 -45.5s-30.167 -39.833 -39.5 -67.5s-14.833 -50.667 -16.5 -69s-2.5 -40.833 -2.5 -67.5v-347l385 150l31 -79l-416 -163v-164
l385 150l31 -79l-416 -163v-218c0 -26.667 0.833008 -49.167 2.5 -67.5s7.16699 -41.333 16.5 -69s22.5 -50.167 39.5 -67.5s42.333 -32.5 76 -45.5s74.167 -19.5 121.5 -19.5h170c47.333 0 87.833 6.5 121.5 19.5s59 28.167 76 45.5s30.167 39.833 39.5 67.5
s14.833 50.667 16.5 69s2.5 40.833 2.5 67.5v30h256v-77c0 -94.667 -39.167 -169.5 -117.5 -224.5s-181.166 -82.5 -308.499 -82.5h-342c-127.333 0 -230.166 27.5 -308.499 82.5s-117.5 129.833 -117.5 224.5v165l-115 -45z" />
    <glyph glyph-name="uniE000" unicode="&#xe000;" horiz-adv-x="1195" 
d="M0 0v1195h1195v-1195h-1195z" />
    <glyph glyph-name=".null" horiz-adv-x="0" 
 />
  </font>
</defs>
</svg>
